<mxfile host="app.diagrams.net" modified="2023-10-03T05:50:57.995Z" agent="Mozilla/5.0 (Macintosh; Intel Mac OS X 10_15_7) AppleWebKit/537.36 (KHTML, like Gecko) Chrome/116.0.0.0 Safari/537.36" etag="IF-o4insdilZkwOej33B" version="21.6.9" type="github">
  <diagram name="第 1 页" id="9PC4zm-S7VNqFv0n2ODk">
    <mxGraphModel dx="2373" dy="1999" grid="1" gridSize="10" guides="1" tooltips="1" connect="1" arrows="1" fold="1" page="1" pageScale="1" pageWidth="827" pageHeight="1169" math="0" shadow="0">
      <root>
        <mxCell id="0" />
        <mxCell id="1" parent="0" />
        <mxCell id="uuMYFCACOVy0hHcjNsLC-1" value="" style="whiteSpace=wrap;html=1;fillColor=default;dashed=1;strokeColor=#FF8000;" vertex="1" parent="1">
          <mxGeometry x="-16" y="-16" width="1162" height="693" as="geometry" />
        </mxCell>
        <mxCell id="uuMYFCACOVy0hHcjNsLC-2" value="" style="whiteSpace=wrap;html=1;fillColor=none;dashed=1;strokeColor=#FF9933;" vertex="1" parent="1">
          <mxGeometry x="812" y="301" width="108" height="45.5" as="geometry" />
        </mxCell>
        <mxCell id="uuMYFCACOVy0hHcjNsLC-3" value="" style="whiteSpace=wrap;html=1;fillColor=none;dashed=1;strokeColor=#FF9933;" vertex="1" parent="1">
          <mxGeometry x="812" y="246" width="98" height="48.5" as="geometry" />
        </mxCell>
        <mxCell id="uuMYFCACOVy0hHcjNsLC-4" value="" style="whiteSpace=wrap;html=1;fillColor=none;dashed=1;strokeColor=#FF9933;" vertex="1" parent="1">
          <mxGeometry x="812" y="142.5" width="169" height="64.5" as="geometry" />
        </mxCell>
        <mxCell id="uuMYFCACOVy0hHcjNsLC-5" value="" style="whiteSpace=wrap;html=1;fillColor=none;dashed=1;strokeColor=#FF9933;" vertex="1" parent="1">
          <mxGeometry x="812" y="73" width="175" height="65" as="geometry" />
        </mxCell>
        <mxCell id="uuMYFCACOVy0hHcjNsLC-6" value="" style="whiteSpace=wrap;html=1;fillColor=none;dashed=1;strokeColor=#FF9933;" vertex="1" parent="1">
          <mxGeometry x="812" y="-1" width="322.5" height="69" as="geometry" />
        </mxCell>
        <mxCell id="uuMYFCACOVy0hHcjNsLC-7" style="edgeStyle=orthogonalEdgeStyle;rounded=0;orthogonalLoop=1;jettySize=auto;html=1;exitX=1;exitY=0.5;exitDx=0;exitDy=0;dashed=1;strokeWidth=2;strokeColor=#66FF66;entryX=0.5;entryY=1;entryDx=0;entryDy=0;" edge="1" parent="1" source="uuMYFCACOVy0hHcjNsLC-28" target="uuMYFCACOVy0hHcjNsLC-148">
          <mxGeometry relative="1" as="geometry">
            <Array as="points">
              <mxPoint x="733" y="203" />
              <mxPoint x="733" y="135" />
              <mxPoint x="850" y="135" />
            </Array>
          </mxGeometry>
        </mxCell>
        <mxCell id="uuMYFCACOVy0hHcjNsLC-8" style="edgeStyle=orthogonalEdgeStyle;rounded=0;orthogonalLoop=1;jettySize=auto;html=1;exitX=1;exitY=0.5;exitDx=0;exitDy=0;entryX=0.5;entryY=1;entryDx=0;entryDy=0;dashed=1;strokeWidth=2;strokeColor=#66FF66;" edge="1" parent="1" source="uuMYFCACOVy0hHcjNsLC-28" target="uuMYFCACOVy0hHcjNsLC-84">
          <mxGeometry relative="1" as="geometry">
            <Array as="points">
              <mxPoint x="733" y="203" />
              <mxPoint x="733" y="294" />
              <mxPoint x="841" y="294" />
            </Array>
          </mxGeometry>
        </mxCell>
        <mxCell id="uuMYFCACOVy0hHcjNsLC-9" style="edgeStyle=orthogonalEdgeStyle;rounded=0;orthogonalLoop=1;jettySize=auto;html=1;exitX=1;exitY=0.5;exitDx=0;exitDy=0;dashed=1;strokeWidth=2;strokeColor=#66FF66;" edge="1" parent="1" source="uuMYFCACOVy0hHcjNsLC-28" target="uuMYFCACOVy0hHcjNsLC-53">
          <mxGeometry relative="1" as="geometry">
            <Array as="points">
              <mxPoint x="733" y="203" />
              <mxPoint x="733" y="369" />
            </Array>
          </mxGeometry>
        </mxCell>
        <mxCell id="uuMYFCACOVy0hHcjNsLC-10" style="edgeStyle=orthogonalEdgeStyle;rounded=0;orthogonalLoop=1;jettySize=auto;html=1;exitX=1;exitY=0.5;exitDx=0;exitDy=0;entryX=0.5;entryY=1;entryDx=0;entryDy=0;strokeColor=#66FF66;strokeWidth=2;dashed=1;" edge="1" parent="1" source="uuMYFCACOVy0hHcjNsLC-28" target="uuMYFCACOVy0hHcjNsLC-142">
          <mxGeometry relative="1" as="geometry">
            <Array as="points">
              <mxPoint x="681" y="203" />
              <mxPoint x="733" y="203" />
              <mxPoint x="733" y="65" />
              <mxPoint x="893" y="65" />
            </Array>
          </mxGeometry>
        </mxCell>
        <mxCell id="uuMYFCACOVy0hHcjNsLC-11" style="edgeStyle=orthogonalEdgeStyle;rounded=0;orthogonalLoop=1;jettySize=auto;html=1;exitX=1;exitY=0.5;exitDx=0;exitDy=0;entryX=0.5;entryY=1;entryDx=0;entryDy=0;strokeColor=#66FF66;strokeWidth=2;dashed=1;" edge="1" parent="1" source="uuMYFCACOVy0hHcjNsLC-28" target="uuMYFCACOVy0hHcjNsLC-136">
          <mxGeometry relative="1" as="geometry">
            <Array as="points">
              <mxPoint x="733" y="203" />
              <mxPoint x="733" y="135" />
              <mxPoint x="898" y="135" />
            </Array>
          </mxGeometry>
        </mxCell>
        <mxCell id="uuMYFCACOVy0hHcjNsLC-12" style="edgeStyle=orthogonalEdgeStyle;rounded=0;orthogonalLoop=1;jettySize=auto;html=1;exitX=1.029;exitY=0.52;exitDx=0;exitDy=0;entryX=0.5;entryY=1;entryDx=0;entryDy=0;startArrow=none;strokeColor=#66FF66;strokeWidth=2;dashed=1;exitPerimeter=0;" edge="1" parent="1" source="uuMYFCACOVy0hHcjNsLC-28" target="uuMYFCACOVy0hHcjNsLC-52">
          <mxGeometry relative="1" as="geometry">
            <mxPoint x="827" y="128" as="sourcePoint" />
            <Array as="points">
              <mxPoint x="733" y="203" />
              <mxPoint x="733" y="136" />
              <mxPoint x="946" y="136" />
            </Array>
          </mxGeometry>
        </mxCell>
        <mxCell id="uuMYFCACOVy0hHcjNsLC-13" style="edgeStyle=orthogonalEdgeStyle;rounded=0;orthogonalLoop=1;jettySize=auto;html=1;exitX=1;exitY=0.5;exitDx=0;exitDy=0;entryX=0.5;entryY=1;entryDx=0;entryDy=0;strokeColor=#66FF66;strokeWidth=2;dashed=1;" edge="1" parent="1" source="uuMYFCACOVy0hHcjNsLC-28" target="uuMYFCACOVy0hHcjNsLC-147">
          <mxGeometry relative="1" as="geometry">
            <Array as="points">
              <mxPoint x="733" y="203" />
              <mxPoint x="733" y="65" />
              <mxPoint x="842" y="65" />
            </Array>
          </mxGeometry>
        </mxCell>
        <mxCell id="uuMYFCACOVy0hHcjNsLC-14" style="edgeStyle=orthogonalEdgeStyle;rounded=0;orthogonalLoop=1;jettySize=auto;html=1;exitX=1;exitY=0.5;exitDx=0;exitDy=0;entryX=0.5;entryY=1;entryDx=0;entryDy=0;strokeColor=#66FF66;strokeWidth=2;dashed=1;" edge="1" parent="1" source="uuMYFCACOVy0hHcjNsLC-28" target="uuMYFCACOVy0hHcjNsLC-145">
          <mxGeometry relative="1" as="geometry">
            <Array as="points">
              <mxPoint x="733" y="203" />
              <mxPoint x="733" y="65" />
              <mxPoint x="940" y="65" />
            </Array>
          </mxGeometry>
        </mxCell>
        <mxCell id="uuMYFCACOVy0hHcjNsLC-15" style="edgeStyle=orthogonalEdgeStyle;rounded=0;orthogonalLoop=1;jettySize=auto;html=1;exitX=1;exitY=0.5;exitDx=0;exitDy=0;entryX=0.5;entryY=1;entryDx=0;entryDy=0;strokeColor=#66FF66;strokeWidth=2;dashed=1;" edge="1" parent="1" source="uuMYFCACOVy0hHcjNsLC-28" target="uuMYFCACOVy0hHcjNsLC-135">
          <mxGeometry relative="1" as="geometry">
            <Array as="points">
              <mxPoint x="733" y="203" />
              <mxPoint x="733" y="65" />
              <mxPoint x="992" y="65" />
            </Array>
          </mxGeometry>
        </mxCell>
        <mxCell id="uuMYFCACOVy0hHcjNsLC-16" style="edgeStyle=orthogonalEdgeStyle;rounded=0;orthogonalLoop=1;jettySize=auto;html=1;exitX=1;exitY=0.5;exitDx=0;exitDy=0;entryX=0.5;entryY=1;entryDx=0;entryDy=0;strokeColor=#66FF66;strokeWidth=2;dashed=1;" edge="1" parent="1" source="uuMYFCACOVy0hHcjNsLC-28" target="uuMYFCACOVy0hHcjNsLC-146">
          <mxGeometry relative="1" as="geometry">
            <Array as="points">
              <mxPoint x="733" y="203" />
              <mxPoint x="733" y="65" />
              <mxPoint x="1041" y="65" />
            </Array>
          </mxGeometry>
        </mxCell>
        <mxCell id="uuMYFCACOVy0hHcjNsLC-17" style="edgeStyle=orthogonalEdgeStyle;rounded=0;orthogonalLoop=1;jettySize=auto;html=1;exitX=1;exitY=0.5;exitDx=0;exitDy=0;entryX=0.5;entryY=1;entryDx=0;entryDy=0;strokeColor=#66FF66;strokeWidth=2;dashed=1;" edge="1" parent="1" source="uuMYFCACOVy0hHcjNsLC-28" target="uuMYFCACOVy0hHcjNsLC-51">
          <mxGeometry relative="1" as="geometry">
            <Array as="points">
              <mxPoint x="733" y="203" />
              <mxPoint x="733" y="65" />
              <mxPoint x="1095" y="65" />
            </Array>
          </mxGeometry>
        </mxCell>
        <mxCell id="uuMYFCACOVy0hHcjNsLC-18" style="edgeStyle=orthogonalEdgeStyle;rounded=0;orthogonalLoop=1;jettySize=auto;html=1;exitX=1;exitY=0.5;exitDx=0;exitDy=0;entryX=0.5;entryY=1;entryDx=0;entryDy=0;strokeColor=#66FF66;strokeWidth=2;dashed=1;" edge="1" parent="1" source="uuMYFCACOVy0hHcjNsLC-28" target="uuMYFCACOVy0hHcjNsLC-79">
          <mxGeometry relative="1" as="geometry">
            <Array as="points">
              <mxPoint x="681" y="203" />
              <mxPoint x="846" y="203" />
            </Array>
          </mxGeometry>
        </mxCell>
        <mxCell id="uuMYFCACOVy0hHcjNsLC-19" style="edgeStyle=orthogonalEdgeStyle;rounded=0;orthogonalLoop=1;jettySize=auto;html=1;exitX=1;exitY=0.5;exitDx=0;exitDy=0;entryX=0.5;entryY=1;entryDx=0;entryDy=0;startArrow=none;strokeColor=#66FF66;strokeWidth=2;dashed=1;" edge="1" parent="1" source="uuMYFCACOVy0hHcjNsLC-28" target="uuMYFCACOVy0hHcjNsLC-143">
          <mxGeometry relative="1" as="geometry">
            <Array as="points">
              <mxPoint x="681" y="203" />
              <mxPoint x="900" y="203" />
            </Array>
          </mxGeometry>
        </mxCell>
        <mxCell id="uuMYFCACOVy0hHcjNsLC-20" style="edgeStyle=orthogonalEdgeStyle;rounded=0;orthogonalLoop=1;jettySize=auto;html=1;exitX=1;exitY=0.5;exitDx=0;exitDy=0;entryX=0.5;entryY=1;entryDx=0;entryDy=0;strokeColor=#66FF66;strokeWidth=2;dashed=1;" edge="1" parent="1" source="uuMYFCACOVy0hHcjNsLC-28" target="uuMYFCACOVy0hHcjNsLC-137">
          <mxGeometry relative="1" as="geometry">
            <Array as="points">
              <mxPoint x="733" y="203" />
              <mxPoint x="733" y="294" />
              <mxPoint x="886" y="294" />
            </Array>
          </mxGeometry>
        </mxCell>
        <mxCell id="uuMYFCACOVy0hHcjNsLC-21" style="edgeStyle=orthogonalEdgeStyle;rounded=0;orthogonalLoop=1;jettySize=auto;html=1;exitX=1;exitY=0.5;exitDx=0;exitDy=0;entryX=0.5;entryY=1;entryDx=0;entryDy=0;strokeColor=#66FF66;strokeWidth=2;dashed=1;" edge="1" parent="1" source="uuMYFCACOVy0hHcjNsLC-28" target="uuMYFCACOVy0hHcjNsLC-85">
          <mxGeometry relative="1" as="geometry">
            <Array as="points">
              <mxPoint x="733" y="203" />
              <mxPoint x="733" y="347" />
              <mxPoint x="840" y="347" />
            </Array>
          </mxGeometry>
        </mxCell>
        <mxCell id="uuMYFCACOVy0hHcjNsLC-22" style="edgeStyle=orthogonalEdgeStyle;rounded=0;orthogonalLoop=1;jettySize=auto;html=1;exitX=1;exitY=0.5;exitDx=0;exitDy=0;entryX=0.5;entryY=1;entryDx=0;entryDy=0;strokeColor=#66FF66;strokeWidth=2;dashed=1;" edge="1" parent="1" source="uuMYFCACOVy0hHcjNsLC-28" target="uuMYFCACOVy0hHcjNsLC-138">
          <mxGeometry relative="1" as="geometry">
            <Array as="points">
              <mxPoint x="733" y="203" />
              <mxPoint x="733" y="347" />
              <mxPoint x="893" y="347" />
            </Array>
          </mxGeometry>
        </mxCell>
        <mxCell id="uuMYFCACOVy0hHcjNsLC-23" style="edgeStyle=orthogonalEdgeStyle;rounded=0;orthogonalLoop=1;jettySize=auto;html=1;exitX=1;exitY=0.5;exitDx=0;exitDy=0;entryX=0;entryY=0.5;entryDx=0;entryDy=0;strokeColor=#66FF66;strokeWidth=2;dashed=1;" edge="1" parent="1" source="uuMYFCACOVy0hHcjNsLC-28" target="uuMYFCACOVy0hHcjNsLC-86">
          <mxGeometry relative="1" as="geometry">
            <Array as="points">
              <mxPoint x="733" y="203" />
              <mxPoint x="733" y="400" />
            </Array>
          </mxGeometry>
        </mxCell>
        <mxCell id="uuMYFCACOVy0hHcjNsLC-24" style="edgeStyle=orthogonalEdgeStyle;rounded=0;orthogonalLoop=1;jettySize=auto;html=1;exitX=1;exitY=0.5;exitDx=0;exitDy=0;entryX=0;entryY=0.5;entryDx=0;entryDy=0;strokeColor=#66FF66;strokeWidth=2;dashed=1;" edge="1" parent="1" source="uuMYFCACOVy0hHcjNsLC-28" target="uuMYFCACOVy0hHcjNsLC-144">
          <mxGeometry relative="1" as="geometry">
            <Array as="points">
              <mxPoint x="733" y="203" />
              <mxPoint x="733" y="438" />
            </Array>
          </mxGeometry>
        </mxCell>
        <mxCell id="uuMYFCACOVy0hHcjNsLC-25" style="edgeStyle=orthogonalEdgeStyle;rounded=0;orthogonalLoop=1;jettySize=auto;html=1;exitX=1;exitY=0.5;exitDx=0;exitDy=0;entryX=0;entryY=0.75;entryDx=0;entryDy=0;strokeColor=#66FF66;strokeWidth=2;dashed=1;" edge="1" parent="1" source="uuMYFCACOVy0hHcjNsLC-28" target="uuMYFCACOVy0hHcjNsLC-82">
          <mxGeometry relative="1" as="geometry">
            <Array as="points">
              <mxPoint x="733" y="203" />
              <mxPoint x="733" y="229" />
            </Array>
          </mxGeometry>
        </mxCell>
        <mxCell id="uuMYFCACOVy0hHcjNsLC-26" style="edgeStyle=orthogonalEdgeStyle;rounded=0;orthogonalLoop=1;jettySize=auto;html=1;exitX=0.5;exitY=1;exitDx=0;exitDy=0;entryX=0;entryY=0.5;entryDx=0;entryDy=0;strokeWidth=2;strokeColor=#66FF66;dashed=1;" edge="1" parent="1" source="uuMYFCACOVy0hHcjNsLC-28" target="uuMYFCACOVy0hHcjNsLC-37">
          <mxGeometry relative="1" as="geometry" />
        </mxCell>
        <mxCell id="uuMYFCACOVy0hHcjNsLC-27" style="edgeStyle=orthogonalEdgeStyle;rounded=0;orthogonalLoop=1;jettySize=auto;html=1;exitX=1;exitY=0.5;exitDx=0;exitDy=0;entryX=0.5;entryY=1;entryDx=0;entryDy=0;strokeWidth=2;dashed=1;strokeColor=#66FF66;" edge="1" parent="1" source="uuMYFCACOVy0hHcjNsLC-28" target="uuMYFCACOVy0hHcjNsLC-184">
          <mxGeometry relative="1" as="geometry">
            <Array as="points">
              <mxPoint x="681" y="202" />
              <mxPoint x="953" y="202" />
            </Array>
          </mxGeometry>
        </mxCell>
        <mxCell id="uuMYFCACOVy0hHcjNsLC-28" value="" style="whiteSpace=wrap;html=1;fillColor=none;dashed=1;strokeColor=#FF9933;" vertex="1" parent="1">
          <mxGeometry x="545" y="3" width="136" height="384" as="geometry" />
        </mxCell>
        <mxCell id="uuMYFCACOVy0hHcjNsLC-29" style="edgeStyle=orthogonalEdgeStyle;rounded=0;orthogonalLoop=1;jettySize=auto;html=1;dashed=1;strokeWidth=2;strokeColor=#99FF99;exitX=1;exitY=0.5;exitDx=0;exitDy=0;" edge="1" parent="1" source="uuMYFCACOVy0hHcjNsLC-55" target="uuMYFCACOVy0hHcjNsLC-38">
          <mxGeometry relative="1" as="geometry">
            <mxPoint x="279" y="45" as="targetPoint" />
            <Array as="points">
              <mxPoint x="75" y="72" />
              <mxPoint x="110" y="72" />
              <mxPoint x="110" y="42" />
            </Array>
            <mxPoint x="76" y="-24" as="sourcePoint" />
          </mxGeometry>
        </mxCell>
        <mxCell id="uuMYFCACOVy0hHcjNsLC-30" value="&lt;font color=&quot;#ea6b66&quot;&gt;接口&lt;/font&gt;" style="edgeLabel;html=1;align=center;verticalAlign=middle;resizable=0;points=[];" vertex="1" connectable="0" parent="uuMYFCACOVy0hHcjNsLC-29">
          <mxGeometry x="0.472" y="-2" relative="1" as="geometry">
            <mxPoint x="-40" y="-11" as="offset" />
          </mxGeometry>
        </mxCell>
        <mxCell id="uuMYFCACOVy0hHcjNsLC-31" style="edgeStyle=orthogonalEdgeStyle;rounded=0;orthogonalLoop=1;jettySize=auto;html=1;exitX=1;exitY=0.5;exitDx=0;exitDy=0;dashed=1;strokeWidth=2;strokeColor=#99FF99;" edge="1" parent="1" source="uuMYFCACOVy0hHcjNsLC-55" target="uuMYFCACOVy0hHcjNsLC-42">
          <mxGeometry relative="1" as="geometry">
            <Array as="points">
              <mxPoint x="75" y="71" />
              <mxPoint x="110" y="71" />
              <mxPoint x="110" y="109" />
            </Array>
            <mxPoint x="73" y="127.5" as="sourcePoint" />
            <mxPoint x="352" y="144" as="targetPoint" />
          </mxGeometry>
        </mxCell>
        <mxCell id="uuMYFCACOVy0hHcjNsLC-32" value="&lt;font color=&quot;#ea6b66&quot;&gt;前端&lt;/font&gt;" style="edgeLabel;html=1;align=center;verticalAlign=middle;resizable=0;points=[];" vertex="1" connectable="0" parent="uuMYFCACOVy0hHcjNsLC-31">
          <mxGeometry x="-0.3832" y="-1" relative="1" as="geometry">
            <mxPoint x="-10" y="9" as="offset" />
          </mxGeometry>
        </mxCell>
        <mxCell id="uuMYFCACOVy0hHcjNsLC-33" style="edgeStyle=orthogonalEdgeStyle;rounded=0;orthogonalLoop=1;jettySize=auto;html=1;dashed=1;strokeWidth=2;strokeColor=#99FF99;entryX=0;entryY=0.25;entryDx=0;entryDy=0;" edge="1" parent="1" target="uuMYFCACOVy0hHcjNsLC-46">
          <mxGeometry relative="1" as="geometry">
            <Array as="points">
              <mxPoint x="70" y="361" />
              <mxPoint x="110" y="361" />
              <mxPoint x="110" y="294" />
              <mxPoint x="188" y="294" />
              <mxPoint x="188" y="298" />
              <mxPoint x="170" y="298" />
            </Array>
            <mxPoint x="70" y="359" as="sourcePoint" />
            <mxPoint x="171" y="338" as="targetPoint" />
          </mxGeometry>
        </mxCell>
        <mxCell id="uuMYFCACOVy0hHcjNsLC-34" value="&lt;font color=&quot;#ea6b66&quot;&gt;接口&lt;/font&gt;" style="edgeLabel;html=1;align=center;verticalAlign=middle;resizable=0;points=[];" vertex="1" connectable="0" parent="uuMYFCACOVy0hHcjNsLC-33">
          <mxGeometry x="0.5137" relative="1" as="geometry">
            <mxPoint x="-43" y="-11" as="offset" />
          </mxGeometry>
        </mxCell>
        <mxCell id="uuMYFCACOVy0hHcjNsLC-35" value="&lt;font color=&quot;#ea6b66&quot;&gt;前端&lt;/font&gt;" style="edgeStyle=orthogonalEdgeStyle;rounded=0;orthogonalLoop=1;jettySize=auto;html=1;dashed=1;strokeWidth=2;strokeColor=#99FF99;" edge="1" parent="1">
          <mxGeometry x="0.0863" y="-7" relative="1" as="geometry">
            <Array as="points">
              <mxPoint x="72" y="361" />
              <mxPoint x="110" y="361" />
              <mxPoint x="110" y="414" />
              <mxPoint x="214" y="414" />
            </Array>
            <mxPoint as="offset" />
            <mxPoint x="72" y="359" as="sourcePoint" />
            <mxPoint x="217" y="410" as="targetPoint" />
          </mxGeometry>
        </mxCell>
        <mxCell id="uuMYFCACOVy0hHcjNsLC-36" style="edgeStyle=orthogonalEdgeStyle;rounded=0;orthogonalLoop=1;jettySize=auto;html=1;exitX=1;exitY=0.5;exitDx=0;exitDy=0;dashed=1;strokeWidth=2;strokeColor=#99FF99;" edge="1" parent="1" source="uuMYFCACOVy0hHcjNsLC-56" target="uuMYFCACOVy0hHcjNsLC-40">
          <mxGeometry relative="1" as="geometry">
            <mxPoint x="89" y="193" as="sourcePoint" />
          </mxGeometry>
        </mxCell>
        <mxCell id="uuMYFCACOVy0hHcjNsLC-37" value="OSS" style="shape=image;verticalLabelPosition=bottom;verticalAlign=top;imageAspect=0;aspect=fixed;image=data:image/svg+xml,PHN2ZyB4bWxucz0iaHR0cDovL3d3dy53My5vcmcvMjAwMC9zdmciIHhtbG5zOnhsaW5rPSJodHRwOi8vd3d3LnczLm9yZy8xOTk5L3hsaW5rIiB0PSIxNTc1MzYyMTY2MjQ1IiBjbGFzcz0iaWNvbiIgdmlld0JveD0iMCAwIDEwMjQgMTAyNCIgdmVyc2lvbj0iMS4xIiBwLWlkPSI0MzgyIiB3aWR0aD0iMTI4IiBoZWlnaHQ9IjEyOCI+PGRlZnM+PHN0eWxlIHR5cGU9InRleHQvY3NzIi8+PC9kZWZzPjxwYXRoIGQ9Ik02MjAuNzU3IDE3MC42NjdjLTE1NS40MzQgMC0yODUuNzYgMTA3LjItMzIxLjE5NCAyNTEuNjY5YTE4Mi4zMzYgMTgyLjMzNiAwIDAgMC05LjU1OC0wLjI1NmMtMTEzLjAyNCAwLTIwNC42NzIgOTEuNjI3LTIwNC42NzIgMjA0LjY3MmEyMDMuNzk3IDIwMy43OTcgMCAwIDAgNTkuOTQ3IDE0NC42NCAyMDMuNzMzIDIwMy43MzMgMCAwIDAgMTQ0LjcyNSA1OS44NjEgMjA0LjQzNyAyMDQuNDM3IDAgMCAwIDE0NC43OS02MC4yMDJjMzIuMTA2LTMyLjEwNyA1MC4xMzMtNzUuMDk0IDU1LjMxNy0xMjIuODM4TDQxNiA2NDIuMzljLTE2Ljc5LTIuMDktMjIuMTg3LTE0LjgwNS0xMS45NjgtMjguMzczTDUyOS42IDQ1OC42NjZjMTAuMTU1LTEzLjU0NiAyMy45NTctMTEuODgyIDMwLjYxMyAzLjc1NWw3MS4xOSAxNzMuOTc0YzYuNjU2IDE1LjYzNy0xLjc1IDI2LjY4OC0xOC41NiAyNC42MThsLTU1LjEyNi01LjA3N2MtNi4yNSA1Ny42NDMtMzIuMTkyIDEwOC41MjMtNjguNDU4IDE0OC44NjRBMzI5Ljk2MyAzMjkuOTYzIDAgMCAwIDYyMC43NTcgODMyYzE4Mi42MTQgMCAzMzAuNjY3LTE0OC4wNTMgMzMwLjY2Ny0zMzAuNjY3IDAtMTgyLjYxMy0xNDguMDUzLTMzMC42NjYtMzMwLjY2Ny0zMzAuNjY2eiIgZmlsbD0iIzAwQzFERSIgcC1pZD0iNDM4MyIvPjwvc3ZnPg==;fontColor=#EA6B66;fontSize=8;spacing=-6;" vertex="1" parent="1">
          <mxGeometry x="696" y="399" width="30" height="30" as="geometry" />
        </mxCell>
        <mxCell id="uuMYFCACOVy0hHcjNsLC-38" value="eaf WAF" style="shape=image;verticalLabelPosition=bottom;verticalAlign=top;imageAspect=0;aspect=fixed;image=data:image/svg+xml,PHN2ZyB4bWxucz0iaHR0cDovL3d3dy53My5vcmcvMjAwMC9zdmciIHhtbG5zOnhsaW5rPSJodHRwOi8vd3d3LnczLm9yZy8xOTk5L3hsaW5rIiB0PSIxNTc1NDQzMTgyMTA2IiBjbGFzcz0iaWNvbiIgdmlld0JveD0iMCAwIDEwMjQgMTAyNCIgdmVyc2lvbj0iMS4xIiBwLWlkPSI3ODk3MyIgd2lkdGg9IjEyOCIgaGVpZ2h0PSIxMjgiPjxkZWZzPjxzdHlsZSB0eXBlPSJ0ZXh0L2NzcyIvPjwvZGVmcz48cGF0aCBkPSJNNzA1LjAyNCAyNzkuMDRsMS4wMjQgNDQuNTQ0YzE0LjMzNiAwLjUxMiAyNS42IDIuNTYgMzguOTEyIDYuMTQ0IDEwLjI0IDE3LjQwOCAyMy41NTIgNDkuMTUyIDMxLjc0NCA5Mi4xNmgtNjkuNjMydjEwLjI0aDcxLjY4YzMuMDcyIDE5Ljk2OCA1LjEyIDQ0LjU0NCA1LjYzMiA3MC4xNDRoLTc3LjMxMnYxMC4yNGg3Ny4zMTJjMCAyMy41NTItMi4wNDggNDYuNTkyLTUuNjMyIDcwLjE0NGgtNzEuNjh2MTAuMjRoNjkuMTJjLTguNzA0IDQzLjAwOC0yMi4wMTYgNzUuMjY0LTMyLjI1NiA5Mi4xNi0xMy4zMTIgMy41ODQtMjQuNTc2IDUuNjMyLTM4LjkxMiA2LjE0NGwtMS4wMjQgNDQuNTQ0YzEyMy4zOTItMy41ODQgMjIxLjE4NC0xMDQuNDQ4IDIyMS4xODQtMjI4Ljg2NCAwLjUxMi0xMjMuMzkyLTk2Ljc2OC0yMjQuMjU2LTIyMC4xNi0yMjcuODR6IG0xNzYuMTI4IDIyMy4yMzJINzk4LjcyYzAtMjMuNTUyLTIuMDQ4LTQ2LjU5Mi01LjYzMi03MC4xNDRIODY1LjI4YzkuNzI4IDIxLjUwNCAxNC44NDggNDYuMDggMTUuODcyIDcwLjE0NHogbS0xMTkuMjk2LTE2Ni45MTJjNDEuNDcyIDE1LjM2IDc1Ljc3NiA0OC42NCA5Ni43NjggODcuMDRoLTY4LjA5NmMtNy4xNjgtMzguOTEyLTE4Ljk0NC02OS42MzItMjguNjcyLTg3LjA0eiBtMCAzNDQuNTc2YzkuNzI4LTE3LjQwOCAyMS41MDQtNDguMTI4IDI5LjE4NC04Ny4wNGg2Ny41ODRjLTIxLjUwNCAzNy44ODgtNTUuMjk2IDcxLjY4LTk2Ljc2OCA4Ny4wNHogbTMxLjIzMi05Ny4yOGMzLjA3Mi0xOS45NjggNS42MzItNDQuMDMyIDUuNjMyLTcwLjE0NGg4Mi45NDRjLTEuMDI0IDI0LjA2NC02LjY1NiA0Ny42MTYtMTYuMzg0IDcwLjE0NGgtNzIuMTkyeiBtLTE0NS40MDggMTAyLjRjMTMuMzEyIDMuNTg0IDMzLjc5MiA1LjYzMiA0OC42NCA2LjE0NHYtOTguMzA0aC04MC4zODRjOC4xOTIgNDMuMDA4IDIxLjUwNCA3NC43NTIgMzEuNzQ0IDkyLjE2eiBtLTM0LjMwNC0xMDIuNEg2OTYuMzJ2LTcwLjE0NGgtODguNTc2YzAuNTEyIDIzLjU1MiAyLjU2IDQ3LjEwNCA1LjYzMiA3MC4xNDR6IG0tNS42MzItODAuMzg0SDY5Ni4zMlY0MzIuNjRoLTgyLjk0NGMtMy41ODQgMjMuMDQtNS42MzIgNDYuMDgtNS42MzIgNjkuNjMyeiBtLTEzOS4yNjQgNS4xMmMwLTEyNS45NTIgMTAzLjkzNi0yMjguMzUyIDIyOS44ODgtMjI4LjM1Mmg2LjE0NFYxMzcuMjE2bC0yOTEuMzI4IDQ1LjU2OHY2NDkuMjE2bDI5MC44MTYgNDUuNTY4IDAuNTEyLTE0MS44MjRoLTYuMTQ0Yy0xMjUuOTUyIDAtMjI5Ljg4OC0xMDEuODg4LTIyOS44ODgtMjI4LjM1MnogbTEyNS40NCA1LjEyaC04MC44OTZjMS4wMjQgMjQuMDY0IDYuNjU2IDQ3LjYxNiAxNi4zODQgNzAuMTQ0aDcwLjE0NGMtMy4wNzItMjMuMDQtNS4xMi00Ni41OTItNS42MzItNzAuMTQ0eiBtMjEuNTA0LTkxLjEzNkg2OTYuMzJWMzIzLjU4NGMtMTQuODQ4IDAuNTEyLTM1LjMyOCAzLjA3Mi00OC42NCA2LjY1Ni0xMC43NTIgMTcuNDA4LTIzLjU1MiA0OC42NC0zMi4yNTYgOTEuMTM2eiBtLTE1Ljg3MiAxMS4yNjRoLTcwLjY1NmMtOS43MjggMjIuMDE2LTE1LjM2IDQ1LjU2OC0xNS44NzIgNzAuMTQ0SDU5My45MmMwLjUxMi0yNi4xMTIgMi41Ni01MC4xNzYgNS42MzItNzAuMTQ0eiBtLTYyLjk3NiAxNjAuMjU2YzIwLjQ4IDM3LjM3NiA1My43NiA3MC42NTYgOTQuNzIgODYuNTI4LTkuNzI4LTE3LjQwOC0yMC45OTItNDcuNjE2LTI4LjY3Mi04Ni41MjhoLTY2LjA0OHogbTk0LjIwOC0yNTcuMDI0Yy00MC40NDggMTUuODcyLTczLjcyOCA0OC4xMjgtOTQuMjA4IDg1LjUwNGg2Ni4wNDhjNy4xNjgtMzguNCAxOC40MzItNjcuNTg0IDI4LjE2LTg1LjUwNHogbS00MzcuMjQ4IDM4Mi45NzZIMjMwLjR2LTM1Ljg0aC0zNy4zNzZsMC41MTIgMzUuODR6IG0tNzIuMTkyIDBoMzQuODE2di0zNS44NGgtMzQuODE2djM1Ljg0eiBtMTU3LjE4NC01Ni4zMmwyMC40OCAyMC40OEgyNjYuMjR2MzUuODRoMzIuNzY4bC0xOC40MzIgMjYuMTEyIDIxLjUwNCAxNS44NzIgNTQuNzg0LTYyLjQ2NC01Ny4zNDQtNTcuMzQ0LTIwLjk5MiAyMS41MDR6TTE5NC41NiA1MDAuNzM2aC0zNi4zNTJ2MzQuMzA0SDE5NC41NnYtMzQuMzA0eiBtLTEwOS4wNTYgMzQuODE2aDM1LjMyOHYtMzQuMzA0aC0zNS4zMjh2MzQuMzA0eiBtMTc3LjY2NC04MC4zODRsNDguMTI4IDQ2LjA4SDIyOC44NjR2MzQuMzA0aDgyLjQzMmwtNDguMTI4IDQ2LjA4IDIwLjk5MiAyMC45OTIgODMuOTY4LTgzLjk2OC04My45NjgtODQuNDgtMjAuOTkyIDIwLjk5MnpNMTk0LjU2IDMxOS40ODhIMTIyLjg4djM2LjM1Mmg3MS42OHYtMzYuMzUyeiBtODcuMDQgNTUuODA4bDIwLjk5MiAyMC45OTJMMzYwLjk2IDMzNy45MiAzMDIuNTkyIDI3OS41NTIgMjgxLjYgMzAwLjU0NGwyMi41MjggMTguOTQ0SDIzMC45MTJ2MzYuMzUyaDcyLjcwNEwyODEuNiAzNzUuMjk2eiIgZmlsbD0iIzAwQzFERSIgcC1pZD0iNzg5NzQiLz48L3N2Zz4=;fontColor=#EA6B66;fontSize=8;spacing=-6;" vertex="1" parent="1">
          <mxGeometry x="217" y="27" width="37" height="37" as="geometry" />
        </mxCell>
        <mxCell id="uuMYFCACOVy0hHcjNsLC-39" style="edgeStyle=orthogonalEdgeStyle;rounded=0;orthogonalLoop=1;jettySize=auto;html=1;exitX=1;exitY=0.5;exitDx=0;exitDy=0;dashed=1;strokeWidth=2;strokeColor=#99FF99;" edge="1" parent="1" source="uuMYFCACOVy0hHcjNsLC-40" target="uuMYFCACOVy0hHcjNsLC-48">
          <mxGeometry relative="1" as="geometry" />
        </mxCell>
        <mxCell id="uuMYFCACOVy0hHcjNsLC-40" value="API网关" style="shape=image;verticalLabelPosition=bottom;verticalAlign=top;imageAspect=0;aspect=fixed;image=data:image/svg+xml,PHN2ZyB4bWxucz0iaHR0cDovL3d3dy53My5vcmcvMjAwMC9zdmciIHhtbG5zOnhsaW5rPSJodHRwOi8vd3d3LnczLm9yZy8xOTk5L3hsaW5rIiB0PSIxNTc1NDUxNzQ1MDA5IiBjbGFzcz0iaWNvbiIgdmlld0JveD0iMCAwIDEwMjQgMTAyNCIgdmVyc2lvbj0iMS4xIiBwLWlkPSI4NTU0MyIgd2lkdGg9IjEyOCIgaGVpZ2h0PSIxMjgiPjxkZWZzPjxzdHlsZSB0eXBlPSJ0ZXh0L2NzcyIvPjwvZGVmcz48cGF0aCBkPSJNNTIzLjc3NiA0MzAuNjEzbC0xNTIuOTM5IDg4LjQ0OCAxNTMuMjggODguNjE5IDE1Mi43NDctODguNzktMTUzLjA4OC04OC4yNzd6IG0tMTY1Ljc2IDEwOC40NTlsMC41MTIgMTc3LjA2N0w1MTIuMzIgODAzLjU0bC0wLjg1My0xNzYuODc0LTE1My40NTEtODcuNTk1eiBtMzI5Ljk4NCAwbC0xNTMuNDUgODcuNTk1LTAuODU0IDE3Ni43MDQgMTUzLjgxMy04Ny40MDMgMC40OTEtMTc2Ljg5NnogbTEzMS4zOTIgMjA1LjgwM2wtNjguMjY3LTQwLjg5NiAzOS42OC04LjcyNi01LjgwMi0yNi4xNzYtNjcuMjQzIDE0Ljg5MWgtMC4xN2wtMTMuNjc1IDIyLjkzMyAxMDEuNjEgNjAuODg2IDEzLjg2Ny0yMi45MTJ6IG0tMTQyLjg0OCA3LjY4bDY4LjA3NSA0MC44OTYtMzkuNjggOC44OTYgNS44MjQgMjYuMDA1IDY3LjIyMS0xNC43MmgwLjE3bDEzLjY5Ny0yMi45MTItMTAxLjYzMi02MS4wNzctMTMuNjc1IDIyLjkzM3ogbS0xOTUuMDUtMzI3LjcyM2gyNi44OHYtMTE4LjU1aC0yNi44OHY3OS41MzFsLTI3Ljg4My0yOS41ODktMTkuMzI4IDE4LjQ3NSA0Ny4yMSA1MC4xMzN6IG01My41NDYtMTE4LjU1djExOC41NWgyNi42ODh2LTc5LjU3M2wyNy44ODMgMjkuNjEgMTkuNDk4LTE4LjQ3NC00Ny4zNi00OS45NDJ2LTAuMTdINTM1LjA0ek0zNDQuNDcgNzA4LjExOGwtMTMuNTA1LTIzLjEwNC02OC42MDggNDAuMjE0IDExLjMwNy0zOS4wMTktMjUuNjY0LTcuMzYtMTkuMTU3IDY2LjIxOWgtMC4xNzFsMTMuNTA0IDIzLjA4MiAxMDIuMjkzLTYwLjAzMnogbS04OC43NyA4Mi45NjVsMTMuNTA0IDIzLjA4MiA2OC42MDgtNDAuMTkyLTExLjMwNiAzOC45OTggMjUuNjY0IDcuMzYgMTkuMzI4LTY2LjAyN3YtMC4xN2wtMTMuNTA0LTIzLjEwNUwyNTUuNyA3OTEuMDgzeiBtNjIxLjgyNC00NS4zMzRhODIuNDk2IDgyLjQ5NiAwIDAgMC04Mi40NTMgODIuNDU0IDgyLjQ5NiA4Mi40OTYgMCAwIDAgODIuNDUzIDgyLjQ1M0E4Mi40OTYgODIuNDk2IDAgMCAwIDk2MCA4MjguMTZhODIuNDk2IDgyLjQ5NiAwIDAgMC04Mi40NTMtODIuNDUzeiBtMCAxMjMuMTU4YTQwLjUzMyA0MC41MzMgMCAxIDEgMC04MS4wNjcgNDAuNTMzIDQwLjUzMyAwIDEgMSAwIDgxLjA2N3ogbS0zNTUuNjI2LTU3NmE4Mi40OTYgODIuNDk2IDAgMCAwIDgyLjQ1My04Mi40NTRBODIuNDk2IDgyLjQ5NiAwIDAgMCA1MjEuODk5IDEyOGE4Mi4zOSA4Mi4zOSAwIDAgMC04Mi40NTQgODIuNDUzIDgyLjM5IDgyLjM5IDAgMCAwIDgyLjQ1NCA4Mi40NTR6IG0wLTEyMi45ODdhNDAuNTMzIDQwLjUzMyAwIDEgMSAwIDgxLjA2NyA0MC41MzMgNDAuNTMzIDAgMSAxIDAtODEuMDY3ek0xNjcuNzg3IDc0OS4xNDFhODIuNDk2IDgyLjQ5NiAwIDAgMC04Mi40NTQgODIuNDU0IDgyLjQ5NiA4Mi40OTYgMCAwIDAgODIuNDU0IDgyLjQ1MyA4Mi40OTYgODIuNDk2IDAgMCAwIDgyLjQ1My04Mi40NTMgODIuMjgzIDgyLjI4MyAwIDAgMC04Mi40NTMtODIuNDU0eiBtMCAxMjMuMDA4YTQwLjUzMyA0MC41MzMgMCAxIDEgMC04MS4wODggNDAuNTMzIDQwLjUzMyAwIDEgMSAwIDgxLjA2N3oiIGZpbGw9IiMwMEMxREUiIHAtaWQ9Ijg1NTQ0Ii8+PC9zdmc+;fontColor=#EA6B66;fontSize=8;spacing=-6;" vertex="1" parent="1">
          <mxGeometry x="172" y="223.5" width="39" height="39" as="geometry" />
        </mxCell>
        <mxCell id="uuMYFCACOVy0hHcjNsLC-41" style="edgeStyle=orthogonalEdgeStyle;rounded=0;orthogonalLoop=1;jettySize=auto;html=1;exitX=1;exitY=0.5;exitDx=0;exitDy=0;dashed=1;strokeWidth=2;strokeColor=#99FF99;" edge="1" parent="1" source="uuMYFCACOVy0hHcjNsLC-42">
          <mxGeometry relative="1" as="geometry">
            <mxPoint x="545" y="104" as="targetPoint" />
          </mxGeometry>
        </mxCell>
        <mxCell id="uuMYFCACOVy0hHcjNsLC-42" value="K8S ingress SLB" style="shape=image;verticalLabelPosition=bottom;verticalAlign=top;imageAspect=0;aspect=fixed;image=data:image/svg+xml,PHN2ZyB4bWxucz0iaHR0cDovL3d3dy53My5vcmcvMjAwMC9zdmciIHhtbG5zOnhsaW5rPSJodHRwOi8vd3d3LnczLm9yZy8xOTk5L3hsaW5rIiB0PSIxNTc1MzYzOTIxMzg4IiBjbGFzcz0iaWNvbiIgdmlld0JveD0iMCAwIDEwMjQgMTAyNCIgdmVyc2lvbj0iMS4xIiBwLWlkPSIzNTkzIiB3aWR0aD0iMTI4IiBoZWlnaHQ9IjEyOCI+PGRlZnM+PHN0eWxlIHR5cGU9InRleHQvY3NzIi8+PC9kZWZzPjxwYXRoIGQ9Ik03NzYuMDQzIDU0OC42M2MtMjQuNzY4IDAuMTA2LTQ4LjEyOCA2LjM3OC02OS4xNDIgMTYuNDY5bC04OS40NS0xMzMuODY3YzMzLjM2NS0yOS43MzkgNTQuNjU2LTcyLjY4MyA1NC40LTEyMC43MDQtMC40MjctODkuMjM3LTczLjE5NS0xNjEuNjIxLTE2Mi40OTYtMTYxLjE5NS04OS4yOCAwLjQyNy0xNjEuNDMgNzMuNDk0LTE2MS4wMjQgMTYyLjYyNCAwLjIxMyA0OC4wNjQgMjEuOTczIDkwLjY4OCA1NS4zODEgMTIwLjI1NmwtODguMDQzIDEzNC42NzhjLTIxLjIwNS05Ljk2My00NC40MzctMTUuOTM2LTY5LjMzMy0xNS44My04OS4xNTIgMC4zNjMtMTYxLjQzIDczLjM2Ni0xNjEuMDAzIDE2Mi42MjQgMC4yOTkgODkuMTUyIDczLjE5NSAxNjEuNDUxIDE2Mi40OTYgMTYwLjk2IDgxLjQ1MS0wLjMyIDE0OC4wNTQtNjEuMjY5IDE1OC44Ny0xMzkuODRsMjEwLjczLTEuMDAyYzExLjQzNSA3OC41MDYgNzguNTkyIDEzOC44NTggMTYwLjEwNyAxMzguNTE3IDg5LjIzNy0wLjQyNyAxNjEuNDMtNzMuMzAxIDE2MS4xMy0xNjIuNTYtMC40NjktODkuMjM3LTczLjQ3MS0xNjEuNTM2LTE2Mi42MjMtMTYxLjEzeiBtLTE1OC44NyAxMzkuODRsLTIxMC43MyAwLjk2YTE2MS4xMyAxNjEuMTMgMCAwIDAtNTIuOTcxLTk3LjZMNDQxLjYgNDU3LjExYzIxLjE0MSA5Ljk2MiA0NC40MzcgMTYuMDQyIDY5LjI3IDE1LjgyOWExNTkuOTU3IDE1OS45NTcgMCAwIDAgNjkuMTYyLTE2LjM4NEw2NjkuNTI1IDU5MC40YTE2MC4zMiAxNjAuMzIgMCAwIDAtNTIuMzUyIDk4LjA3eiIgZmlsbD0iIzAwQzFERSIgcC1pZD0iMzU5NCIvPjwvc3ZnPg==;fontColor=#EA6B66;fontSize=8;spacing=-6;" vertex="1" parent="1">
          <mxGeometry x="377.5" y="84.75" width="37.5" height="37.5" as="geometry" />
        </mxCell>
        <mxCell id="uuMYFCACOVy0hHcjNsLC-43" style="edgeStyle=orthogonalEdgeStyle;rounded=0;orthogonalLoop=1;jettySize=auto;html=1;exitX=1;exitY=0.5;exitDx=0;exitDy=0;entryX=0;entryY=0.5;entryDx=0;entryDy=0;dashed=1;strokeWidth=2;strokeColor=#99FF99;" edge="1" parent="1" source="uuMYFCACOVy0hHcjNsLC-44" target="uuMYFCACOVy0hHcjNsLC-37">
          <mxGeometry relative="1" as="geometry" />
        </mxCell>
        <mxCell id="uuMYFCACOVy0hHcjNsLC-44" value="CDN" style="shape=image;verticalLabelPosition=bottom;verticalAlign=top;imageAspect=0;aspect=fixed;image=data:image/svg+xml,PHN2ZyB4bWxucz0iaHR0cDovL3d3dy53My5vcmcvMjAwMC9zdmciIHhtbG5zOnhsaW5rPSJodHRwOi8vd3d3LnczLm9yZy8xOTk5L3hsaW5rIiB0PSIxNTc1MzY0MjI2MTMwIiBjbGFzcz0iaWNvbiIgdmlld0JveD0iMCAwIDEwMjQgMTAyNCIgdmVyc2lvbj0iMS4xIiBwLWlkPSI4Mzk5IiB3aWR0aD0iMTI4IiBoZWlnaHQ9IjEyOCI+PGRlZnM+PHN0eWxlIHR5cGU9InRleHQvY3NzIi8+PC9kZWZzPjxwYXRoIGQ9Ik03OTMuMzIyNjY3IDE0OS44MjRhMTQyLjcyIDE0Mi43MiAwIDAgMSA0My41MiA2Ljc4NGM3LjA0IDIuMjgyNjY3IDEzLjkzMDY2NyA1LjEyIDIwLjUyMjY2NiA4LjUzMzMzMyA2LjYxMzMzMyAzLjQxMzMzMyAxMi45MDY2NjcgNy40MDI2NjcgMTguODM3MzM0IDExLjk2OCAxMS45MDQgOS4xNzMzMzMgMjEuMTIgMTkuNzk3MzMzIDI3LjYwNTMzMyAzMS4xODkzMzRhODUuNTQ2NjY3IDg1LjU0NjY2NyAwIDAgMSAxMS4xNzg2NjcgMzUuOTI1MzMzIDc5LjEyNTMzMyA3OS4xMjUzMzMgMCAwIDEtNS44NjY2NjcgMzYuNDE2IDg4Ljk2IDg4Ljk2IDAgMCAxLTIzLjU3MzMzMyAzMi40NDggMTA2LjQ5NiAxMDYuNDk2IDAgMCAxLTE3LjcwNjY2NyAxMi42NzIgMTE4LjYxMzMzMyAxMTguNjEzMzMzIDAgMCAxLTIwLjA1MzMzMyA5LjA4OGMtNi45OTczMzMgMi40MzItMTQuMjUwNjY3IDQuMjY2NjY3LTIxLjY3NDY2NyA1LjQ2MTMzM2ExMzkuNTIgMTM5LjUyIDAgMCAxLTMzLjM2NTMzMyAxLjQyOTMzNCAxNDIuMzc4NjY3IDE0Mi4zNzg2NjcgMCAwIDEtMzEuODcyLTYuMTAxMzM0bC05NS4xODkzMzQgODIuOTQ0YzYuNzg0IDEwLjU2IDExLjk0NjY2NyAyMS43Mzg2NjcgMTUuNDAyNjY3IDMzLjIxNmExMjYuMDM3MzMzIDEyNi4wMzczMzMgMCAwIDEgMC42ODI2NjcgNzAuODY5MzM0IDEzMS43MzMzMzMgMTMxLjczMzMzMyAwIDAgMS0xNS4yMzIgMzQuMTMzMzMzbDEwMi40NDI2NjYgODcuNDI0YTEzNC4xNDQgMTM0LjE0NCAwIDAgMSAzNy4xODQtOC43ODkzMzMgMTQxLjc4MTMzMyAxNDEuNzgxMzMzIDAgMCAxIDM2LjkwNjY2NyAxLjQ1MDY2NiAxNDMuNjggMTQzLjY4IDAgMCAxIDQ2LjEwMTMzMyAxNi4yNzczMzRjNy4yNTMzMzMgNC4wOTYgMTQuMTg2NjY3IDguODc0NjY3IDIwLjY5MzMzNCAxNC4zNTczMzNhMTI0LjczNiAxMjQuNzM2IDAgMCAxIDMwLjQ0MjY2NiAzNy4zNzZjNy4yMTA2NjcgMTMuNzE3MzMzIDExLjQxMzMzMyAyOC4zNzMzMzMgMTIuNTIyNjY3IDQzLjA5MzMzM2ExMDMuMDQgMTAzLjA0IDAgMCAxLTYuMTIyNjY3IDQzLjc1NDY2NyAxMDYuMzQ2NjY3IDEwNi4zNDY2NjcgMCAwIDEtMjUuNiAzOS4wNGMtNS45NzMzMzMgNS43ODEzMzMtMTIuNDM3MzMzIDEwLjg4LTE5LjM3MDY2NiAxNS4yMzItNi45MzMzMzMgNC4zOTQ2NjctMTQuMjkzMzMzIDguMDQyNjY3LTIxLjkzMDY2NyAxMC45NjUzMzNhMTMyLjQ4IDEzMi40OCAwIDAgMS0yMy43NjUzMzMgNi41NzA2NjcgMTQzLjc4NjY2NyAxNDMuNzg2NjY3IDAgMCAxLTk3LjM2NTMzNC0xNy41MzYgMTM1Ljk3ODY2NyAxMzUuOTc4NjY3IDAgMCAxLTIwLjk0OTMzMy0xNS4yNTMzMzMgMTI1LjA5ODY2NyAxMjUuMDk4NjY3IDAgMCAxLTI1LjgxMzMzMy0zMS41MzA2NjcgMTEyLjA4NTMzMyAxMTIuMDg1MzMzIDAgMCAxLTEzLjAxMzMzNC0zNS40MTMzMzMgMTA0Ljg3NDY2NyAxMDQuODc0NjY3IDAgMCAxLTAuMjk4NjY2LTM2LjIyNCAxMDIuNzYyNjY3IDEwMi43NjI2NjcgMCAwIDEgMTIuMjQ1MzMzLTM0LjE3NmwtOTguMzA0LTg1LjM3NmMtNi45OTczMzMgNC4wNTMzMzMtMTQuMjcyIDcuNjE2LTIxLjc2IDEwLjY2NjY2NmExODMuNjggMTgzLjY4IDAgMCAxLTIzLjA4MjY2NyA3LjYzNzMzNCAxOTEuNjggMTkxLjY4IDAgMCAxLTQ4LjMyIDYuMTIyNjY2IDE5NC42NDUzMzMgMTk0LjY0NTMzMyAwIDAgMS00MC43NDY2NjYtNC4zMDkzMzMgMTg2LjAyNjY2NyAxODYuMDI2NjY3IDAgMCAxLTM4LjYzNDY2Ny0xMi45MjhsLTEwNS40OTMzMzMgOTEuOTI1MzMzYzMuOTg5MzMzIDEwLjE3NiA2LjI5MzMzMyAyMC44MjEzMzMgNi45MTIgMzEuNjE2YTEwNi4yNjEzMzMgMTA2LjI2MTMzMyAwIDAgMS0zLjIgMzIuNTU0NjY3IDExMy43MDY2NjcgMTEzLjcwNjY2NyAwIDAgMS0xMy40NCAzMS40MDI2NjcgMTI1LjkwOTMzMyAxMjUuOTA5MzMzIDAgMCAxLTIzLjc2NTMzNCAyOC4wMzIgMTM2LjEwNjY2NyAxMzYuMTA2NjY3IDAgMCAxLTIwLjk0OTMzMyAxNS4yNTMzMzMgMTQzLjYzNzMzMyAxNDMuNjM3MzMzIDAgMCAxLTk3LjM2NTMzMyAxNy41MzYgMTMyLjQ1ODY2NyAxMzIuNDU4NjY3IDAgMCAxLTIzLjc0NC02LjU5MiAxMjMuNjI2NjY3IDEyMy42MjY2NjcgMCAwIDEtMjEuOTMwNjY3LTEwLjk0NCAxMTYuNzM2IDExNi43MzYgMCAwIDEtMTkuMzQ5MzMzLTE1LjI1MzMzMyAxMDYuMzg5MzMzIDEwNi4zODkzMzMgMCAwIDEtMjUuNi0zOS4wMTg2NjcgMTAzLjA0IDEwMy4wNCAwIDAgMS02LjE2NTMzNC00My43NTQ2NjdjMS4xMDkzMzMtMTQuNzIgNS4zMzMzMzMtMjkuMzk3MzMzIDEyLjU0NC00My4wOTMzMzNBMTI0LjczNiAxMjQuNzM2IDAgMCAxIDEyOC44NTMzMzMgNjY3LjUyYTE0MC4wMzIgMTQwLjAzMiAwIDAgMSA0My4yLTI0LjUzMzMzMyAxNDQuMDg1MzMzIDE0NC4wODUzMzMgMCAwIDEgNjQuNDY5MzM0LTcuMTQ2NjY3IDEzNi4zODQgMTM2LjM4NCAwIDAgMSAzMi40MDUzMzMgOC4wNjRjNS4xODQgMi4wMDUzMzMgMTAuMjQgNC4zNTIgMTUuMTI1MzMzIDcuMDRsOTYuMzItODIuNDUzMzMzYTEzNS4xMDQgMTM1LjEwNCAwIDAgMS0yMS40NC0zOS40ODggMTI1Ljg2NjY2NyAxMjUuODY2NjY3IDAgMCAxIDAuODMyLTgzLjU4NCAxMzUuNzQ0IDEzNS43NDQgMCAwIDEgMjEuNDYxMzM0LTM4LjI1MDY2N2wtODguNzY4LTc3LjA3NzMzM2ExMzUuNzIyNjY3IDEzNS43MjI2NjcgMCAwIDEtMjguMDMyIDkuMDI0IDE0Mi42MTMzMzMgMTQyLjYxMzMzMyAwIDAgMS01MS43OTczMzQgMS4xOTQ2NjYgMTMwLjY4OCAxMzAuNjg4IDAgMCAxLTIxLjY3NDY2Ni01LjQ2MTMzMyAxMTcuOTA5MzMzIDExNy45MDkzMzMgMCAwIDEtMjAuMDUzMzM0LTkuMDg4IDEwNi4zODkzMzMgMTA2LjM4OTMzMyAwIDAgMS0xNy43MDY2NjYtMTIuNjcyIDg5LjAwMjY2NyA4OS4wMDI2NjcgMCAwIDEtMjMuNTczMzM0LTMyLjQyNjY2NyA3OS4xMjUzMzMgNzkuMTI1MzMzIDAgMCAxLTUuODY2NjY2LTM2LjQzNzMzM2MwLjkxNzMzMy0xMi4yODggNC42OTMzMzMtMjQuNDkwNjY3IDExLjE3ODY2Ni0zNS45MjUzMzNBMTA1LjYgMTA1LjYgMCAwIDEgMTYyLjU2IDE3Ny4xMDkzMzNjNS45MzA2NjctNC41NjUzMzMgMTIuMjQ1MzMzLTguNTU0NjY3IDE4LjgzNzMzMy0xMS45NjhhMTMzLjc2IDEzMy43NiAwIDAgMSAyMC41MDEzMzQtOC41MzMzMzMgMTQxLjEyIDE0MS4xMiAwIDAgMSA0My41Mi02LjgwNTMzM2M3LjMzODY2NyAwIDE0LjYzNDY2NyAwLjU3NiAyMS44MDI2NjYgMS43MDY2NjYgNy4xNjggMS4xMzA2NjcgMTQuMjA4IDIuODM3MzMzIDIxLjAxMzMzNCA1LjA5ODY2NyA2LjgyNjY2NyAyLjI2MTMzMyAxMy4zNzYgNS4xMiAxOS42MDUzMzMgOC41MzMzMzMgNi4yMjkzMzMgMy40MTMzMzMgMTIuMTE3MzMzIDcuNDAyNjY3IDE3LjU3ODY2NyAxMS45NjggOC4zODQgNy4wNCAxNS4xMDQgMTQuOTMzMzMzIDIwLjE2IDIzLjM4MTMzNGE3OS41MzA2NjcgNzkuNTMwNjY3IDAgMCAxIDEwLjM0NjY2NiA1NC45NzYgODYuNjM0NjY3IDg2LjYzNDY2NyAwIDAgMS05Ljk4NCAyNy43MzMzMzNsOTIuNTg2NjY3IDc4Ljk5NzMzM2ExODUuNiAxODUuNiAwIDAgMSA2MC4wMTA2NjctMTYuODEwNjY2IDE5NC42MDI2NjcgMTk0LjYwMjY2NyAwIDAgMSA2OS4zOTczMzMgNS4wNzczMzNjNy45MzYgMi4wNDggMTUuNzAxMzMzIDQuNjUwNjY3IDIzLjI1MzMzMyA3Ljc0NCA3LjU5NDY2NyAzLjExNDY2NyAxNC45NTQ2NjcgNi43NDEzMzMgMjIuMDU4NjY3IDEwLjg4bDg3LjA0LTc0LjUxNzMzM2E5MS41NjI2NjcgOTEuNTYyNjY3IDAgMCAxLTE1LjM2LTI5LjkzMDY2NyA4MC43ODkzMzMgODAuNzg5MzMzIDAgMCAxLTIuODM3MzMzLTMxLjM2YzEuMTA5MzMzLTEwLjM0NjY2NyA0LjI2NjY2Ny0yMC40OCA5LjQ5MzMzMy0zMC4wMTZhOTEuOTQ2NjY3IDkxLjk0NjY2NyAwIDAgMSAyMS43Ni0yNi4xNTQ2NjdjNS40NC00LjU4NjY2NyAxMS4zMDY2NjctOC41NTQ2NjcgMTcuNTU3MzMzLTExLjk4OTMzMyA2LjIyOTMzMy0zLjQxMzMzMyAxMi44LTYuMjUwNjY3IDE5LjYwNTMzNC04LjUzMzMzMyA2LjgwNTMzMy0yLjI0IDEzLjg0NTMzMy0zLjk0NjY2NyAyMS4wMTMzMzMtNS4wNzczMzRhMTQwLjU4NjY2NyAxNDAuNTg2NjY3IDAgMCAxIDIxLjgwMjY2Ny0xLjcwNjY2NnoiIGZpbGw9IiMwMEMxREUiIHAtaWQ9Ijg0MDAiLz48L3N2Zz4=;fontColor=#EA6B66;fontSize=8;spacing=-6;" vertex="1" parent="1">
          <mxGeometry x="214" y="394" width="37" height="37" as="geometry" />
        </mxCell>
        <mxCell id="uuMYFCACOVy0hHcjNsLC-45" style="edgeStyle=orthogonalEdgeStyle;rounded=0;orthogonalLoop=1;jettySize=auto;html=1;exitX=1;exitY=0.5;exitDx=0;exitDy=0;entryX=0;entryY=0.5;entryDx=0;entryDy=0;dashed=1;strokeWidth=2;strokeColor=#99FF99;" edge="1" parent="1" source="uuMYFCACOVy0hHcjNsLC-46" target="uuMYFCACOVy0hHcjNsLC-48">
          <mxGeometry relative="1" as="geometry" />
        </mxCell>
        <mxCell id="uuMYFCACOVy0hHcjNsLC-46" value="EMAS网关" style="shape=image;verticalLabelPosition=bottom;verticalAlign=top;imageAspect=0;aspect=fixed;image=data:image/svg+xml,PHN2ZyB4bWxucz0iaHR0cDovL3d3dy53My5vcmcvMjAwMC9zdmciIHhtbG5zOnhsaW5rPSJodHRwOi8vd3d3LnczLm9yZy8xOTk5L3hsaW5rIiB0PSIxNTc1NDQyMDU1NDgzIiBjbGFzcz0iaWNvbiIgdmlld0JveD0iMCAwIDEwMjQgMTAyNCIgdmVyc2lvbj0iMS4xIiBwLWlkPSI3MTQ0NiIgd2lkdGg9IjEyOCIgaGVpZ2h0PSIxMjgiPjxkZWZzPjxzdHlsZSB0eXBlPSJ0ZXh0L2NzcyIvPjwvZGVmcz48cGF0aCBkPSJNOTc3LjA2NyA1NTguOTMzbC0yMDYuOTM0LTQwMy4yYy02LjQtMTAuNjY2LTE0LjkzMy0xNy4wNjYtMjcuNzMzLTE3LjA2NkgyODEuNmMtMTIuOCAwLTIxLjMzMyA2LjQtMjcuNzMzIDE3LjA2NmwtMjA2LjkzNCA0MDMuMmMtNC4yNjYgNC4yNjctNC4yNjYgOC41MzQtNC4yNjYgMTIuOHYyODMuNzM0YzAgMTcuMDY2IDEyLjggMjkuODY2IDI5Ljg2NiAyOS44NjZoODc2LjhjMTcuMDY3IDAgMjkuODY3LTEyLjggMjkuODY3LTI5Ljg2NlY1NzEuNzMzYzIuMTMzLTQuMjY2IDIuMTMzLTguNTMzLTIuMTMzLTEyLjh6IG0tNjkzLjMzNC01NS40NjZDMzEzLjYgNDg2LjQgMzIwIDQ4MCAzMDUuMDY3IDQ0NS44NjdjLTIuMTM0LTQuMjY3LTIuMTM0LTguNTM0LTIuMTM0LTEwLjY2NyAwLTIxLjMzMyAxNy4wNjctMzguNCA0MC41MzQtMzguNCA4LjUzMyAwIDE0LjkzMyAyLjEzMyAyMy40NjYgNC4yNjdDMzk2LjggNDExLjczMyA0MDMuMiAzOTYuOCA0MTMuODY3IDM3Ny42bDIuMTMzLTQuMjY3YzMyLTYxLjg2NiAxMDguOC04Ny40NjYgMTcyLjgtNTcuNiA0MC41MzMgMTkuMiA2Ni4xMzMgNTUuNDY3IDcwLjQgOTguMTM0IDIuMTMzIDMyIDYuNCAzNC4xMzMgNDAuNTMzIDQyLjY2NiA0Mi42NjcgNi40IDc2LjggNDIuNjY3IDgxLjA2NyA4My4ySDI0OS42YzYuNC0xMi44IDE5LjItMjcuNzMzIDM0LjEzMy0zNi4yNjZ6TTUxMiAyNDUuMzMzYy02NCA2LjQtMTE3LjMzMyA0Mi42NjctMTQ3LjIgOTYtNi40LTIuMTMzLTE0LjkzMy0yLjEzMy0yMS4zMzMtMi4xMzMtNTUuNDY3IDAtMTAwLjI2NyA0Mi42NjctMTAwLjI2NyA5NiAwIDguNTMzIDIuMTMzIDE0LjkzMyAyLjEzMyAyMy40NjctMzIgMTkuMi01My4zMzMgNDkuMDY2LTU5LjczMyA4NS4zMzNoLTY0bDE3Ny4wNjctMzQ1LjZoNDIyLjRsMTc5LjIgMzQ1LjZoLTU5LjczNGMtNC4yNjYtNjYuMTMzLTUzLjMzMy0xMjMuNzMzLTEyMS42LTEzOC42NjctMTIuOC0xMDAuMjY2LTEwNC41MzMtMTcwLjY2Ni0yMDYuOTMzLTE2MHpNOTE5LjQ2NyA2MDEuNnYyMjRIMTA0LjUzM3YtMjI0aDgxNC45MzR6IiBmaWxsPSIjMDBDMURFIiBwLWlkPSI3MTQ0NyIvPjwvc3ZnPg==;fontColor=#EA6B66;fontSize=8;spacing=-6;" vertex="1" parent="1">
          <mxGeometry x="170" y="279.5" width="36.5" height="36.5" as="geometry" />
        </mxCell>
        <mxCell id="uuMYFCACOVy0hHcjNsLC-47" style="edgeStyle=orthogonalEdgeStyle;rounded=0;orthogonalLoop=1;jettySize=auto;html=1;exitX=1;exitY=0.5;exitDx=0;exitDy=0;dashed=1;strokeColor=#66FF66;strokeWidth=2;entryX=0;entryY=0.5;entryDx=0;entryDy=0;" edge="1" parent="1" source="uuMYFCACOVy0hHcjNsLC-48" target="uuMYFCACOVy0hHcjNsLC-54">
          <mxGeometry relative="1" as="geometry">
            <mxPoint x="419" y="285" as="targetPoint" />
          </mxGeometry>
        </mxCell>
        <mxCell id="uuMYFCACOVy0hHcjNsLC-48" value="WAF(API、&#xa;mPass白名单)" style="shape=image;verticalLabelPosition=bottom;verticalAlign=top;imageAspect=0;aspect=fixed;image=data:image/svg+xml,PHN2ZyB4bWxucz0iaHR0cDovL3d3dy53My5vcmcvMjAwMC9zdmciIHhtbG5zOnhsaW5rPSJodHRwOi8vd3d3LnczLm9yZy8xOTk5L3hsaW5rIiB0PSIxNTc1NDQzMTgyMTA2IiBjbGFzcz0iaWNvbiIgdmlld0JveD0iMCAwIDEwMjQgMTAyNCIgdmVyc2lvbj0iMS4xIiBwLWlkPSI3ODk3MyIgd2lkdGg9IjEyOCIgaGVpZ2h0PSIxMjgiPjxkZWZzPjxzdHlsZSB0eXBlPSJ0ZXh0L2NzcyIvPjwvZGVmcz48cGF0aCBkPSJNNzA1LjAyNCAyNzkuMDRsMS4wMjQgNDQuNTQ0YzE0LjMzNiAwLjUxMiAyNS42IDIuNTYgMzguOTEyIDYuMTQ0IDEwLjI0IDE3LjQwOCAyMy41NTIgNDkuMTUyIDMxLjc0NCA5Mi4xNmgtNjkuNjMydjEwLjI0aDcxLjY4YzMuMDcyIDE5Ljk2OCA1LjEyIDQ0LjU0NCA1LjYzMiA3MC4xNDRoLTc3LjMxMnYxMC4yNGg3Ny4zMTJjMCAyMy41NTItMi4wNDggNDYuNTkyLTUuNjMyIDcwLjE0NGgtNzEuNjh2MTAuMjRoNjkuMTJjLTguNzA0IDQzLjAwOC0yMi4wMTYgNzUuMjY0LTMyLjI1NiA5Mi4xNi0xMy4zMTIgMy41ODQtMjQuNTc2IDUuNjMyLTM4LjkxMiA2LjE0NGwtMS4wMjQgNDQuNTQ0YzEyMy4zOTItMy41ODQgMjIxLjE4NC0xMDQuNDQ4IDIyMS4xODQtMjI4Ljg2NCAwLjUxMi0xMjMuMzkyLTk2Ljc2OC0yMjQuMjU2LTIyMC4xNi0yMjcuODR6IG0xNzYuMTI4IDIyMy4yMzJINzk4LjcyYzAtMjMuNTUyLTIuMDQ4LTQ2LjU5Mi01LjYzMi03MC4xNDRIODY1LjI4YzkuNzI4IDIxLjUwNCAxNC44NDggNDYuMDggMTUuODcyIDcwLjE0NHogbS0xMTkuMjk2LTE2Ni45MTJjNDEuNDcyIDE1LjM2IDc1Ljc3NiA0OC42NCA5Ni43NjggODcuMDRoLTY4LjA5NmMtNy4xNjgtMzguOTEyLTE4Ljk0NC02OS42MzItMjguNjcyLTg3LjA0eiBtMCAzNDQuNTc2YzkuNzI4LTE3LjQwOCAyMS41MDQtNDguMTI4IDI5LjE4NC04Ny4wNGg2Ny41ODRjLTIxLjUwNCAzNy44ODgtNTUuMjk2IDcxLjY4LTk2Ljc2OCA4Ny4wNHogbTMxLjIzMi05Ny4yOGMzLjA3Mi0xOS45NjggNS42MzItNDQuMDMyIDUuNjMyLTcwLjE0NGg4Mi45NDRjLTEuMDI0IDI0LjA2NC02LjY1NiA0Ny42MTYtMTYuMzg0IDcwLjE0NGgtNzIuMTkyeiBtLTE0NS40MDggMTAyLjRjMTMuMzEyIDMuNTg0IDMzLjc5MiA1LjYzMiA0OC42NCA2LjE0NHYtOTguMzA0aC04MC4zODRjOC4xOTIgNDMuMDA4IDIxLjUwNCA3NC43NTIgMzEuNzQ0IDkyLjE2eiBtLTM0LjMwNC0xMDIuNEg2OTYuMzJ2LTcwLjE0NGgtODguNTc2YzAuNTEyIDIzLjU1MiAyLjU2IDQ3LjEwNCA1LjYzMiA3MC4xNDR6IG0tNS42MzItODAuMzg0SDY5Ni4zMlY0MzIuNjRoLTgyLjk0NGMtMy41ODQgMjMuMDQtNS42MzIgNDYuMDgtNS42MzIgNjkuNjMyeiBtLTEzOS4yNjQgNS4xMmMwLTEyNS45NTIgMTAzLjkzNi0yMjguMzUyIDIyOS44ODgtMjI4LjM1Mmg2LjE0NFYxMzcuMjE2bC0yOTEuMzI4IDQ1LjU2OHY2NDkuMjE2bDI5MC44MTYgNDUuNTY4IDAuNTEyLTE0MS44MjRoLTYuMTQ0Yy0xMjUuOTUyIDAtMjI5Ljg4OC0xMDEuODg4LTIyOS44ODgtMjI4LjM1MnogbTEyNS40NCA1LjEyaC04MC44OTZjMS4wMjQgMjQuMDY0IDYuNjU2IDQ3LjYxNiAxNi4zODQgNzAuMTQ0aDcwLjE0NGMtMy4wNzItMjMuMDQtNS4xMi00Ni41OTItNS42MzItNzAuMTQ0eiBtMjEuNTA0LTkxLjEzNkg2OTYuMzJWMzIzLjU4NGMtMTQuODQ4IDAuNTEyLTM1LjMyOCAzLjA3Mi00OC42NCA2LjY1Ni0xMC43NTIgMTcuNDA4LTIzLjU1MiA0OC42NC0zMi4yNTYgOTEuMTM2eiBtLTE1Ljg3MiAxMS4yNjRoLTcwLjY1NmMtOS43MjggMjIuMDE2LTE1LjM2IDQ1LjU2OC0xNS44NzIgNzAuMTQ0SDU5My45MmMwLjUxMi0yNi4xMTIgMi41Ni01MC4xNzYgNS42MzItNzAuMTQ0eiBtLTYyLjk3NiAxNjAuMjU2YzIwLjQ4IDM3LjM3NiA1My43NiA3MC42NTYgOTQuNzIgODYuNTI4LTkuNzI4LTE3LjQwOC0yMC45OTItNDcuNjE2LTI4LjY3Mi04Ni41MjhoLTY2LjA0OHogbTk0LjIwOC0yNTcuMDI0Yy00MC40NDggMTUuODcyLTczLjcyOCA0OC4xMjgtOTQuMjA4IDg1LjUwNGg2Ni4wNDhjNy4xNjgtMzguNCAxOC40MzItNjcuNTg0IDI4LjE2LTg1LjUwNHogbS00MzcuMjQ4IDM4Mi45NzZIMjMwLjR2LTM1Ljg0aC0zNy4zNzZsMC41MTIgMzUuODR6IG0tNzIuMTkyIDBoMzQuODE2di0zNS44NGgtMzQuODE2djM1Ljg0eiBtMTU3LjE4NC01Ni4zMmwyMC40OCAyMC40OEgyNjYuMjR2MzUuODRoMzIuNzY4bC0xOC40MzIgMjYuMTEyIDIxLjUwNCAxNS44NzIgNTQuNzg0LTYyLjQ2NC01Ny4zNDQtNTcuMzQ0LTIwLjk5MiAyMS41MDR6TTE5NC41NiA1MDAuNzM2aC0zNi4zNTJ2MzQuMzA0SDE5NC41NnYtMzQuMzA0eiBtLTEwOS4wNTYgMzQuODE2aDM1LjMyOHYtMzQuMzA0aC0zNS4zMjh2MzQuMzA0eiBtMTc3LjY2NC04MC4zODRsNDguMTI4IDQ2LjA4SDIyOC44NjR2MzQuMzA0aDgyLjQzMmwtNDguMTI4IDQ2LjA4IDIwLjk5MiAyMC45OTIgODMuOTY4LTgzLjk2OC04My45NjgtODQuNDgtMjAuOTkyIDIwLjk5MnpNMTk0LjU2IDMxOS40ODhIMTIyLjg4djM2LjM1Mmg3MS42OHYtMzYuMzUyeiBtODcuMDQgNTUuODA4bDIwLjk5MiAyMC45OTJMMzYwLjk2IDMzNy45MiAzMDIuNTkyIDI3OS41NTIgMjgxLjYgMzAwLjU0NGwyMi41MjggMTguOTQ0SDIzMC45MTJ2MzYuMzUyaDcyLjcwNEwyODEuNiAzNzUuMjk2eiIgZmlsbD0iIzAwQzFERSIgcC1pZD0iNzg5NzQiLz48L3N2Zz4=;fontColor=#EA6B66;fontSize=8;spacing=-6;" vertex="1" parent="1">
          <mxGeometry x="268" y="280" width="37" height="37" as="geometry" />
        </mxCell>
        <mxCell id="uuMYFCACOVy0hHcjNsLC-49" style="edgeStyle=orthogonalEdgeStyle;rounded=0;orthogonalLoop=1;jettySize=auto;html=1;exitX=1;exitY=0.5;exitDx=0;exitDy=0;dashed=1;strokeColor=#66FF66;strokeWidth=2;" edge="1" parent="1" source="uuMYFCACOVy0hHcjNsLC-54">
          <mxGeometry relative="1" as="geometry">
            <mxPoint x="536" y="298" as="targetPoint" />
          </mxGeometry>
        </mxCell>
        <mxCell id="uuMYFCACOVy0hHcjNsLC-50" value="&lt;font style=&quot;font-size: 11px;&quot; color=&quot;#ea6b66&quot;&gt;ToC ACK集群&lt;/font&gt;" style="text;html=1;resizable=0;autosize=1;align=center;verticalAlign=middle;points=[];fillColor=none;strokeColor=none;rounded=0;" vertex="1" parent="1">
          <mxGeometry x="537.5" y="2" width="91" height="26" as="geometry" />
        </mxCell>
        <mxCell id="uuMYFCACOVy0hHcjNsLC-51" value="app-ToB业务" style="shape=image;verticalLabelPosition=bottom;verticalAlign=top;imageAspect=0;aspect=fixed;image=data:image/svg+xml,PHN2ZyB4bWxucz0iaHR0cDovL3d3dy53My5vcmcvMjAwMC9zdmciIHhtbG5zOnhsaW5rPSJodHRwOi8vd3d3LnczLm9yZy8xOTk5L3hsaW5rIiB0PSIxNTc1MzYyNDUzNzI0IiBjbGFzcz0iaWNvbiIgdmlld0JveD0iMCAwIDEwMjQgMTAyNCIgdmVyc2lvbj0iMS4xIiBwLWlkPSI1MDUwIiB3aWR0aD0iMTI4IiBoZWlnaHQ9IjEyOCI+PGRlZnM+PHN0eWxlIHR5cGU9InRleHQvY3NzIi8+PC9kZWZzPjxwYXRoIGQ9Ik03NTMuMDY3IDIyMS44NjdjLTIuMTM0IDAtOC41MzQtMi4xMzQtMTAuNjY3LTIuMTM0QzY2NS42IDE0OS4zMzMgNTY1LjMzMyAxMjggNTI0LjggMTI4Yy00MC41MzMgMi4xMzMtOTguMTMzIDI1LjYtMTIxLjYgNjQtMzIgOC41MzMtNzYuOCAxNy4wNjctOTYgNDYuOTMzLTE3LjA2NyAyNy43MzQgNDIuNjY3IDQ0LjggNjEuODY3IDUxLjIgOC41MzMgMi4xMzQgNDkuMDY2IDEyLjggMTAwLjI2NiAzNC4xMzRsMi4xMzQgMi4xMzN2Mi4xMzNjLTIuMTM0IDguNTM0LTIuMTM0IDIxLjMzNCA0LjI2NiA0OS4wNjcgMTkuMiA1NS40NjcgNDkuMDY3IDkzLjg2NyA2Ni4xMzQgODkuNiAxMi44LTQuMjY3IDEwLjY2Ni02OC4yNjcgMTcuMDY2LTg5LjYgMCAwIDIuMTM0LTIuMTMzIDQuMjY3LTIuMTMzaDQuMjY3Yzc2LjggNDkuMDY2IDEzNi41MzMgMTI1Ljg2NiAxNTcuODY2IDIyMS44NjZDNzUwLjkzMyA3MDQgNzIzLjIgODEyLjggNjYzLjQ2NyA4OTZjMTAuNjY2LTIuMTMzIDE3LjA2Ni02LjQgMzItMTcuMDY3IDIzLjQ2Ni0xNy4wNjYgNDQuOC00MC41MzMgNjEuODY2LTY0Qzg4MS4wNjcgNjQwIDg5My44NjcgNDczLjYgODI3LjczMyAzMzAuNjY3YzAtMi4xMzQtMi4xMzMtMi4xMzQtMi4xMzMtNC4yNjctMi4xMzMtMTkuMiA3NC42NjctMjMuNDY3IDkzLjg2Ny0zNC4xMzMgMTAuNjY2LTE5LjItMTE1LjItNzYuOC0xNjYuNC03MC40eiIgZmlsbD0iIzAwQzFERSIgcC1pZD0iNTA1MSIvPjxwYXRoIGQ9Ik02MzEuNDY3IDY2My40NjdsNTUuNDY2LTg5LjZjLTYuNC0xMi44LTEwLjY2Ni0yNS42LTE3LjA2Ni0zNi4yNjdsLTU3LjYgOTEuNzMzSDUwMS4zMzNsNjQgMTA0LjUzNC03NC42NjYgMTE5LjQ2NkgzNDEuMzMzbC03NC42NjYtMTIxLjYgNjQtMTA0LjUzM0gyMTkuNzMzbC03NC42NjYtMTIxLjZMMjE5LjczMyAzODRoMTQ5LjMzNGw0NC44IDc0LjY2NyAyOS44NjYtNDYuOTM0Yy0yLjEzMy0yLjEzMy0yLjEzMy02LjQtNC4yNjYtOC41MzMtNC4yNjctMTcuMDY3LTYuNC0yOS44NjctNi40LTQwLjUzM2wtMTkuMiAyOS44NjYtMjUuNi00Mi42NjZoLTE4NS42bC05NiAxNTcuODY2IDk2IDE1NS43MzRoNjguMjY2bC00Mi42NjYgNzAuNCA5NiAxNTUuNzMzSDUxMmw5Ni0xNTUuNzMzLTQyLjY2Ny03MC40aDY2LjEzNHoiIGZpbGw9IiMwMEMxREUiIHAtaWQ9IjUwNTIiLz48L3N2Zz4=;fillColor=none;fontColor=#EA6B66;fontSize=8;spacing=-6;" vertex="1" parent="1">
          <mxGeometry x="1081" y="-1.5" width="28" height="28" as="geometry" />
        </mxCell>
        <mxCell id="uuMYFCACOVy0hHcjNsLC-52" value="app-ToB业务" style="shape=image;verticalLabelPosition=bottom;verticalAlign=top;imageAspect=0;aspect=fixed;image=data:image/svg+xml,PHN2ZyB4bWxucz0iaHR0cDovL3d3dy53My5vcmcvMjAwMC9zdmciIHhtbG5zOnhsaW5rPSJodHRwOi8vd3d3LnczLm9yZy8xOTk5L3hsaW5rIiB0PSIxNTc1MzYyNzE4MjMxIiBjbGFzcz0iaWNvbiIgdmlld0JveD0iMCAwIDEwMjQgMTAyNCIgdmVyc2lvbj0iMS4xIiBwLWlkPSI1ODUzIiB3aWR0aD0iMTI4IiBoZWlnaHQ9IjEyOCI+PGRlZnM+PHN0eWxlIHR5cGU9InRleHQvY3NzIi8+PC9kZWZzPjxwYXRoIGQ9Ik01MTAuMjA4IDIxMy43ODFsLTEwMS44MDMgMzQuNzc0TDM0Mi43IDIwOS45NGwxNjguODEtNjAuNjA4TDY4MS42NDMgMjExLjVsLTY0LjQ0OCAzNy4wNTYtMTA2Ljk2Ni0zNC43NzR6IG0xLjI4IDIwMS40M2wxMDEuODI0LTM0LjgxNiA2NS43MjggMzguNjk4LTE2OC44MzIgNjAuNTIzLTE3MC4wNy02Mi4wOCA2NC40MDYtMzcuMTQxIDEwNi45NDQgMzQuODE2eiBtLTE1NS4wOTMtNTEuOTA0bC02OS4xMiAzMy40OTNMNjUuNjIgMzE0LjMwNGwyMjUuNTE1LTgzLjM3IDY1Ljc1IDM4Ljg0Ny0xMjIuNDExIDQ0LjUyMyAxMjEuODk4IDQ5LjAwM3ogbTQzNC42NDUtNDkuMDAzbC0xMjIuNDEtNDQuNTIzIDY1LjcwNi0zOC44NDggMjI1LjU1NyA4My4zNzFMNzM4LjE3NiAzOTYuOGwtNjkuMDk5LTMzLjQ5MyAxMjEuOTYzLTQ5LjAwM3pNNTExLjQ4OCA2MDguNzQ3TDY0Ljk2IDQzMy42NDMgNjQgMzQ0Ljg5Nmw0NDcuNDg4IDE3NC45MzMgNDQ3LjU3My0xNzIuOTkydjg5LjQzbC00NDcuNTczIDE3Mi40OHogbTEuMDI0IDMzLjY2NEw5NjAgNDY5LjM3NnY4OS40OTNMNTEyLjUxMiA3MzEuMjg1IDY1Ljk2MiA1NTYuMjI0bC0xLjAwMi04OC43NDcgNDQ3LjU1MiAxNzQuOTM0ek02NC45MzkgNTkxLjA2bDQ0Ny41NzMgMTc0LjkzNEw5NjAgNTkzLjAwM3Y4OS40NzJsLTQ0Ny40ODggMTcyLjQ4TDY1Ljk2MiA2NzkuODVsLTEuMDAyLTg4Ljc2OHoiIGZpbGw9IiMwMEMxREUiIHAtaWQ9IjU4NTQiLz48L3N2Zz4=;fillColor=none;fontColor=#EA6B66;fontSize=8;spacing=-6;" vertex="1" parent="1">
          <mxGeometry x="932" y="72" width="27" height="27" as="geometry" />
        </mxCell>
        <mxCell id="uuMYFCACOVy0hHcjNsLC-53" value="app-Toc业务" style="shape=image;verticalLabelPosition=bottom;verticalAlign=top;imageAspect=0;aspect=fixed;image=data:image/svg+xml,PHN2ZyB4bWxucz0iaHR0cDovL3d3dy53My5vcmcvMjAwMC9zdmciIHhtbG5zOnhsaW5rPSJodHRwOi8vd3d3LnczLm9yZy8xOTk5L3hsaW5rIiB0PSIxNTc1MzYzMjkzODUxIiBjbGFzcz0iaWNvbiIgdmlld0JveD0iMCAwIDEwMjQgMTAyNCIgdmVyc2lvbj0iMS4xIiBwLWlkPSI2MDc5IiB3aWR0aD0iMTI4IiBoZWlnaHQ9IjEyOCI+PGRlZnM+PHN0eWxlIHR5cGU9InRleHQvY3NzIi8+PC9kZWZzPjxwYXRoIGQ9Ik0yODEuNiA1MzEuMmMtMTAuNjY2NjY3IDAtMTkuMi04LjUzMzMzMy0xOS4yLTE5LjJzOC41MzMzMzMtMTkuMiAxOS4yLTE5LjIgMTkuMiA4LjUzMzMzMyAxOS4yIDE5LjItNi40IDE5LjItMTkuMiAxOS4yeiBtLTg3LjQ2NjY2NyAxNjguNTMzMzMzdi0zNDkuODY2NjY2bDE4OS44NjY2NjcgMTEwLjkzMzMzM3YyMTEuMmMwIDI1LjYtMTkuMiA0NC44LTQ0LjggNDQuOC0yNS42IDAtNDQuOC0xOS4yLTQ0LjgtNDQuOHYtMTEwLjkzMzMzM2MyMS4zMzMzMzMtNi40IDM2LjI2NjY2Ny0yNS42IDM2LjI2NjY2Ny00Ni45MzMzMzQgMC0yNy43MzMzMzMtMjMuNDY2NjY3LTUxLjItNTEuMi01MS4yLTI3LjczMzMzMyAwLTQ2LjkzMzMzMyAyMy40NjY2NjctNDYuOTMzMzM0IDUxLjIgMCAyMy40NjY2NjcgMTQuOTMzMzMzIDQwLjUzMzMzMyAzNi4yNjY2NjcgNDYuOTMzMzM0djExMC45MzMzMzNjMCA0MC41MzMzMzMgMzQuMTMzMzMzIDc0LjY2NjY2NyA3NC42NjY2NjcgNzQuNjY2NjY3czc0LjY2NjY2Ny0zNC4xMzMzMzMgNzQuNjY2NjY2LTc0LjY2NjY2N3YtMzIwYzAtMjUuNiAxOS4yLTQ0LjggNDQuOC00NC44IDI1LjYgMCA0NC44IDE5LjIgNDQuOCA0NC44djMyMGMwIDQwLjUzMzMzMyAzNC4xMzMzMzMgNzQuNjY2NjY3IDc0LjY2NjY2NyA3NC42NjY2NjdzNzQuNjY2NjY3LTM0LjEzMzMzMyA3NC42NjY2NjctNzQuNjY2NjY3di01Ny42bDE2OC41MzMzMzMgOTguMTMzMzMzLTMwMi45MzMzMzMgMTc0LjkzMzMzNC0zMjguNTMzMzM0LTE4Ny43MzMzMzR6IG01NjEuMDY2NjY3LTIwNi45MzMzMzNjMTAuNjY2NjY3IDAgMTkuMiA4LjUzMzMzMyAxOS4yIDE5LjJzLTguNTMzMzMzIDE5LjItMTkuMiAxOS4yLTE5LjItOC41MzMzMzMtMTkuMi0xOS4yIDguNTMzMzMzLTE5LjIgMTkuMi0xOS4yeiBtODkuNi0xNzAuNjY2NjY3djM0OS44NjY2NjdsLTE4OS44NjY2NjctMTEwLjkzMzMzM3YtMjExLjJjMC0yNS42IDE5LjItNDQuOCA0NC44LTQ0LjhzNDQuOCAxOS4yIDQ0LjggNDQuOHYxMTAuOTMzMzMzYy0yMS4zMzMzMzMgNi40LTM2LjI2NjY2NyAyNS42LTM2LjI2NjY2NiA0Ni45MzMzMzMgMCAyNy43MzMzMzMgMjMuNDY2NjY3IDUxLjIgNTEuMiA1MS4yIDI3LjczMzMzMyAwIDUxLjItMjMuNDY2NjY3IDUxLjItNTEuMiAwLTIzLjQ2NjY2Ny0xNC45MzMzMzMtNDAuNTMzMzMzLTM2LjI2NjY2Ny00Ni45MzMzMzN2LTExMC45MzMzMzNjMC00MC41MzMzMzMtMzQuMTMzMzMzLTc0LjY2NjY2Ny03NC42NjY2NjctNzQuNjY2NjY3cy03NC42NjY2NjcgMzQuMTMzMzMzLTc0LjY2NjY2NiA3NC42NjY2Njd2MzIwYzAgMjUuNi0xOS4yIDQ0LjgtNDQuOCA0NC44cy00NC44LTE5LjItNDQuOC00NC44di0zMjBjMC00MC41MzMzMzMtMzQuMTMzMzMzLTc0LjY2NjY2Ny03NC42NjY2NjctNzQuNjY2NjY3cy03NC42NjY2NjcgMzQuMTMzMzMzLTc0LjY2NjY2NyA3NC42NjY2Njd2NTcuNmwtMTcwLjY2NjY2Ni05OC4xMzMzMzQgMzAyLjkzMzMzMy0xNzQuOTMzMzMzIDMyNi40IDE4Ny43MzMzMzN6IG0tMzI2LjQtMjM2LjhsLTM2OS4wNjY2NjcgMjEzLjMzMzMzNHY0MjYuNjY2NjY2bDM2OS4wNjY2NjcgMjEzLjMzMzMzNCAzNjkuMDY2NjY3LTIxMy4zMzMzMzR2LTQyNi42NjY2NjZsLTM2OS4wNjY2NjctMjEzLjMzMzMzNHoiIGZpbGw9IiMwMEMxREUiIHAtaWQ9IjYwODAiLz48L3N2Zz4=;fillColor=none;fontColor=#EA6B66;fontSize=8;spacing=-6;" vertex="1" parent="1">
          <mxGeometry x="837" y="350.5" width="27" height="27" as="geometry" />
        </mxCell>
        <mxCell id="uuMYFCACOVy0hHcjNsLC-54" value="micro-gateway SLB&#xa;(WAF白名单通过)" style="shape=image;verticalLabelPosition=bottom;verticalAlign=top;imageAspect=0;aspect=fixed;image=data:image/svg+xml,PHN2ZyB4bWxucz0iaHR0cDovL3d3dy53My5vcmcvMjAwMC9zdmciIHhtbG5zOnhsaW5rPSJodHRwOi8vd3d3LnczLm9yZy8xOTk5L3hsaW5rIiB0PSIxNTc1MzYzOTIxMzg4IiBjbGFzcz0iaWNvbiIgdmlld0JveD0iMCAwIDEwMjQgMTAyNCIgdmVyc2lvbj0iMS4xIiBwLWlkPSIzNTkzIiB3aWR0aD0iMTI4IiBoZWlnaHQ9IjEyOCI+PGRlZnM+PHN0eWxlIHR5cGU9InRleHQvY3NzIi8+PC9kZWZzPjxwYXRoIGQ9Ik03NzYuMDQzIDU0OC42M2MtMjQuNzY4IDAuMTA2LTQ4LjEyOCA2LjM3OC02OS4xNDIgMTYuNDY5bC04OS40NS0xMzMuODY3YzMzLjM2NS0yOS43MzkgNTQuNjU2LTcyLjY4MyA1NC40LTEyMC43MDQtMC40MjctODkuMjM3LTczLjE5NS0xNjEuNjIxLTE2Mi40OTYtMTYxLjE5NS04OS4yOCAwLjQyNy0xNjEuNDMgNzMuNDk0LTE2MS4wMjQgMTYyLjYyNCAwLjIxMyA0OC4wNjQgMjEuOTczIDkwLjY4OCA1NS4zODEgMTIwLjI1NmwtODguMDQzIDEzNC42NzhjLTIxLjIwNS05Ljk2My00NC40MzctMTUuOTM2LTY5LjMzMy0xNS44My04OS4xNTIgMC4zNjMtMTYxLjQzIDczLjM2Ni0xNjEuMDAzIDE2Mi42MjQgMC4yOTkgODkuMTUyIDczLjE5NSAxNjEuNDUxIDE2Mi40OTYgMTYwLjk2IDgxLjQ1MS0wLjMyIDE0OC4wNTQtNjEuMjY5IDE1OC44Ny0xMzkuODRsMjEwLjczLTEuMDAyYzExLjQzNSA3OC41MDYgNzguNTkyIDEzOC44NTggMTYwLjEwNyAxMzguNTE3IDg5LjIzNy0wLjQyNyAxNjEuNDMtNzMuMzAxIDE2MS4xMy0xNjIuNTYtMC40NjktODkuMjM3LTczLjQ3MS0xNjEuNTM2LTE2Mi42MjMtMTYxLjEzeiBtLTE1OC44NyAxMzkuODRsLTIxMC43MyAwLjk2YTE2MS4xMyAxNjEuMTMgMCAwIDAtNTIuOTcxLTk3LjZMNDQxLjYgNDU3LjExYzIxLjE0MSA5Ljk2MiA0NC40MzcgMTYuMDQyIDY5LjI3IDE1LjgyOWExNTkuOTU3IDE1OS45NTcgMCAwIDAgNjkuMTYyLTE2LjM4NEw2NjkuNTI1IDU5MC40YTE2MC4zMiAxNjAuMzIgMCAwIDAtNTIuMzUyIDk4LjA3eiIgZmlsbD0iIzAwQzFERSIgcC1pZD0iMzU5NCIvPjwvc3ZnPg==;fontColor=#EA6B66;fontSize=8;spacing=-6;" vertex="1" parent="1">
          <mxGeometry x="390" y="280" width="36" height="36" as="geometry" />
        </mxCell>
        <mxCell id="uuMYFCACOVy0hHcjNsLC-55" value="B端管理后台" style="shape=image;verticalLabelPosition=bottom;labelBackgroundColor=none;verticalAlign=top;aspect=fixed;imageAspect=0;image=data:image/png,iVBORw0KGgoAAAANSUhEUgAAADMAAAAlCAIAAABgTEb7AAABRWlDQ1BJQ0MgUHJvZmlsZQAAKJFjYGASSSwoyGFhYGDIzSspCnJ3UoiIjFJgf8bAxSDDwAnElonJxQWOAQE+QCUMMBoVfLvGwAiiL+uCzBKf0uRku1L3WgNTyb8lq6wdMdWjAK6U1OJkIP0HiFOTC4pKGBgYU4Bs5fKSAhC7A8gWKQI6CsieA2KnQ9gbQOwkCPsIWE1IkDOQfQPIFkjOSASawfgCyNZJQhJPR2JD7QUBbo8ABVcj80IFdxMCriUDlKRWlIBo5/yCyqLM9IwSBUdgKKUqeOYl6+koGBkYGTEwgMIcovrzDXBYMopxIMSKyxgYLOsZGJi6EGIJLgwM23cyMEj/QYgpyzAw8B1nYNiyrCCxKBHuAMZvLMVpxkYQNvd2BgbWaf//fw5nYGDXZGD4e/3//9/b////u4yBgfkWA8OBbwD4A19XsnisPAAAADhlWElmTU0AKgAAAAgAAYdpAAQAAAABAAAAGgAAAAAAAqACAAQAAAABAAAAM6ADAAQAAAABAAAAJQAAAAADZQ1AAAAKcElEQVRYCe2XW4scxxXHq6uqqy9z2bmsdnZ3xgqC2JKjSAQSYhwlOOQtxBCMMX4x5KvkAxjyDRTIF8hnCAaFGPwQcGxiR2KtlbQXaWZ3drt7uquruvM/1aOxdiTfIA9+SM1le3uqT/3qf06dOuVVVcW+l41/L6kI6v9k39018rs/sv5EXdda6yzLkiQ5Pz/v9/uj0QidPM9bfa8/8y3+/7ZkGH5lDRyHh4f7aNPp4T1qBwcHwGrI3njjjfff/xM6cw64GnwNIu6sLlamvubiBWRYrXmeQwNT1+lZivEeP57t73+xf3Bwb2/vs48/AVJZlkujirVVLMNwd3s8uXwtisMHh9PP796dnczTRb7Z7w/63bjVigJfhYEvBAevayvK1cUapbeWNW7f/ssHdz4MWz1j6sPj45PZbJ7Oy7wwxkrph0Ect+Lx5IfDzUG7jeFEGAbdTqfbjqNIBUrOZrM/377981u3tDbNSFLwKAzwklJEUTQZb//g8ktblwabw0EUho2oz7KuQNc1+/TzvU/uPW51hB+2uBhvjF66FIb9SzvtuK2kJzzrMSt4JXkteC0F83FVs0VeVJUxpcyyBVT65eu3piez6XSWpWmhNd5ZXlhLifPe3r75250iz5P5SRgHl3q94bC/s3P5vffeedb74Fsn831fMPbqz96O2sNS52WRsjpndWkqXWnNagM4egPLq9G1FExKXuJthNZExriEHyASlkIcxQiMPC90WZSmPH50eO+zuyXTOs+MLeGHJ4cHwI2i8N13f4+5SsbhcAECxi6QIcxbrRbu6jIN64GtME3w2NoUHitZVXJuPGZ8VnFOcDDhcyaFBzJd8kAJRCfnXlVXeBTWqpr+MA9pk9YpWI6OHhqTJ/qMBtfLT9DenCepEn4Q+NaTiglYvkCGjsPhwFq9SE86G2NWVxbmbYX5Wl0IXnJm8NZexT0reeV7tZYgg089VYpSi2yx4ExAswbO/aFLfFhdm1Ij2ozBoMpxEVrG2JX+1ulpEmKRtFS7jjB1zsU62WQ8IZkLeJDmzLCr4huf2uZZAdmUsJxZjxvu1YCTAJHMF56WXPk8zXJYXQI50SAZ3mQFJozBPKSULNEZFANUjFd7c3jp7CwtghJP+Fz6PuLhOc1GW5eQiazJYQdYSzp4FZgIcl2kZR74DEBOtlp4FTTDLDXnpeKLNJNYb41o7g/UIijXjLWYBZMWUi2xVLsd93q9QZaSfkXgl5VBKNQ18C825BsvCPMihUEHY2G3wXJzp9GS81wwGyj0hVuhHJmBQ8tC5PAmF/TMU90YBRrhoWEoGSC8BVMqhkdVrOK2lFEQKFtihUgLqqelzzqZ76tWEC2SOWEx2CQsGoj+pfFolMrmCMXUhIHwJZaUk1AyJbheZMhsjdbuGQJaKgZrgKLevlIhU0hDUoatMGgrP3CDfbnN0BwuSsbC0A/jOM1mAFhGGB4iREeJgKELMmFLPc3y0GdIpBDPx7qVrNALkNFM3BSIy8U+Wahr+EMJcY5eOic4uDSZmmQatF5DAvNo96LWbGPrZHEcdTvDs/QhBKKF6YZgAKIgrnEH0Yc3s5XBYLZK9OJ0Pu91YoQ/5LBIe+iKhr5fauUmAzLaTCUztu2wehsbp/MpsnAn7iE4KdMifGm3pRSzTobYwS6D5YlwJ81oYdI4jTeJj9RgBIdfkHlNxYw5fnyspOh1I+pAD5BS9E10DhOGamYqC28iwdLepdhos3t88BD1wUaXkiiIKMorwkJ7jkxgucFTtNuQUdinXQUkzptuXPcv1pdttkZtLMZMsjQ5O2sTHJ5xc3FM5E+3BuDOyliMbZjVzCBxfPTRP9HZ80ohZEVYHq8dnPPpBTLcQbpDv1xn1iLp05zhxGYk+qZBKa/DogExQdNbAx1Bo3P2JIeIJDEeAlDzh9DcyqQVILEHYH9qdgBkNIndSCLVeFCLNIMuHlLLc5ph2+TI0kWKD+2qCDaCIb9eWAcWKA0WkOAZSgTbO6M4VOPxNsCgdPMcpMaDaLDkwgybiFmmWcppTPZGPpEhwoDV1HO4XV3QDDdQqGBDxAXpQckc1xAB3iS93KpE4LsODNVFppPHkA9zuPHj62+++VsUSbpE0aQJhbo7JhIeFumDEKcgyyj9o2FSrXasVOAcCCzSDAWNJ5+rNfCwcrQW1U7NCacRjFSDH+0imSXzgyyZWZvcuHpj9/KNV69dvXLlCnIHig5tirPzDMUFCdaAkR9JRLKsJGYDmeK45/5VGKzX6WE7cmTLL/yEtq4ZbnXiAEHE4C8EJk0Xi6E0Ov/i3x+cHn4KR3Tjjbd+9/avfv2bIAjhfZolIgSKcIG6NQo7W8Ph8ZPjvfuPyI00s2WQcQ+FjlQx0ixeqCWpHIhBxqVLZs6fhPdVZP0uglSb0iaz+//5x/Twfjr9fGNj2O3HV1/76c7OzmDQf/mVH+n05Phgipy5O54MBpthq486QlC0oJasW+3WZHc8m8+RUB7sP5ifPy1xQR/G0kBgZKfg+s2b11++2tnY4AIJjZbnqr1As93RKMnmf//rH7Fmer3RH95968ZPbp6dPFws0rLU1to0Tffv3zWuYd7G6KPDR4PB4OrV661uD5UvpozARKrrtNo7o61XX7l2dHT08b8+PTk6xjrotLsomG9ev3HrF693ul3kZ0HlBUoV4aEwE0QHC+vnAEz34ODkww/v+H483NpEsOUoVbl58uQAx7ZTlFFJguMJ+BoymJhMJuPxZHt7t9fv+zKSAaRzcOikbWHKPNcWAViWx8dPHj14BOjxZBIFIQUBMr/Pw1C1wrDTid07wt5NixWhSl592kBmbZ3DXILj03maJvMzvOY4SNKpLUkgWHNwQk0xGm1PJpc7GwMlQ6EkKtJIKRX5gUQeIDike8wCcKbAq8SqBCC+aItx46KbgmJEpuJO1Ikj1B+KY24vWptIKqL2ENqoCU5OTtP0HLgNOXTCxe4uAmsrijvYoGHEWmE9SiW0HmsGGWg85de1J0MWYYd12xEKL8LSJsfMSHSyiVFAhjIC84lxvgp9yXDyo9HWNcMtDIAjHdwFLyx0MZ/N9vbuzefzoig2N7e6G5s5nVSQezCyQIDAOuJZOsGCmPwSRag8cAvLFvaJ2HrYXgnRSUiBgJnQohYCh1BkkyCQHoR2J4DlEm1UJcinDQo1cCXqBfiiKHNdYE+EHIsMi7YokCpROMAowtYxwTSm7Qdwiw8BROD7FMzLvRmGYbCqSAXDKg96kcCkGfpQUGKHIntAQuxRw08vWJv4AV0kNlkrLVYaHbOwoEWeLsqAhQxFrCQTkAlz9enAw51s4HM5E9mJsJrWzNfZxJQ5Cs2KwmgZ3O4+vrAQlgmj6f9iMtx1D6ArHkBSsEFAKRMNzKWUCCasHTqZKknx68OnmLdAdIII6ezpKF9qBoNosADjLoyEs7bsALP4dcXUXLwgzlY9iMV5FtsBQkVrit/mqA0AhBGAyBco+LBQKQ8BfdlWRr7qApafp3m289eRNf1WcBDPTZvmjZMJFFoDwv2vH+zZgb/x+pvJYIKkc22V+5wyS4X+t0Ar4v8CAFnoCEe6S+kAAAAASUVORK5CYII=;fontColor=#FF6666;spacing=-4;fontSize=12;" vertex="1" parent="1">
          <mxGeometry x="23.5" y="46.5" width="48.93" height="35.5" as="geometry" />
        </mxCell>
        <mxCell id="uuMYFCACOVy0hHcjNsLC-56" value="外部系统服务" style="shape=image;verticalLabelPosition=bottom;labelBackgroundColor=none;verticalAlign=top;aspect=fixed;imageAspect=0;image=data:image/png,iVBORw0KGgoAAAANSUhEUgAAADEAAAAkCAIAAACv5UVjAAABRWlDQ1BJQ0MgUHJvZmlsZQAAKJFjYGASSSwoyGFhYGDIzSspCnJ3UoiIjFJgf8bAxSDDwAnElonJxQWOAQE+QCUMMBoVfLvGwAiiL+uCzBKf0uRku1L3WgNTyb8lq6wdMdWjAK6U1OJkIP0HiFOTC4pKGBgYU4Bs5fKSAhC7A8gWKQI6CsieA2KnQ9gbQOwkCPsIWE1IkDOQfQPIFkjOSASawfgCyNZJQhJPR2JD7QUBbo8ABVcj80IFdxMCriUDlKRWlIBo5/yCyqLM9IwSBUdgKKUqeOYl6+koGBkYGTEwgMIcovrzDXBYMopxIMSKyxgYLOsZGJi6EGIJLgwM23cyMEj/QYgpyzAw8B1nYNiyrCCxKBHuAMZvLMVpxkYQNvd2BgbWaf//fw5nYGDXZGD4e/3//9/b////u4yBgfkWA8OBbwD4A19XsnisPAAAADhlWElmTU0AKgAAAAgAAYdpAAQAAAABAAAAGgAAAAAAAqACAAQAAAABAAAAMaADAAQAAAABAAAAJAAAAADqObQ3AAAKHklEQVRYCe2Xy48cRx3Ha7qrq6tf0z2Pnceu187a3o2dxAaTkMeFG0JEIiiCAxInDvwBHBEkUq5cQJaQIAIkDkiAQhQ4RQIOIIiUiMgbW+skJt54s/aOvTM7z55+9zTf6lnP7ix2bHHKgdJopvoxXZ/6/r6/X1UXJpMJ+Yw16TPGI3D+z/RwQfks6kQfDv0BdyVJMnTHUZQwphRNXZL2p1ooFPDP6fcDHnHo8v/ClGXZ9Anbt1qtdveDzW3NLDq2zVV1OBru3Got1ZzzZ9fq1QrYCoXsMNnD8BUeshaMRqNOb7C1tXWr3du+dXs48lqdvmFbFbtkl0qVku1YFmN0OHJ3O3vt3XarfVtK04WSvXZi+YnPP766fFzT1MN8nwJ3b53SNAUrIrK+vr5x/cZrr/+xNxwzRZeYoiA8CqcqM4yiGidBGCmeTykNo7iQZb4fDEYD1xuHYbzXab975cpr3Z6XhnqBfvOF5198/quPPrqqKLIsk2l8Z2Szjoj1YZ0ub2z8+c03d3ba7UF/59at1k6noFDKFKqosmDhMyZJZTrTdMswTcvUTd3QMc4kjaMwdF0XWP1+v9vtDnpddzyO0pARyYTRNHOxVj135myzWX3uixcWm400SkslSzDmtpuSzen0gx/9bG93p9u6mQRjgrlTde7yIRuim0wmQRBJsp8RKZ5kMHMch2Ho+56HQA/gec9P0qOLxMjzL394bXNn5/K166ZudW/vfPc73z539gxkg/kkSZhvbtB6fcGPM26Wxu4g9YbBeDSPcfRokpEwTAgJYyBlWeh7Ainwx+44CAKCy/dqVKZSQRoOx0mSVpeOffTJztrJFUrlQkHGN6XkgAnZtFSvbW7tpIRwbsZUlblO4gjW+tRyn01IlmaTLE6jOI5gwjQmOHeoIXCUcQQOJsCjNjYukzQulcuLS8u+O1o7sTQajSlVNI1lMiuk8gETHqLIJE2iySRNk5RMIABNRaFJ4CjBPzfQoTHv15UwN95oNOC7oTtCdiiksH39agCHJSG+e90uyJ558gt7fdfgbFKYWJKUKvOxszQu5jlJciagRQTZlybwDSGpwTUm6YSx+zFMz9OCRFSqqrauNidZNtjb/Xh7nXNLPGfsenBqkjCuOnYZNU1lTFVUnEaqyTL8G0tsXqfFRgM6pZMMWCQGXZIzxURgpgPPS8guQn5i5YykzJPhL/jjeDDo3CFE1jTDKlc7rRtxEsVRjHglcYQAEllmVIP6TrlUWahd//DqufNPWqYVBIkip4mGEiTq8Vzs6vUaFELkEDiRMrk5cAJMRACm+PaC8P1LbxWdhaJTXlhe2et2g2AcxV4iSTQmTNdlSRqPur1BOw0Dwy4j4rWllcAbD3t7pmX10y6XORR9/71LzcWlXncXN4gxMUa+k5OPMKlUynBVoCRIdThxCpQkEYG7SBolCZQnUTLcbXV2W5vXNnDWuXCB7LmYXAAXDjpUNYrlCme6YjqUG25/L07C4bDHdd3tdymRjLIdDgY1CFCr+4GfTpBUok2LU1qY14kqTCpkkYjafrxQdHCAiQgacAmyhOkmviMvyB9FvI0rjHJiWlTlRaeCLZledFCoMTmvv5cCqNdLosCNQpgJQWMSteoNu1hsLi5u3diSJAEjZeIn7x/xuKlSKt0FikW8ADSTJyeKYHcSoKLiR3iKIc1NzjWq6Soyi6ugCd1RsVLtt++kYUQUCiC4AcHROVNVZppm0TCQknGcFIu2wrAOggYFU8xR8Infu40rCpIGTOIjgES67cdrHyhXi1AmBI4AxUS5lyv1RZGYdkmUWVrwfR8lBX5iGkfSAijKM9c0bEMzmAp0470r61fW30P5hFvAlDdIJYIx5/FMUZBywkZ5vGAd4aM8XkKdSPREw5/2/0dNuwT/DDq3rXKte+dmuX5iPOgU7Wrgu0wzIqzJcYhZEio7xRKSZOz7CtP6ezdWV9e8kZtN0gxIwkuiYX2Z0wmnKpZlQepg30AzhbBZOwCCPIeguq2WZVeCcYDHoRRDpHJtWVG1XOc0iCNUA/isbJcQZpGVCo0D9+Qjy81mg2nMsopipcn3WDO0udjpuv673/z6pe9/D0EU+XUQr6k+EYGbhGKwkyw62Fjq3Bv1zFqVSHKxXNM02B+LcRCFY9QUqFlxyqZh4aShsYptLdUWTj26alXrIz+tHTu1+shpFX7C2ivWYMgiHj7HhGPO1W98/YU3Xn/tS88+hwVFKLTf9mnuHopfoRg3EG3DsGXGFVUlshLGAaqRpmpYPwLf2+vfgckoSXRdNcolq9oIqXX9xmZF5V9+6um1lVPYTVF8oJaM0iYiOOcnDANS7GYcy3z55Zf+9s+3X/3Fz7e3b4jRc3kEiOjBh3reJ1w3ZJUrmIpmDtstyfcG3Z18i6IE3igKPCy+3FCXTq4xVW93e8dK7NyZlUeefVrTOBCohAVFURUZCU+Vfa3m9nQo7CimcYxP5Pp4pn+n03v1l7/6+1/+6nl90Hg5iGM6qOOdm1twSOPYcd2ysZmTJTrst4uVpSiN3FEfto5ENaqXa7Xl049NAr+is2eeesrSDQmWlgpYFmUF67KsMUUzNNvSdF1TDRW7xzkmjAgmFHCELE1jz4uCIByNvQ+ufnTx4o/Xr10SSB7RHafarHe2PkYtMGEop8yZUjl+djTqpckkDDzEzHQqK6uPa1w7VrVPLS46TpGjIGPfRGRJkWBHFYUN0nAYnUFIXVURXJygtHCUaYaFcgCTYkfgR3Ew9ntD940/vP77P/32zlZbd8xG8/jtrY9ws1ktH1+9gHRTZD4a9zk3UKhKlcbSQrVWKq00m7ZjQxhJhlMkDAhhsPAjXhwfQOEbRRPhUxE5XMjLgZDlvxpOIo5Y+rBHm0Qgg2+R7+Fuq/3KKz+8evVq4+Tp25uCCZ3m8TOESkwzuaZ1bn58+sTysxeeqVRKwACKTGTESVEo3mqEaQSEIJh28L6AS8CFiacvDsLk92TCYGBCAzAEwy4P7yF+hI2Y8NlPLv70nXff+eTmv+Hzx577il1tjvudSrF46sTy2VNrdtkBzF1hJIaWo8ApkAREKsRC4JicId2gIKwuXgP3G4Y+mnczyXAL+igcioIXNQlKYE4MJU+lnzv/hKazm5vH3nrrH63rHziK9K2vvVhbqAjvCmHyIFEZA0OSw8JApxwQbynCUnnmi5eCaTsY+n46ze44LBiEmwrmuyEc9q+3L5XLFQhDUrwOTFBFFIGuTIXhHEwMia7iFOZzL2EwCoBmY007943dkfvyOAr+OEYoE98XSxlejELkJopHiulmqH0QErEBBIeBVXEorIOiT1ARhTB3F38hzZEhZof3jd3sjmkHj8iLP8amSVIwjPyIypESqvtMBSqCi/fTA2HEGpTl9fmuY/C0T6HZH+uBsTsCNxUsSbIYeRnGqGSx2Kzn74owkogRLI2pHggzhXggymyg/wBW+D1Ixn+uYQAAAABJRU5ErkJggg==;fontColor=#EA6B66;spacing=-4;fontSize=12;" vertex="1" parent="1">
          <mxGeometry x="28" y="225" width="47.64" height="35" as="geometry" />
        </mxCell>
        <mxCell id="uuMYFCACOVy0hHcjNsLC-57" style="edgeStyle=orthogonalEdgeStyle;rounded=0;orthogonalLoop=1;jettySize=auto;html=1;exitX=0.5;exitY=1;exitDx=0;exitDy=0;entryX=0;entryY=0.5;entryDx=0;entryDy=0;strokeWidth=2;dashed=1;strokeColor=#66FF66;" edge="1" parent="1" source="uuMYFCACOVy0hHcjNsLC-63" target="uuMYFCACOVy0hHcjNsLC-100">
          <mxGeometry relative="1" as="geometry" />
        </mxCell>
        <mxCell id="uuMYFCACOVy0hHcjNsLC-58" value="&lt;font color=&quot;#ea6b66&quot;&gt;400客服服务&lt;/font&gt;" style="edgeLabel;html=1;align=center;verticalAlign=middle;resizable=0;points=[];" vertex="1" connectable="0" parent="uuMYFCACOVy0hHcjNsLC-57">
          <mxGeometry x="0.3425" y="3" relative="1" as="geometry">
            <mxPoint x="-101" y="-5" as="offset" />
          </mxGeometry>
        </mxCell>
        <mxCell id="uuMYFCACOVy0hHcjNsLC-59" style="edgeStyle=orthogonalEdgeStyle;rounded=0;orthogonalLoop=1;jettySize=auto;html=1;exitX=0.5;exitY=1;exitDx=0;exitDy=0;entryX=0;entryY=0.5;entryDx=0;entryDy=0;strokeWidth=2;dashed=1;strokeColor=#66FF66;" edge="1" parent="1" source="uuMYFCACOVy0hHcjNsLC-63" target="uuMYFCACOVy0hHcjNsLC-126">
          <mxGeometry relative="1" as="geometry" />
        </mxCell>
        <mxCell id="uuMYFCACOVy0hHcjNsLC-60" value="&lt;font color=&quot;#ea6b66&quot;&gt;云通信IM&lt;/font&gt;" style="edgeLabel;html=1;align=center;verticalAlign=middle;resizable=0;points=[];" vertex="1" connectable="0" parent="uuMYFCACOVy0hHcjNsLC-59">
          <mxGeometry x="0.5211" y="-3" relative="1" as="geometry">
            <mxPoint x="-137" y="-16" as="offset" />
          </mxGeometry>
        </mxCell>
        <mxCell id="uuMYFCACOVy0hHcjNsLC-61" style="edgeStyle=orthogonalEdgeStyle;rounded=0;orthogonalLoop=1;jettySize=auto;html=1;exitX=1;exitY=0.5;exitDx=0;exitDy=0;strokeWidth=2;strokeColor=#66FF66;dashed=1;" edge="1" parent="1" source="uuMYFCACOVy0hHcjNsLC-63" target="uuMYFCACOVy0hHcjNsLC-134">
          <mxGeometry relative="1" as="geometry">
            <Array as="points">
              <mxPoint x="65" y="361" />
            </Array>
          </mxGeometry>
        </mxCell>
        <mxCell id="uuMYFCACOVy0hHcjNsLC-62" value="&lt;font color=&quot;#ea6b66&quot;&gt;风控&lt;/font&gt;" style="edgeLabel;html=1;align=center;verticalAlign=middle;resizable=0;points=[];" vertex="1" connectable="0" parent="uuMYFCACOVy0hHcjNsLC-61">
          <mxGeometry x="-0.1992" relative="1" as="geometry">
            <mxPoint x="10" y="-10" as="offset" />
          </mxGeometry>
        </mxCell>
        <mxCell id="uuMYFCACOVy0hHcjNsLC-63" value="C端用户" style="shape=image;verticalLabelPosition=bottom;labelBackgroundColor=none;verticalAlign=top;aspect=fixed;imageAspect=0;image=data:image/png,iVBORw0KGgoAAAANSUhEUgAAACYAAAA7CAIAAACYF2+8AAABRWlDQ1BJQ0MgUHJvZmlsZQAAKJFjYGASSSwoyGFhYGDIzSspCnJ3UoiIjFJgf8bAxSDDwAnElonJxQWOAQE+QCUMMBoVfLvGwAiiL+uCzBKf0uRku1L3WgNTyb8lq6wdMdWjAK6U1OJkIP0HiFOTC4pKGBgYU4Bs5fKSAhC7A8gWKQI6CsieA2KnQ9gbQOwkCPsIWE1IkDOQfQPIFkjOSASawfgCyNZJQhJPR2JD7QUBbo8ABVcj80IFdxMCriUDlKRWlIBo5/yCyqLM9IwSBUdgKKUqeOYl6+koGBkYGTEwgMIcovrzDXBYMopxIMSKyxgYLOsZGJi6EGIJLgwM23cyMEj/QYgpyzAw8B1nYNiyrCCxKBHuAMZvLMVpxkYQNvd2BgbWaf//fw5nYGDXZGD4e/3//9/b////u4yBgfkWA8OBbwD4A19XsnisPAAAADhlWElmTU0AKgAAAAgAAYdpAAQAAAABAAAAGgAAAAAAAqACAAQAAAABAAAAJqADAAQAAAABAAAAOwAAAAA/SlFSAAAL0klEQVRYCcWYWY8cVxXHa6/qql5msyf2jLeZ2NlsgoREIggKQrzxQPKN+Ap8AngAngiISFEkhICHKFKC4CkiEgGMk1jO2DM9vXd1rfzOud2zND32W7hTU111l/M/53/OPffesquqsr7e4ny9cIL2f4D0nm5lXddP70CrbdvP7HO2wwpIYEbj8ccf/+0Pf/zwuDd49dWX9m5da0SNPMssq07ixuXntjvttm3VAmZbvhc4jsUo13WDIDjR4OThLJ6ouBQ+jHzy5Mlvfvf+z3/5/miaW2V149bOWz/6QRw3VL5VluV0OknTNM9nVlU3m9Ha+noU+lVdt5PW9etXd3eveZ5r26KQKc+AHI/HH3zwwc9+8d4n//jCKuks8fzd17/1+mvfwCBhUO/Iksf5s9ZbVpZnZTF74zuv7d687taO63KtQF0m9ujo6N1333308DH2FYpnFdVHf/nrnTvXm834xGkKprgLVFWGm/Ovf/9nbW0jjqPS9vza8xTBqEgzZRmStk6n02wNDwYpYNqnSmfpO++89+Kd7ZdeuvfbX/+q2z2Ioub+7f03vvfDKGos7DYc2IdHvV5vVFp1XEYW3ihx8bkQW4ak/dKlS+sbfe/hkbGyEOCy2z+eZNtVbb3w8t08u11ZpWfZs1lm284pJLbX9XDY7/Z7juNabavl2qVvO45DiJwYugzZaDS2t7c7ra+wz4AZdxZF+fCLg1s3rt954a6OF0dSQFXIuUQqDw4OBoNRGCYEUeD6TuB79YlDZMi5VIAs3/f3bu3dub3nubTmildaBVf16PHjBw++TNNpns24MtAyftJslvI7k3vKfUIEjtKc6iJHUbsklqUImpZlKyFhfWP91s1rnuVEUZK0kzIvrbKA5KKs/v7Z/es3dhthoGK4ibNhU0VhizAL01WR52WZZ0VelUzCM3DS8RwkdFPQyMdGt0qSzovf/DbTv8aHcqtlvL915eYVg2GwtLqU9qoCCBgC6NJzVwRNijHxlNtzkAiC2KIout2joixcy7l67WWVVer4siqLaVWmdbzWDFACbUQhMVJ00peqf3zU7/YAl1AoUcNAqpJ6W4bESoLNcezQtcp07PsB3dDf1ZFVTfDXh/18fa3tSPzMkcyDCoRYP52N4YUwNXiCeYbcc+HDGCBbrdbdu3c3NtdTQoOEouQAJhfUVdV4kj54dExs4LEcNngo5CGnAtOqejaZgCHjtBi4E9QVkExNCaL1VpHOhoNDHSUEwZWorddklI4ISwOm4ItnnGo/OjhQSEuttGp3zr7ScH6SmCpyVLfb3bmyXRTpsH+IcXWtvlTFa7GzHE/Tw+PhLMMsLmKmLOZXAaMPDx6IYrJkUEDHy6e2LfsSVIwcDodbW+tZkQ17x9s7DJKhqMoFoPqo6vZHSRwE/sIEkasJ0vWz0VTgiDaLq3TmqPOgPQU3Jpp7FEXXd3fJP9lkqO4zeNhaCCjTsWaaFg8eHmJnJvSKuVlecDle4Eb+aDRGyUpcgZ5gnnK7wkqI3bm6I0pnxXQ2XQwSQxVM3CRc1XVR573eOEkkqnnVuIWlMHSCrw4fb17eNPEmLWfKMiQRS5olULe2NrGyzKbEALoqmbXEg6hrHCST/6g/cO0W6ZR6RRXcyrF6h8dCbcmLukJg58QuQ6INVrL0s6Vob3TS6SQrybQkMuMQyBIkgeWpxNCqNxy3mw2BElT9s7z+ZEAPDSATt6eWroAEVUmsNjut/rg/mw6DMDFGKJz4CDg1Vhw1mkzJClHoiZUimZj1B0dHdFZDjTDpT5FUc4bk00fSHobu7OykCgk7WKkEKx6hKDNFZGJtWZTjlDUk1yLx5Hjh559/DoD0NsS6gmcAVkPGcQLk88/vTdLBdDwyVosE3EqDOFTAhA5e6iqdzkAldGXzUxZeGD958hUQzBCTPxRujrUC0kQQfZOkwRKYZVPCByjBU1CDJ4+KZwgcj6esnySHLCu8qDWYjcoskxC3ZdBiaoqdKyCpBZXMSehaCJjNJPIKJVOYlGSEFJFUMU/lmRfoHY6nhVia+1Gzmlaj0WTOiwS58Cr/F0GGYTAajdbWOszNqsxlpESocKjiTRISMF2eCN2C/REJfsrGAF/6UemVrGGwoBox8FkRy2ICpOf5QdCELrGSOARWlJUoLeRV0EWWUQhtYLyoZftl1X4VjscTeojrRVdjokzN1ZOElUT6WXW7HaXDLvpbtiMyxY0GSoC1RoBFCY0pGYQ2NLj2uD80XWwzZmHoCl/iSEoYhgxcX18f9B4T9zhLBHEpUwq9oA3bhGHlGSJJxGXlBN5hv0t3xZORJ2UFJLZTtrYu0eny5cuDHlaKmYXlFCJBWsVYMQ4oVQK4+dwV+pk8gZcMjrq1xU5KWRFMGUhZTSwN7XabqU1OyLIR8mT7JWkFEZL8RCo/3OZGix1GE3U528OkJ6sQRZQSXy6ywYWQ5FggcSrzpCJJOSaf1QINyZS588SRIljjSvEEJIxbaUp6SKskVlQoY4yQuhoSX3IymU6nSZIwTyzbtTzfkbwnM7vOGWnzIqZKvAK0iFthQJ45tExZ2CbTclMWasoiG9irIRG2trbOZlyygRVYgef4PgsDJ1cmDHnCKSTcq1yNZm8DvUIzRSYiTehEnpgMxsIAhRiQImF+ISSM4sggCJvNoMhSNwjlmMpgD1GuUK2WWbVX2WxYbfG0RBL0gSskZrUcG/C9KkOFVFJWRyzE0raxsZEkMRSNB4/dRuQ2Qo97GHoBy76P3Q6bek5YxJbwLKcP5VXNtWqOZbMiw3qlQAgXMy+CpAHUGzduJkmz3W71Du4D6ccNN274jYYbhY4f2IEvMYXSECIqOgLF4iHcSnxxXhoPJAFBzZm9wQXhwwAKaY8dAvQ+fvjPMIk4hotXsjx1CFvEFnI2B0/2DLaAKKmlnEdpxuwqLcZYJogS0eJIyoW+RALzhJMCD1maBs2GG/iyrZvMwGU9dmbA2RUdzElBgEjvIl/BSxJQmk5YkXQ7IrYqrxdbaeYJecf3Q7Z6fhh4HP+Loi5KZ+ZycAGpUpdLBgBOZqsECn1Kluo8swpr0B2w2xRu1KEG7WlWxnGMjkkSMVp8L2oik98yG/WH3YPx4ZPJ8WE27hUpK2VaFDO2tHL+tcqMe1b0+wMOvoZY2BIBzsXzkh7CW8Ups0Uy+NNPf1Lk5JPxZDTIJiNatbBMUs7prZvaeWVvMmBLjVO1kPL+p7dUnCn4qtmUiA0C78tPPlq0LGQu3tnu0o0ty6LiVINsNMqn8+0I+yCNHhbUCwq+JHxIeGWZkX+08LOE502sLOAD11qHxVzNPcXjdTDoZZluKs6cFC6EBAMrOfiZMFsGCzyyoFEg1k8fUbSsDRIOD4cc5MkQut48K2INJFYSlYHlSfyZApIWgzCxLOaBNyF2dHmRphNDPTm28LVCs8E8/p4+LzGRb4BXr14lISjK3CyeFxZ5cRBnozRFJz5jngGjBx+27r7ySqcZ0wCefG7ScqKRyjx/w51s2O/du3f//he///OHpvEEbPEqDLP1FDyWHMvjU5YbxWtJfOnq7vfffJNFEJ4QdSL7GZCXL2/v7z//9ts/Pjh48umnn81hAszmCNpoNsMgiNg/NJudZicJ3Li11orDxI+Iu3hzcxM88iW+9ogJQoNPGvZT5yUAfN28fec25/i9vd1OJ9naem5/f58pYdksJ5yh44BPrzjAc5hIMsttVnORawDIwWQtdm6N0A89n47SxiQ9MXnpAeZpJeRYq/vDSb8/Go4mE3JszllaxJLwKOiufxLh+sxSLg+eLQHvBR54jWbc5If1N5DV58KiAmU4zESBn0chsc4KyacXAykrSY2R9IE38yAfjRxqatvzBNLxXeyLIn58KkSVCwG1AVS8AFCjERDrDEg9Xw/V8q0OiWhApS5ikKnmgWjslFeABRcxQqv5CP0UYo02mh4tXRAK+aLOB0HdUkAsO02E6iXA8q9LGWSzqEkpJVFTTxhrq1Y+ExJgg8p2vLD42CkuphK5ItMWoYhWYXLTJnllnKnUmnkTz/8F37ekiUsCeOAAAAAASUVORK5CYII=;fontColor=#EA6B66;spacing=-4;fontSize=12;" vertex="1" parent="1">
          <mxGeometry x="30" y="331.5" width="35.1" height="54.5" as="geometry" />
        </mxCell>
        <mxCell id="uuMYFCACOVy0hHcjNsLC-64" style="edgeStyle=orthogonalEdgeStyle;rounded=0;orthogonalLoop=1;jettySize=auto;html=1;exitX=1;exitY=0.5;exitDx=0;exitDy=0;entryX=0;entryY=0.5;entryDx=0;entryDy=0;strokeColor=#66FF66;dashed=1;strokeWidth=2;" edge="1" parent="1" source="uuMYFCACOVy0hHcjNsLC-65" target="uuMYFCACOVy0hHcjNsLC-67">
          <mxGeometry relative="1" as="geometry" />
        </mxCell>
        <mxCell id="uuMYFCACOVy0hHcjNsLC-65" value="&lt;font color=&quot;#ff3333&quot; style=&quot;font-size: 12px;&quot;&gt;官网&lt;/font&gt;" style="image;html=1;image=img/lib/clip_art/computers/Network_128x128.png;spacing=-4;fontSize=12;" vertex="1" parent="1">
          <mxGeometry x="29.05" y="147.5" width="37" height="39.5" as="geometry" />
        </mxCell>
        <mxCell id="uuMYFCACOVy0hHcjNsLC-66" style="edgeStyle=orthogonalEdgeStyle;rounded=0;orthogonalLoop=1;jettySize=auto;html=1;exitX=1;exitY=0.5;exitDx=0;exitDy=0;entryX=0;entryY=0.5;entryDx=0;entryDy=0;strokeColor=#66FF66;dashed=1;strokeWidth=2;" edge="1" parent="1" source="uuMYFCACOVy0hHcjNsLC-67" target="uuMYFCACOVy0hHcjNsLC-69">
          <mxGeometry relative="1" as="geometry" />
        </mxCell>
        <mxCell id="uuMYFCACOVy0hHcjNsLC-67" value="DDOS" style="shape=image;verticalLabelPosition=bottom;verticalAlign=top;imageAspect=0;aspect=fixed;image=data:image/svg+xml,PHN2ZyB4bWxucz0iaHR0cDovL3d3dy53My5vcmcvMjAwMC9zdmciIHhtbG5zOnhsaW5rPSJodHRwOi8vd3d3LnczLm9yZy8xOTk5L3hsaW5rIiB0PSIxNTc1NDQzMTIwMDE0IiBjbGFzcz0iaWNvbiIgdmlld0JveD0iMCAwIDEwMjQgMTAyNCIgdmVyc2lvbj0iMS4xIiBwLWlkPSI3ODc5MSIgd2lkdGg9IjEyOCIgaGVpZ2h0PSIxMjgiPjxkZWZzPjxzdHlsZSB0eXBlPSJ0ZXh0L2NzcyIvPjwvZGVmcz48cGF0aCBkPSJNMzkyLjcwNCA2OTcuMzQ0aC0yLjA0OHYxNDIuODQ4bDEyMy45MDQgNzIuNzA0IDEyMy45MDQtNzAuNjU2di0xNDQuODk2TDUxNC4wNDggNzY4bC0xMjEuMzQ0LTcwLjY1NnogbS0xMjgtMzUxLjc0NGwxMjMuOTA0LTY4LjA5NnYtMi4wNDhMMjY0LjcwNCAyMDIuNzUyIDE0MC44IDI3Mi44OTZsLTIuMDQ4IDE0Mi44NDggMTIzLjkwNCA3Mi43MDQgMi4wNDgtMTQyLjg0OHogbTQ5Mi41NDQgMGwyLjA0OCAxNDAuOCAyLjA0OCAyLjA0OCAxMjEuODU2LTc0Ljc1Mi0yLjA0OC0xNDIuODQ4LTEyMy45MDQtNjguMDk2LTEyMy45MDQgNzIuNzA0IDEyMy45MDQgNzAuMTQ0eiBtLTEyMS4zNDQtMTgxLjI0OFYxMDYuNDk2TDUxMiAxNzkuMiAzODguMDk2IDEwOC41NDR2NTcuMzQ0bDEyNS45NTIgNzAuMTQ0IDEyMS44NTYtNzEuNjh6TTEwNi40OTYgNTY5LjM0NEwyMzAuNCA2NDIuMDQ4djE0Mi44NDhsNDkuMTUyLTI5LjY5NiAyLjA0OC0xNDIuODQ4LTEyMy45MDQtNzIuNzA0LTUxLjIgMjkuNjk2eiBtNzU5LjgwOC0yMC45OTJMNzQyLjQgNjIwLjU0NGwyLjA0OCAxNDIuODQ4IDQ5LjE1MiAyNy42NDhWNjUwLjI0bDEyMy45MDQtNzIuNzA0LTUxLjItMjkuMTg0eiBtLTM2Ny4xMDQtNTEuMmwtMTc5LjItOTYuMjU2djE4OS45NTJsMTc5LjIgMTA2LjQ5NlY0OTcuMTUyeiIgZmlsbD0iIzAwQzFERSIgcC1pZD0iNzg3OTIiLz48cGF0aCBkPSJNMzI2LjY1NiAzNjcuMTA0bDE4Ny45MDQgMTAwLjM1MiAxODcuOTA0LTk2LjI1Ni0xODkuOTUyLTEwMi40LTE4NS44NTYgOTguMzA0eiBtMjA0LjggMzMwLjI0bDE3OS4yLTk4LjMwNFY0MDAuODk2bC0xNzkuMiA5Ni4yNTZ2MjAwLjE5MnoiIGZpbGw9IiMwMEMxREUiIHAtaWQ9Ijc4NzkzIi8+PC9zdmc+;fontColor=#EA6B66;fontSize=8;spacing=-6;" vertex="1" parent="1">
          <mxGeometry x="147" y="149.25" width="37.5" height="37.5" as="geometry" />
        </mxCell>
        <mxCell id="uuMYFCACOVy0hHcjNsLC-68" style="edgeStyle=orthogonalEdgeStyle;rounded=0;orthogonalLoop=1;jettySize=auto;html=1;exitX=1;exitY=0.5;exitDx=0;exitDy=0;strokeColor=#66FF66;dashed=1;strokeWidth=2;" edge="1" parent="1" source="uuMYFCACOVy0hHcjNsLC-69" target="uuMYFCACOVy0hHcjNsLC-71">
          <mxGeometry relative="1" as="geometry" />
        </mxCell>
        <mxCell id="uuMYFCACOVy0hHcjNsLC-69" value="WAF" style="shape=image;verticalLabelPosition=bottom;verticalAlign=top;imageAspect=0;aspect=fixed;image=data:image/svg+xml,PHN2ZyB4bWxucz0iaHR0cDovL3d3dy53My5vcmcvMjAwMC9zdmciIHhtbG5zOnhsaW5rPSJodHRwOi8vd3d3LnczLm9yZy8xOTk5L3hsaW5rIiB0PSIxNTc1NDQzMTgyMTA2IiBjbGFzcz0iaWNvbiIgdmlld0JveD0iMCAwIDEwMjQgMTAyNCIgdmVyc2lvbj0iMS4xIiBwLWlkPSI3ODk3MyIgd2lkdGg9IjEyOCIgaGVpZ2h0PSIxMjgiPjxkZWZzPjxzdHlsZSB0eXBlPSJ0ZXh0L2NzcyIvPjwvZGVmcz48cGF0aCBkPSJNNzA1LjAyNCAyNzkuMDRsMS4wMjQgNDQuNTQ0YzE0LjMzNiAwLjUxMiAyNS42IDIuNTYgMzguOTEyIDYuMTQ0IDEwLjI0IDE3LjQwOCAyMy41NTIgNDkuMTUyIDMxLjc0NCA5Mi4xNmgtNjkuNjMydjEwLjI0aDcxLjY4YzMuMDcyIDE5Ljk2OCA1LjEyIDQ0LjU0NCA1LjYzMiA3MC4xNDRoLTc3LjMxMnYxMC4yNGg3Ny4zMTJjMCAyMy41NTItMi4wNDggNDYuNTkyLTUuNjMyIDcwLjE0NGgtNzEuNjh2MTAuMjRoNjkuMTJjLTguNzA0IDQzLjAwOC0yMi4wMTYgNzUuMjY0LTMyLjI1NiA5Mi4xNi0xMy4zMTIgMy41ODQtMjQuNTc2IDUuNjMyLTM4LjkxMiA2LjE0NGwtMS4wMjQgNDQuNTQ0YzEyMy4zOTItMy41ODQgMjIxLjE4NC0xMDQuNDQ4IDIyMS4xODQtMjI4Ljg2NCAwLjUxMi0xMjMuMzkyLTk2Ljc2OC0yMjQuMjU2LTIyMC4xNi0yMjcuODR6IG0xNzYuMTI4IDIyMy4yMzJINzk4LjcyYzAtMjMuNTUyLTIuMDQ4LTQ2LjU5Mi01LjYzMi03MC4xNDRIODY1LjI4YzkuNzI4IDIxLjUwNCAxNC44NDggNDYuMDggMTUuODcyIDcwLjE0NHogbS0xMTkuMjk2LTE2Ni45MTJjNDEuNDcyIDE1LjM2IDc1Ljc3NiA0OC42NCA5Ni43NjggODcuMDRoLTY4LjA5NmMtNy4xNjgtMzguOTEyLTE4Ljk0NC02OS42MzItMjguNjcyLTg3LjA0eiBtMCAzNDQuNTc2YzkuNzI4LTE3LjQwOCAyMS41MDQtNDguMTI4IDI5LjE4NC04Ny4wNGg2Ny41ODRjLTIxLjUwNCAzNy44ODgtNTUuMjk2IDcxLjY4LTk2Ljc2OCA4Ny4wNHogbTMxLjIzMi05Ny4yOGMzLjA3Mi0xOS45NjggNS42MzItNDQuMDMyIDUuNjMyLTcwLjE0NGg4Mi45NDRjLTEuMDI0IDI0LjA2NC02LjY1NiA0Ny42MTYtMTYuMzg0IDcwLjE0NGgtNzIuMTkyeiBtLTE0NS40MDggMTAyLjRjMTMuMzEyIDMuNTg0IDMzLjc5MiA1LjYzMiA0OC42NCA2LjE0NHYtOTguMzA0aC04MC4zODRjOC4xOTIgNDMuMDA4IDIxLjUwNCA3NC43NTIgMzEuNzQ0IDkyLjE2eiBtLTM0LjMwNC0xMDIuNEg2OTYuMzJ2LTcwLjE0NGgtODguNTc2YzAuNTEyIDIzLjU1MiAyLjU2IDQ3LjEwNCA1LjYzMiA3MC4xNDR6IG0tNS42MzItODAuMzg0SDY5Ni4zMlY0MzIuNjRoLTgyLjk0NGMtMy41ODQgMjMuMDQtNS42MzIgNDYuMDgtNS42MzIgNjkuNjMyeiBtLTEzOS4yNjQgNS4xMmMwLTEyNS45NTIgMTAzLjkzNi0yMjguMzUyIDIyOS44ODgtMjI4LjM1Mmg2LjE0NFYxMzcuMjE2bC0yOTEuMzI4IDQ1LjU2OHY2NDkuMjE2bDI5MC44MTYgNDUuNTY4IDAuNTEyLTE0MS44MjRoLTYuMTQ0Yy0xMjUuOTUyIDAtMjI5Ljg4OC0xMDEuODg4LTIyOS44ODgtMjI4LjM1MnogbTEyNS40NCA1LjEyaC04MC44OTZjMS4wMjQgMjQuMDY0IDYuNjU2IDQ3LjYxNiAxNi4zODQgNzAuMTQ0aDcwLjE0NGMtMy4wNzItMjMuMDQtNS4xMi00Ni41OTItNS42MzItNzAuMTQ0eiBtMjEuNTA0LTkxLjEzNkg2OTYuMzJWMzIzLjU4NGMtMTQuODQ4IDAuNTEyLTM1LjMyOCAzLjA3Mi00OC42NCA2LjY1Ni0xMC43NTIgMTcuNDA4LTIzLjU1MiA0OC42NC0zMi4yNTYgOTEuMTM2eiBtLTE1Ljg3MiAxMS4yNjRoLTcwLjY1NmMtOS43MjggMjIuMDE2LTE1LjM2IDQ1LjU2OC0xNS44NzIgNzAuMTQ0SDU5My45MmMwLjUxMi0yNi4xMTIgMi41Ni01MC4xNzYgNS42MzItNzAuMTQ0eiBtLTYyLjk3NiAxNjAuMjU2YzIwLjQ4IDM3LjM3NiA1My43NiA3MC42NTYgOTQuNzIgODYuNTI4LTkuNzI4LTE3LjQwOC0yMC45OTItNDcuNjE2LTI4LjY3Mi04Ni41MjhoLTY2LjA0OHogbTk0LjIwOC0yNTcuMDI0Yy00MC40NDggMTUuODcyLTczLjcyOCA0OC4xMjgtOTQuMjA4IDg1LjUwNGg2Ni4wNDhjNy4xNjgtMzguNCAxOC40MzItNjcuNTg0IDI4LjE2LTg1LjUwNHogbS00MzcuMjQ4IDM4Mi45NzZIMjMwLjR2LTM1Ljg0aC0zNy4zNzZsMC41MTIgMzUuODR6IG0tNzIuMTkyIDBoMzQuODE2di0zNS44NGgtMzQuODE2djM1Ljg0eiBtMTU3LjE4NC01Ni4zMmwyMC40OCAyMC40OEgyNjYuMjR2MzUuODRoMzIuNzY4bC0xOC40MzIgMjYuMTEyIDIxLjUwNCAxNS44NzIgNTQuNzg0LTYyLjQ2NC01Ny4zNDQtNTcuMzQ0LTIwLjk5MiAyMS41MDR6TTE5NC41NiA1MDAuNzM2aC0zNi4zNTJ2MzQuMzA0SDE5NC41NnYtMzQuMzA0eiBtLTEwOS4wNTYgMzQuODE2aDM1LjMyOHYtMzQuMzA0aC0zNS4zMjh2MzQuMzA0eiBtMTc3LjY2NC04MC4zODRsNDguMTI4IDQ2LjA4SDIyOC44NjR2MzQuMzA0aDgyLjQzMmwtNDguMTI4IDQ2LjA4IDIwLjk5MiAyMC45OTIgODMuOTY4LTgzLjk2OC04My45NjgtODQuNDgtMjAuOTkyIDIwLjk5MnpNMTk0LjU2IDMxOS40ODhIMTIyLjg4djM2LjM1Mmg3MS42OHYtMzYuMzUyeiBtODcuMDQgNTUuODA4bDIwLjk5MiAyMC45OTJMMzYwLjk2IDMzNy45MiAzMDIuNTkyIDI3OS41NTIgMjgxLjYgMzAwLjU0NGwyMi41MjggMTguOTQ0SDIzMC45MTJ2MzYuMzUyaDcyLjcwNEwyODEuNiAzNzUuMjk2eiIgZmlsbD0iIzAwQzFERSIgcC1pZD0iNzg5NzQiLz48L3N2Zz4=;fontColor=#EA6B66;fontSize=8;spacing=-6;" vertex="1" parent="1">
          <mxGeometry x="250" y="149.25" width="37.5" height="37.5" as="geometry" />
        </mxCell>
        <mxCell id="uuMYFCACOVy0hHcjNsLC-70" style="edgeStyle=orthogonalEdgeStyle;rounded=0;orthogonalLoop=1;jettySize=auto;html=1;exitX=1;exitY=0.5;exitDx=0;exitDy=0;strokeColor=#66FF66;dashed=1;strokeWidth=2;entryX=-0.018;entryY=0.427;entryDx=0;entryDy=0;entryPerimeter=0;" edge="1" parent="1" source="uuMYFCACOVy0hHcjNsLC-71" target="uuMYFCACOVy0hHcjNsLC-28">
          <mxGeometry relative="1" as="geometry">
            <mxPoint x="546" y="175" as="targetPoint" />
          </mxGeometry>
        </mxCell>
        <mxCell id="uuMYFCACOVy0hHcjNsLC-71" value="SLB" style="shape=image;verticalLabelPosition=bottom;verticalAlign=top;imageAspect=0;aspect=fixed;image=data:image/svg+xml,PHN2ZyB4bWxucz0iaHR0cDovL3d3dy53My5vcmcvMjAwMC9zdmciIHhtbG5zOnhsaW5rPSJodHRwOi8vd3d3LnczLm9yZy8xOTk5L3hsaW5rIiB0PSIxNTc1MzYzOTIxMzg4IiBjbGFzcz0iaWNvbiIgdmlld0JveD0iMCAwIDEwMjQgMTAyNCIgdmVyc2lvbj0iMS4xIiBwLWlkPSIzNTkzIiB3aWR0aD0iMTI4IiBoZWlnaHQ9IjEyOCI+PGRlZnM+PHN0eWxlIHR5cGU9InRleHQvY3NzIi8+PC9kZWZzPjxwYXRoIGQ9Ik03NzYuMDQzIDU0OC42M2MtMjQuNzY4IDAuMTA2LTQ4LjEyOCA2LjM3OC02OS4xNDIgMTYuNDY5bC04OS40NS0xMzMuODY3YzMzLjM2NS0yOS43MzkgNTQuNjU2LTcyLjY4MyA1NC40LTEyMC43MDQtMC40MjctODkuMjM3LTczLjE5NS0xNjEuNjIxLTE2Mi40OTYtMTYxLjE5NS04OS4yOCAwLjQyNy0xNjEuNDMgNzMuNDk0LTE2MS4wMjQgMTYyLjYyNCAwLjIxMyA0OC4wNjQgMjEuOTczIDkwLjY4OCA1NS4zODEgMTIwLjI1NmwtODguMDQzIDEzNC42NzhjLTIxLjIwNS05Ljk2My00NC40MzctMTUuOTM2LTY5LjMzMy0xNS44My04OS4xNTIgMC4zNjMtMTYxLjQzIDczLjM2Ni0xNjEuMDAzIDE2Mi42MjQgMC4yOTkgODkuMTUyIDczLjE5NSAxNjEuNDUxIDE2Mi40OTYgMTYwLjk2IDgxLjQ1MS0wLjMyIDE0OC4wNTQtNjEuMjY5IDE1OC44Ny0xMzkuODRsMjEwLjczLTEuMDAyYzExLjQzNSA3OC41MDYgNzguNTkyIDEzOC44NTggMTYwLjEwNyAxMzguNTE3IDg5LjIzNy0wLjQyNyAxNjEuNDMtNzMuMzAxIDE2MS4xMy0xNjIuNTYtMC40NjktODkuMjM3LTczLjQ3MS0xNjEuNTM2LTE2Mi42MjMtMTYxLjEzeiBtLTE1OC44NyAxMzkuODRsLTIxMC43MyAwLjk2YTE2MS4xMyAxNjEuMTMgMCAwIDAtNTIuOTcxLTk3LjZMNDQxLjYgNDU3LjExYzIxLjE0MSA5Ljk2MiA0NC40MzcgMTYuMDQyIDY5LjI3IDE1LjgyOWExNTkuOTU3IDE1OS45NTcgMCAwIDAgNjkuMTYyLTE2LjM4NEw2NjkuNTI1IDU5MC40YTE2MC4zMiAxNjAuMzIgMCAwIDAtNTIuMzUyIDk4LjA3eiIgZmlsbD0iIzAwQzFERSIgcC1pZD0iMzU5NCIvPjwvc3ZnPg==;fontColor=#EA6B66;fontSize=8;spacing=-6;" vertex="1" parent="1">
          <mxGeometry x="380" y="148.5" width="37.5" height="37.5" as="geometry" />
        </mxCell>
        <mxCell id="uuMYFCACOVy0hHcjNsLC-72" value="&lt;font color=&quot;#ea6b66&quot;&gt;&lt;br&gt;&lt;/font&gt;" style="edgeLabel;html=1;align=center;verticalAlign=middle;resizable=0;points=[];" vertex="1" connectable="0" parent="1">
          <mxGeometry x="443" y="24" as="geometry">
            <mxPoint x="494" y="-74" as="offset" />
          </mxGeometry>
        </mxCell>
        <mxCell id="uuMYFCACOVy0hHcjNsLC-73" value="&lt;font color=&quot;#ea6b66&quot;&gt;&lt;br&gt;&lt;/font&gt;" style="edgeLabel;html=1;align=center;verticalAlign=middle;resizable=0;points=[];" vertex="1" connectable="0" parent="1">
          <mxGeometry x="445" y="127.5" as="geometry">
            <mxPoint x="494" y="-74" as="offset" />
          </mxGeometry>
        </mxCell>
        <mxCell id="uuMYFCACOVy0hHcjNsLC-74" value="&lt;font color=&quot;#ea6b66&quot;&gt;&lt;br&gt;&lt;/font&gt;" style="edgeLabel;html=1;align=center;verticalAlign=middle;resizable=0;points=[];" vertex="1" connectable="0" parent="1">
          <mxGeometry x="441" y="125.5" as="geometry">
            <mxPoint x="491" y="-73" as="offset" />
          </mxGeometry>
        </mxCell>
        <mxCell id="uuMYFCACOVy0hHcjNsLC-75" value="&lt;font color=&quot;#ea6b66&quot;&gt;&lt;br&gt;&lt;/font&gt;" style="edgeLabel;html=1;align=center;verticalAlign=middle;resizable=0;points=[];" vertex="1" connectable="0" parent="1">
          <mxGeometry x="443" y="144.5" as="geometry">
            <mxPoint x="494" y="-74" as="offset" />
          </mxGeometry>
        </mxCell>
        <mxCell id="uuMYFCACOVy0hHcjNsLC-76" value="&lt;font color=&quot;#ea6b66&quot;&gt;&lt;br&gt;&lt;/font&gt;" style="edgeLabel;html=1;align=center;verticalAlign=middle;resizable=0;points=[];" vertex="1" connectable="0" parent="1">
          <mxGeometry x="441" y="160.5" as="geometry">
            <mxPoint x="494" y="-74" as="offset" />
          </mxGeometry>
        </mxCell>
        <mxCell id="uuMYFCACOVy0hHcjNsLC-77" value="&lt;font color=&quot;#ea6b66&quot;&gt;&lt;br&gt;&lt;/font&gt;" style="edgeLabel;html=1;align=center;verticalAlign=middle;resizable=0;points=[];" vertex="1" connectable="0" parent="1">
          <mxGeometry x="443" y="259.5" as="geometry">
            <mxPoint x="519" y="-174" as="offset" />
          </mxGeometry>
        </mxCell>
        <mxCell id="uuMYFCACOVy0hHcjNsLC-78" value="&lt;font color=&quot;#ea6b66&quot;&gt;&lt;br&gt;&lt;/font&gt;" style="edgeLabel;html=1;align=center;verticalAlign=middle;resizable=0;points=[];" vertex="1" connectable="0" parent="1">
          <mxGeometry x="434" y="168" as="geometry">
            <mxPoint x="494" y="-74" as="offset" />
          </mxGeometry>
        </mxCell>
        <mxCell id="uuMYFCACOVy0hHcjNsLC-79" value="app-大数据" style="shape=image;verticalLabelPosition=bottom;verticalAlign=top;imageAspect=0;aspect=fixed;image=data:image/svg+xml,PHN2ZyB4bWxucz0iaHR0cDovL3d3dy53My5vcmcvMjAwMC9zdmciIHhtbG5zOnhsaW5rPSJodHRwOi8vd3d3LnczLm9yZy8xOTk5L3hsaW5rIiB0PSIxNTc1MzYyNjYyNzkxIiBjbGFzcz0iaWNvbiIgdmlld0JveD0iMCAwIDEwMjQgMTAyNCIgdmVyc2lvbj0iMS4xIiBwLWlkPSI1NzIwIiB3aWR0aD0iMTI4IiBoZWlnaHQ9IjEyOCI+PGRlZnM+PHN0eWxlIHR5cGU9InRleHQvY3NzIi8+PC9kZWZzPjxwYXRoIGQ9Ik0yNDMuNjI3IDI0My42Mjd2MTU3Ljg2NmwtNTMuMjA2IDI4LjQ4VjE5MC40MjFoMjM4LjQ2NGwtMjguNjcyIDUzLjIwNkgyNDMuNjI3eiBtMCA1MzYuNzQ2aDE1Ni40MzdsMjguNTAxIDUzLjIwNkgxOTAuNDIxVjU5NS4xMTVsNTMuMjA2IDI4LjgyMXYxNTYuNDM3eiBtNTM2Ljc0NiAwVjYyMy42MTZsNTMuMjA2LTI4LjUwMXYyMzguNDY0SDU5NC42NDVsMjguMzUyLTUzLjIwNmgxNTcuMzc2eiBtMC01MzYuNzQ2SDYyMy40NjdsLTI4LjUwMi01My4yMDZIODMzLjU4djIzNy44MjRsLTUzLjIwNi0yOC42NzJWMjQzLjYyN3ogbS0yNDYuMzU3IDY2LjY2NmE0Ny41MyA0Ny41MyAwIDAgMC00NC4wMzItMC4xN2wtMTE3LjgwMyA2Mi4wOEw1MTIgMTA2LjY2N2wxMzkuODE5IDI2NS42ODUtMTE3LjgwMy02Mi4wOHogbTAgNDAzLjQxNGwxMTcuODAzLTYxLjg4OEw1MTIgOTE3LjMzMyAzNzIuMzUyIDY1MS42NDhsMTE3LjgwMyA2Mi4wOGMxMy43NiA3LjI1MyAzMC4wOCA3LjI1MyA0My44NjEgMHogbTE3OS42OS0xNzkuNjkxYTQ3LjUzIDQ3LjUzIDAgMCAwIDAuMTcxLTQ0LjAzMmwtNjIuMDgtMTE3LjgwM0w5MTcuMzMzIDUxMiA2NTEuNjQ4IDY1MS44MTlsNjIuMDgtMTE3LjgwM3ogbS00MDMuNDEzLTQ0LjAzMmE0Ny41MyA0Ny41MyAwIDAgMC0wLjE3IDQ0LjAzMmw2Mi4wOCAxMTcuODAzTDEwNi42NjcgNTEybDI2NS42ODUtMTM5LjgxOS02Mi4wOCAxMTcuODAzeiIgZmlsbD0iIzAwQzFERSIgcC1pZD0iNTcyMSIvPjwvc3ZnPg==;fontColor=#EA6B66;fontSize=8;spacing=-6;" vertex="1" parent="1">
          <mxGeometry x="832.5" y="142.5" width="27.5" height="27.5" as="geometry" />
        </mxCell>
        <mxCell id="uuMYFCACOVy0hHcjNsLC-80" value="&lt;font color=&quot;#ea6b66&quot;&gt;&lt;br&gt;&lt;/font&gt;" style="edgeLabel;html=1;align=center;verticalAlign=middle;resizable=0;points=[];" vertex="1" connectable="0" parent="1">
          <mxGeometry x="431" y="253" as="geometry">
            <mxPoint x="494" y="-74" as="offset" />
          </mxGeometry>
        </mxCell>
        <mxCell id="uuMYFCACOVy0hHcjNsLC-81" value="&lt;font color=&quot;#ea6b66&quot;&gt;&lt;br&gt;&lt;/font&gt;" style="edgeLabel;html=1;align=center;verticalAlign=middle;resizable=0;points=[];" vertex="1" connectable="0" parent="1">
          <mxGeometry x="431" y="275" as="geometry">
            <mxPoint x="494" y="-74" as="offset" />
          </mxGeometry>
        </mxCell>
        <mxCell id="uuMYFCACOVy0hHcjNsLC-82" value="app-积分业务" style="shape=image;verticalLabelPosition=bottom;verticalAlign=top;imageAspect=0;aspect=fixed;image=data:image/svg+xml,PHN2ZyB4bWxucz0iaHR0cDovL3d3dy53My5vcmcvMjAwMC9zdmciIHhtbG5zOnhsaW5rPSJodHRwOi8vd3d3LnczLm9yZy8xOTk5L3hsaW5rIiB0PSIxNTc1MzYyMzg1MjIyIiBjbGFzcz0iaWNvbiIgdmlld0JveD0iMCAwIDExOTIgMTAyNCIgdmVyc2lvbj0iMS4xIiBwLWlkPSI0OTE2IiB3aWR0aD0iMTQ5IiBoZWlnaHQ9IjEyOCI+PGRlZnM+PHN0eWxlIHR5cGU9InRleHQvY3NzIi8+PC9kZWZzPjxwYXRoIGQ9Ik04MDAgMTU3Ljg2NjY2N2wtMTMwLjEzMzMzMyA3NC42NjY2NjYtMTU3Ljg2NjY2Ny04OS42LTE1Ny44NjY2NjcgODkuNi0xMzAuMTMzMzMzLTc0LjY2NjY2Ni0xNDIuOTMzMzMzIDgzLjJoLTIuMTMzMzM0djE2Ni40bDExMC45MzMzMzQgNjR2MjI0bDMyMCAxODMuNDY2NjY2IDMyMC0xODMuNDY2NjY2aDIuMTMzMzMzVjQ2OS4zMzMzMzNsMTA4LjgtNjR2LTE2Ni40bC0xNDAuOC04MS4wNjY2NjZ6IG04OS42IDIxNy42bC0xMTAuOTMzMzMzIDY0djIyNGwtMjY0LjUzMzMzNCAxNTEuNDY2NjY2LTI2NC41MzMzMzMtMTUzLjZ2LTIyNGwtMTEwLjkzMzMzMy02NHYtMTAyLjRsODcuNDY2NjY2LTUxLjIgODcuNDY2NjY3IDUxLjJ2NDYuOTMzMzM0bDE5OC40LTExNS4yIDE5OC40IDExNS4ydi00Ni45MzMzMzRsODcuNDY2NjY3LTUxLjIgODcuNDY2NjY2IDUxLjJ2MTA0LjUzMzMzNHoiIGZpbGw9IiMwMEMxREUiIHAtaWQ9IjQ5MTciLz48cGF0aCBkPSJNMzY2LjkzMzMzMyA0NjcuMnY2NGwxMTcuMzMzMzM0IDY4LjI2NjY2N3Y2OC4yNjY2NjZoNTUuNDY2NjY2di03Mi41MzMzMzNsMTIxLjYtNzAuNHYtNjRsLTE1MS40NjY2NjYgODcuNDY2NjY3eiIgZmlsbD0iIzAwQzFERSIgcC1pZD0iNDkxOCIvPjwvc3ZnPg==;fontColor=#EA6B66;fontSize=8;spacing=-6;" vertex="1" parent="1">
          <mxGeometry x="845.9000000000001" y="210.5" width="29.1" height="25" as="geometry" />
        </mxCell>
        <mxCell id="uuMYFCACOVy0hHcjNsLC-83" value="&lt;font color=&quot;#ea6b66&quot;&gt;&lt;br&gt;&lt;/font&gt;" style="edgeLabel;html=1;align=center;verticalAlign=middle;resizable=0;points=[];" vertex="1" connectable="0" parent="1">
          <mxGeometry x="418" y="352" as="geometry">
            <mxPoint x="494" y="-74" as="offset" />
          </mxGeometry>
        </mxCell>
        <mxCell id="uuMYFCACOVy0hHcjNsLC-84" value="大数据" style="shape=image;verticalLabelPosition=bottom;verticalAlign=top;imageAspect=0;aspect=fixed;image=data:image/svg+xml,PHN2ZyB4bWxucz0iaHR0cDovL3d3dy53My5vcmcvMjAwMC9zdmciIHhtbG5zOnhsaW5rPSJodHRwOi8vd3d3LnczLm9yZy8xOTk5L3hsaW5rIiB0PSIxNTc1MzYzNDI0OTAyIiBjbGFzcz0iaWNvbiIgdmlld0JveD0iMCAwIDEwMjQgMTAyNCIgdmVyc2lvbj0iMS4xIiBwLWlkPSI1OTg2IiB3aWR0aD0iMTI4IiBoZWlnaHQ9IjEyOCI+PGRlZnM+PHN0eWxlIHR5cGU9InRleHQvY3NzIi8+PC9kZWZzPjxwYXRoIGQ9Ik03OTAuNTcgODAwLjUxMmMwLTE1LjcwMSAxMi42NzMtMjguNTAxIDI4LjI2Ny0yOC41MDEgMTUuNTc0IDAgMjguMjQ2IDEyLjggMjguMjQ2IDI4LjUwMSAwIDE1LjcyMy0xMi42NzIgMjguNTAxLTI4LjI0NiAyOC41MDEtMTUuNTk0IDAtMjguMjY2LTEyLjgtMjguMjY2LTI4LjUwMW0xMTMuMjggMGMwLTQ3LjE0Ny0zOC4yOTQtODUuNDgzLTg1LjAxNC04NS40ODMtMzQuMTMzIDAtNTQuNjc3IDEzLjM5OC02OS4wOTggMzguMTg3LTI2LjI0LTE0LjUyOC0yOS42NTQtODIuOTAxLTMxLjI1NC0xMjguODFWNDM3LjU2N2E4Ni41NyA4Ni41NyAwIDAgMCA1OS4xNTgtODIuMzA0YzAtNDcuODUtMzguNDQzLTg2LjYzNS04NS45MS04Ni42MzUtNDcuNDQ1IDAtODUuOTA5IDM4Ljc4NC04NS45MDkgODYuNjE0YTg2LjU3IDg2LjU3IDAgMCAwIDU4LjI4MyA4MS45ODR2MTg3LjE3OGMxLjc3IDkyLjA1NCA2LjAxNiAxNTYuOTkyIDczLjY0MiAxOTkuNjU5IDkuMzg3IDM2LjkwNyA0Mi4xNzYgNjEuOTMgODEuNjQzIDYxLjkzIDQ2LjcyIDAgODQuNDgtMzguMzM1IDg0LjQ4LTg1LjQ4Mk01MDcuMzcxIDIyMS4wMTNjLTE2Ljg1NCAwLTMwLjUwNy0xMy43ODEtMzAuNTA3LTMwLjc2MiAwLTE2Ljk2IDEzLjY1My0zMC43NDIgMzAuNTA3LTMwLjc0MiAxNi44NTMgMCAzMC41MDYgMTMuNzgyIDMwLjUwNiAzMC43NDIgMCAxNi45ODEtMTMuNjUzIDMwLjc2Mi0zMC41MDYgMzAuNzYybTMwLjY1NiA0OTQuMTAydi00MzguNGMyNy44ODItMTIuMDU0IDU3LjYtNDQuMzk1IDU3LjYtODIuNDU0IDAtNDguMzQxLTM5LjMzOS04Ny41OTQtODcuMjMyLTg3LjU5NHMtODUuOTEgMzkuMjc0LTg1LjkxIDg3LjU5NGMwIDM4LjA1OSAxNy45NjMgNzAuNCA1OS43NzYgODIuNDU0djQzOC40Yy00MS44MTMgMTIuMDUzLTU5LjU4NCA0NC40MTYtNTkuNTg0IDgyLjQ3NCAwIDQ4LjI5OSAzNy4yNyA4Ny41OTUgODUuMTg0IDg3LjU5NSA0Ny44NzIgMCA4Ny4yNTQtMzkuMjk2IDg3LjI1NC04Ny41OTUgMC0zOC4wNTgtMjkuMjI3LTcwLjQtNTcuMTEtODIuNDc0IiBmaWxsPSIjMDBDMURFIiBwLWlkPSI1OTg3Ii8+PHBhdGggZD0iTTIxMy4wMzUgODI5LjAxM2MtMTUuNTc0IDAtMjguMjQ2LTEyLjgtMjguMjQ2LTI4LjUwMXMxMi42NzItMjguNDggMjguMjQ2LTI4LjQ4YzE1LjU3MyAwIDI4LjI2NiAxMi43NzkgMjguMjY2IDI4LjQ4cy0xMi42OTMgMjguNTAxLTI4LjI2NiAyOC41MDFtLTAuNTM0IDU2Ljk2YzM5LjQ2NyAwIDcyLjIzNS0yNS4wMjQgODEuNjIyLTYxLjkwOSA2Ny42MjYtNDIuNjY3IDcxLjg3Mi0xMDcuNjA1IDczLjY2NC0xOTkuNjM3di0xODcuMmE4Ni41MDcgODYuNTA3IDAgMCAwIDU4LjI0LTgxLjk2M2MwLTQ3Ljg1LTM4LjQ0My04Ni42MTMtODUuOTEtODYuNjEzLTQ3LjQyNCAwLTg1LjkwOSAzOC43NjItODUuOTA5IDg2LjYxMyAwIDM4LjQgMjQuODMyIDcwLjk1NSA1OS4xNTcgODIuMjgzdjE4Ni44OGMtMS41NzggNDUuOTA5LTQuOTcgMTE0LjI0LTMxLjI1MyAxMjguNzY4LTE0LjQtMjQuNzY4LTM0LjkyMy0zOC4xNDQtNjkuMDc3LTM4LjE0NC00Ni43MiAwLTg1LjAzNSAzOC4zMzYtODUuMDM1IDg1LjQ2MSAwIDQ3LjE0NyAzNy43NiA4NS40ODMgODQuNDggODUuNDgzIiBmaWxsPSIjMDBDMURFIiBwLWlkPSI1OTg4Ii8+PC9zdmc+;fontColor=#EA6B66;spacing=-6;fontSize=8;" vertex="1" parent="1">
          <mxGeometry x="827" y="246" width="27" height="27" as="geometry" />
        </mxCell>
        <mxCell id="uuMYFCACOVy0hHcjNsLC-85" value="app-ToC业务" style="shape=image;verticalLabelPosition=bottom;verticalAlign=top;imageAspect=0;aspect=fixed;image=data:image/svg+xml,PHN2ZyB4bWxucz0iaHR0cDovL3d3dy53My5vcmcvMjAwMC9zdmciIHhtbG5zOnhsaW5rPSJodHRwOi8vd3d3LnczLm9yZy8xOTk5L3hsaW5rIiB0PSIxNTc1NDQwMjIzOTg1IiBjbGFzcz0iaWNvbiIgdmlld0JveD0iMCAwIDEwMjQgMTAyNCIgdmVyc2lvbj0iMS4xIiBwLWlkPSI3MDI0NSIgd2lkdGg9IjEyOCIgaGVpZ2h0PSIxMjgiPjxkZWZzPjxzdHlsZSB0eXBlPSJ0ZXh0L2NzcyIvPjwvZGVmcz48cGF0aCBkPSJNNTE3LjM5NyAxNDkuMzMzYzkzLjg2NyAwIDE2OS45NjMgNzEuNTEgMTY5Ljk2MyAxNTkuNzIzYTE1MS4zMzkgMTUxLjMzOSAwIDAgMS0xOS4wMyA3My40M2wxMzcuNTU4IDEwMC4zM2ExMDguODIxIDEwOC44MjEgMCAwIDEgNjAuMTYtMTcuOTJjNTcuODM1IDAgMTA0Ljc0NyA0NC4wNzUgMTA0Ljc0NyA5OC40MzJzLTQ2LjkxMiA5OC40MS0xMDQuNzQ3IDk4LjQxYy01Ny44MTMgMC0xMDQuNzQ3LTQ0LjA1My0xMDQuNzQ3LTk4LjQxIDAtMTIuMjQ1IDIuNDMyLTIzLjk3OSA2Ljc4NC0zNC44MTZMNjMwLjUyOCA0MjguMjI0YTE3My44NjcgMTczLjg2NyAwIDAgMS04Mi4zNDcgMzcuODY3djE1My4yOGM2MS4xNjMgMTMuMTQxIDEwNi43OTUgNjQuNTU0IDEwNi43OTUgMTI2LjAxNiAwIDcxLjM4MS02MS42MSAxMjkuMjgtMTM3LjYgMTI5LjI4LTc1Ljk2OCAwLTEzNy41NTctNTcuODk5LTEzNy41NTctMTI5LjI4IDAtNjEuNDQgNDUuNjEtMTEyLjg1NCAxMDYuNzczLTEyNi4wMTZWNDY2LjA5YTE3My44MjQgMTczLjgyNCAwIDAgMS04Mi4zNDctMzcuODY3TDI2Ni42ODggNTI4LjUxMmM0LjM1MiAxMC44MzcgNi43NjMgMjIuNTcgNi43NjMgMzQuODE2IDAgNTQuMzU3LTQ2Ljg5MSA5OC40MS0xMDQuNzI2IDk4LjQxLTU3LjgxMyAwLTEwNC43MjUtNDQuMDUzLTEwNC43MjUtOTguNDFzNDYuODktOTguNDEgMTA0LjcyNS05OC40MWMyMi40IDAgNDMuMTM2IDYuNjEzIDYwLjE2IDE3Ljg5OGwxMzcuNTU4LTEwMC4zM2ExNTEuNDY3IDE1MS40NjcgMCAwIDEtMTkuMDMtNzMuNDNjMC04OC4yMTMgNzYuMTE4LTE1OS43MjMgMTY5Ljk4NC0xNTkuNzIzeiIgZmlsbD0iIzAwQzFERSIgcC1pZD0iNzAyNDYiLz48L3N2Zz4=;fontColor=#EA6B66;spacing=-6;fontSize=8;" vertex="1" parent="1">
          <mxGeometry x="826.5" y="299" width="27" height="27" as="geometry" />
        </mxCell>
        <mxCell id="uuMYFCACOVy0hHcjNsLC-86" value="核心服务" style="shape=image;verticalLabelPosition=bottom;verticalAlign=top;imageAspect=0;aspect=fixed;image=data:image/svg+xml,PHN2ZyB4bWxucz0iaHR0cDovL3d3dy53My5vcmcvMjAwMC9zdmciIHhtbG5zOnhsaW5rPSJodHRwOi8vd3d3LnczLm9yZy8xOTk5L3hsaW5rIiB0PSIxNTc1MzYzMjkzODUxIiBjbGFzcz0iaWNvbiIgdmlld0JveD0iMCAwIDEwMjQgMTAyNCIgdmVyc2lvbj0iMS4xIiBwLWlkPSI2MDc5IiB3aWR0aD0iMTI4IiBoZWlnaHQ9IjEyOCI+PGRlZnM+PHN0eWxlIHR5cGU9InRleHQvY3NzIi8+PC9kZWZzPjxwYXRoIGQ9Ik0yODEuNiA1MzEuMmMtMTAuNjY2NjY3IDAtMTkuMi04LjUzMzMzMy0xOS4yLTE5LjJzOC41MzMzMzMtMTkuMiAxOS4yLTE5LjIgMTkuMiA4LjUzMzMzMyAxOS4yIDE5LjItNi40IDE5LjItMTkuMiAxOS4yeiBtLTg3LjQ2NjY2NyAxNjguNTMzMzMzdi0zNDkuODY2NjY2bDE4OS44NjY2NjcgMTEwLjkzMzMzM3YyMTEuMmMwIDI1LjYtMTkuMiA0NC44LTQ0LjggNDQuOC0yNS42IDAtNDQuOC0xOS4yLTQ0LjgtNDQuOHYtMTEwLjkzMzMzM2MyMS4zMzMzMzMtNi40IDM2LjI2NjY2Ny0yNS42IDM2LjI2NjY2Ny00Ni45MzMzMzQgMC0yNy43MzMzMzMtMjMuNDY2NjY3LTUxLjItNTEuMi01MS4yLTI3LjczMzMzMyAwLTQ2LjkzMzMzMyAyMy40NjY2NjctNDYuOTMzMzM0IDUxLjIgMCAyMy40NjY2NjcgMTQuOTMzMzMzIDQwLjUzMzMzMyAzNi4yNjY2NjcgNDYuOTMzMzM0djExMC45MzMzMzNjMCA0MC41MzMzMzMgMzQuMTMzMzMzIDc0LjY2NjY2NyA3NC42NjY2NjcgNzQuNjY2NjY3czc0LjY2NjY2Ny0zNC4xMzMzMzMgNzQuNjY2NjY2LTc0LjY2NjY2N3YtMzIwYzAtMjUuNiAxOS4yLTQ0LjggNDQuOC00NC44IDI1LjYgMCA0NC44IDE5LjIgNDQuOCA0NC44djMyMGMwIDQwLjUzMzMzMyAzNC4xMzMzMzMgNzQuNjY2NjY3IDc0LjY2NjY2NyA3NC42NjY2NjdzNzQuNjY2NjY3LTM0LjEzMzMzMyA3NC42NjY2NjctNzQuNjY2NjY3di01Ny42bDE2OC41MzMzMzMgOTguMTMzMzMzLTMwMi45MzMzMzMgMTc0LjkzMzMzNC0zMjguNTMzMzM0LTE4Ny43MzMzMzR6IG01NjEuMDY2NjY3LTIwNi45MzMzMzNjMTAuNjY2NjY3IDAgMTkuMiA4LjUzMzMzMyAxOS4yIDE5LjJzLTguNTMzMzMzIDE5LjItMTkuMiAxOS4yLTE5LjItOC41MzMzMzMtMTkuMi0xOS4yIDguNTMzMzMzLTE5LjIgMTkuMi0xOS4yeiBtODkuNi0xNzAuNjY2NjY3djM0OS44NjY2NjdsLTE4OS44NjY2NjctMTEwLjkzMzMzM3YtMjExLjJjMC0yNS42IDE5LjItNDQuOCA0NC44LTQ0LjhzNDQuOCAxOS4yIDQ0LjggNDQuOHYxMTAuOTMzMzMzYy0yMS4zMzMzMzMgNi40LTM2LjI2NjY2NyAyNS42LTM2LjI2NjY2NiA0Ni45MzMzMzMgMCAyNy43MzMzMzMgMjMuNDY2NjY3IDUxLjIgNTEuMiA1MS4yIDI3LjczMzMzMyAwIDUxLjItMjMuNDY2NjY3IDUxLjItNTEuMiAwLTIzLjQ2NjY2Ny0xNC45MzMzMzMtNDAuNTMzMzMzLTM2LjI2NjY2Ny00Ni45MzMzMzN2LTExMC45MzMzMzNjMC00MC41MzMzMzMtMzQuMTMzMzMzLTc0LjY2NjY2Ny03NC42NjY2NjctNzQuNjY2NjY3cy03NC42NjY2NjcgMzQuMTMzMzMzLTc0LjY2NjY2NiA3NC42NjY2Njd2MzIwYzAgMjUuNi0xOS4yIDQ0LjgtNDQuOCA0NC44cy00NC44LTE5LjItNDQuOC00NC44di0zMjBjMC00MC41MzMzMzMtMzQuMTMzMzMzLTc0LjY2NjY2Ny03NC42NjY2NjctNzQuNjY2NjY3cy03NC42NjY2NjcgMzQuMTMzMzMzLTc0LjY2NjY2NyA3NC42NjY2Njd2NTcuNmwtMTcwLjY2NjY2Ni05OC4xMzMzMzQgMzAyLjkzMzMzMy0xNzQuOTMzMzMzIDMyNi40IDE4Ny43MzMzMzN6IG0tMzI2LjQtMjM2LjhsLTM2OS4wNjY2NjcgMjEzLjMzMzMzNHY0MjYuNjY2NjY2bDM2OS4wNjY2NjcgMjEzLjMzMzMzNCAzNjkuMDY2NjY3LTIxMy4zMzMzMzR2LTQyNi42NjY2NjZsLTM2OS4wNjY2NjctMjEzLjMzMzMzNHoiIGZpbGw9IiMwMEMxREUiIHAtaWQ9IjYwODAiLz48L3N2Zz4=;fillColor=none;fontColor=#EA6B66;fontSize=8;spacing=-6;" vertex="1" parent="1">
          <mxGeometry x="837" y="386" width="27" height="27" as="geometry" />
        </mxCell>
        <mxCell id="uuMYFCACOVy0hHcjNsLC-87" value="" style="sketch=0;html=1;dashed=0;whitespace=wrap;fillColor=#2875E2;strokeColor=#ffffff;points=[[0.005,0.63,0],[0.1,0.2,0],[0.9,0.2,0],[0.5,0,0],[0.995,0.63,0],[0.72,0.99,0],[0.5,1,0],[0.28,0.99,0]];shape=mxgraph.kubernetes.icon;prIcon=node" vertex="1" parent="1">
          <mxGeometry x="560.5" y="24" width="27.5" height="34" as="geometry" />
        </mxCell>
        <mxCell id="uuMYFCACOVy0hHcjNsLC-88" value="" style="sketch=0;html=1;dashed=0;whitespace=wrap;fillColor=#2875E2;strokeColor=#ffffff;points=[[0.005,0.63,0],[0.1,0.2,0],[0.9,0.2,0],[0.5,0,0],[0.995,0.63,0],[0.72,0.99,0],[0.5,1,0],[0.28,0.99,0]];shape=mxgraph.kubernetes.icon;prIcon=node" vertex="1" parent="1">
          <mxGeometry x="597.5" y="24" width="27.5" height="34" as="geometry" />
        </mxCell>
        <mxCell id="uuMYFCACOVy0hHcjNsLC-89" value="" style="sketch=0;html=1;dashed=0;whitespace=wrap;fillColor=#2875E2;strokeColor=#ffffff;points=[[0.005,0.63,0],[0.1,0.2,0],[0.9,0.2,0],[0.5,0,0],[0.995,0.63,0],[0.72,0.99,0],[0.5,1,0],[0.28,0.99,0]];shape=mxgraph.kubernetes.icon;prIcon=node" vertex="1" parent="1">
          <mxGeometry x="633.5" y="24" width="27.5" height="34" as="geometry" />
        </mxCell>
        <mxCell id="uuMYFCACOVy0hHcjNsLC-90" value="" style="group;movable=1;resizable=1;rotatable=1;deletable=1;editable=1;locked=0;connectable=1;" vertex="1" connectable="0" parent="1">
          <mxGeometry x="548" y="437" width="132" height="97.5" as="geometry" />
        </mxCell>
        <mxCell id="uuMYFCACOVy0hHcjNsLC-91" value="&lt;font color=&quot;#ea6b66&quot;&gt;ECS集群&lt;/font&gt;" style="text;html=1;resizable=0;autosize=1;align=center;verticalAlign=middle;points=[];fillColor=none;strokeColor=none;rounded=0;movable=0;rotatable=0;deletable=0;editable=0;locked=1;connectable=0;" vertex="1" parent="uuMYFCACOVy0hHcjNsLC-90">
          <mxGeometry x="11" width="67" height="26" as="geometry" />
        </mxCell>
        <mxCell id="uuMYFCACOVy0hHcjNsLC-92" value="" style="whiteSpace=wrap;html=1;fillColor=none;dashed=1;strokeColor=#FF9933;" vertex="1" parent="uuMYFCACOVy0hHcjNsLC-90">
          <mxGeometry x="15" y="3" width="111" height="87" as="geometry" />
        </mxCell>
        <mxCell id="uuMYFCACOVy0hHcjNsLC-93" value="" style="shape=image;verticalLabelPosition=bottom;verticalAlign=top;imageAspect=0;aspect=fixed;image=data:image/svg+xml,PHN2ZyB4bWxucz0iaHR0cDovL3d3dy53My5vcmcvMjAwMC9zdmciIHhtbG5zOnhsaW5rPSJodHRwOi8vd3d3LnczLm9yZy8xOTk5L3hsaW5rIiB0PSIxNTc1MzUzNzE2OTQwIiBjbGFzcz0iaWNvbiIgdmlld0JveD0iMCAwIDEwMjQgMTAyNCIgdmVyc2lvbj0iMS4xIiBwLWlkPSIzMzI3IiB3aWR0aD0iMTI4IiBoZWlnaHQ9IjEyOCI+PGRlZnM+PHN0eWxlIHR5cGU9InRleHQvY3NzIi8+PC9kZWZzPjxwYXRoIGQ9Ik04NjQuNjYxIDkwMy41M0gxODAuNjA4Yy00MC44NTMgMC03My45NDEtMjkuNTY3LTczLjk0MS03MC41MDZ2LTgyLjAyN2MwLTQwLjg1MyAzMy4wODgtNzAuNDQyIDczLjk0MS03MC40NDJoNjg0LjA3NWM0MC44NTMgMCA3My45ODQgMjkuNTg5IDczLjk4NCA3MC40NDJ2ODIuMDI3Yy0wLjAyMiA0MC45MzktMzMuMTMxIDcwLjUwNy03NC4wMDYgNzAuNTA3eiBtLTgyLjYyNC0xNjQuOTlhNTMuNTQ3IDUzLjU0NyAwIDAgMC01My41NDYgNTMuNDgyIDUzLjU5IDUzLjU5IDAgMCAwIDUzLjU0NiA1My41NDcgNTMuNTI1IDUzLjUyNSAwIDAgMCAwLTEwNy4wMDh6IG04Mi42MjQtMTExLjMxOEgxODAuNjA4Yy00MC44NTMtMC4wMjEtNzMuOTQxLTI5LjU2OC03My45NDEtNzAuNDQydi04Mi4wN2MwLTQwLjg1MyAzMy4wODgtNzAuNDQyIDczLjk0MS03MC40NDJoNjg0LjA3NWM0MC44NTMgMCA3My45ODQgMjkuNTQ2IDczLjk4NCA3MC40NDJ2ODIuMDdjLTAuMDIyIDQwLjg3NC0zMy4xMzEgNzAuNDQyLTc0LjAwNiA3MC40NDJ6TTc4Mi4wMzcgNDYyLjIzYTUzLjYxIDUzLjYxIDAgMCAwLTUzLjU0NiA1My42MTEgNTMuNjUzIDUzLjY1MyAwIDAgMCA1My41NDYgNTMuNTQ3IDUzLjU5IDUzLjU5IDAgMSAwIDAtMTA3LjE3OXogbTgyLjYyNC0xMTEuMTA0SDE4MC42MDhjLTQwLjg1MyAwLTczLjk0MS0yOS42OTYtNzMuOTQxLTcwLjUyOHYtODEuOTg0YzAtNDAuOTE3IDMzLjA4OC03MC42MTMgNzMuOTQxLTcwLjYxM2g2ODQuMDc1YzQwLjg1MyAwIDczLjk4NCAyOS42OTYgNzMuOTg0IDcwLjYzNXY4MS45ODRjLTAuMDIyIDQwLjgxLTMzLjEzMSA3MC41MDYtNzQuMDA2IDcwLjUwNnpNNzgyLjAzNyAxODYuMDdhNTMuNTkgNTMuNTkgMCAwIDAtNTMuNTQ2IDUzLjU0NyA1My41NDcgNTMuNTQ3IDAgMCAwIDEwNy4wOTMgMCA1My41NDcgNTMuNTQ3IDAgMCAwLTUzLjU0Ny01My41NDd6IiBmaWxsPSIjMDBDMURFIiBwLWlkPSIzMzI4Ii8+PC9zdmc+" vertex="1" parent="uuMYFCACOVy0hHcjNsLC-90">
          <mxGeometry x="19" y="22" width="32" height="32" as="geometry" />
        </mxCell>
        <mxCell id="uuMYFCACOVy0hHcjNsLC-94" value="" style="shape=image;verticalLabelPosition=bottom;verticalAlign=top;imageAspect=0;aspect=fixed;image=data:image/svg+xml,PHN2ZyB4bWxucz0iaHR0cDovL3d3dy53My5vcmcvMjAwMC9zdmciIHhtbG5zOnhsaW5rPSJodHRwOi8vd3d3LnczLm9yZy8xOTk5L3hsaW5rIiB0PSIxNTc1MzUzNzE2OTQwIiBjbGFzcz0iaWNvbiIgdmlld0JveD0iMCAwIDEwMjQgMTAyNCIgdmVyc2lvbj0iMS4xIiBwLWlkPSIzMzI3IiB3aWR0aD0iMTI4IiBoZWlnaHQ9IjEyOCI+PGRlZnM+PHN0eWxlIHR5cGU9InRleHQvY3NzIi8+PC9kZWZzPjxwYXRoIGQ9Ik04NjQuNjYxIDkwMy41M0gxODAuNjA4Yy00MC44NTMgMC03My45NDEtMjkuNTY3LTczLjk0MS03MC41MDZ2LTgyLjAyN2MwLTQwLjg1MyAzMy4wODgtNzAuNDQyIDczLjk0MS03MC40NDJoNjg0LjA3NWM0MC44NTMgMCA3My45ODQgMjkuNTg5IDczLjk4NCA3MC40NDJ2ODIuMDI3Yy0wLjAyMiA0MC45MzktMzMuMTMxIDcwLjUwNy03NC4wMDYgNzAuNTA3eiBtLTgyLjYyNC0xNjQuOTlhNTMuNTQ3IDUzLjU0NyAwIDAgMC01My41NDYgNTMuNDgyIDUzLjU5IDUzLjU5IDAgMCAwIDUzLjU0NiA1My41NDcgNTMuNTI1IDUzLjUyNSAwIDAgMCAwLTEwNy4wMDh6IG04Mi42MjQtMTExLjMxOEgxODAuNjA4Yy00MC44NTMtMC4wMjEtNzMuOTQxLTI5LjU2OC03My45NDEtNzAuNDQydi04Mi4wN2MwLTQwLjg1MyAzMy4wODgtNzAuNDQyIDczLjk0MS03MC40NDJoNjg0LjA3NWM0MC44NTMgMCA3My45ODQgMjkuNTQ2IDczLjk4NCA3MC40NDJ2ODIuMDdjLTAuMDIyIDQwLjg3NC0zMy4xMzEgNzAuNDQyLTc0LjAwNiA3MC40NDJ6TTc4Mi4wMzcgNDYyLjIzYTUzLjYxIDUzLjYxIDAgMCAwLTUzLjU0NiA1My42MTEgNTMuNjUzIDUzLjY1MyAwIDAgMCA1My41NDYgNTMuNTQ3IDUzLjU5IDUzLjU5IDAgMSAwIDAtMTA3LjE3OXogbTgyLjYyNC0xMTEuMTA0SDE4MC42MDhjLTQwLjg1MyAwLTczLjk0MS0yOS42OTYtNzMuOTQxLTcwLjUyOHYtODEuOTg0YzAtNDAuOTE3IDMzLjA4OC03MC42MTMgNzMuOTQxLTcwLjYxM2g2ODQuMDc1YzQwLjg1MyAwIDczLjk4NCAyOS42OTYgNzMuOTg0IDcwLjYzNXY4MS45ODRjLTAuMDIyIDQwLjgxLTMzLjEzMSA3MC41MDYtNzQuMDA2IDcwLjUwNnpNNzgyLjAzNyAxODYuMDdhNTMuNTkgNTMuNTkgMCAwIDAtNTMuNTQ2IDUzLjU0NyA1My41NDcgNTMuNTQ3IDAgMCAwIDEwNy4wOTMgMCA1My41NDcgNTMuNTQ3IDAgMCAwLTUzLjU0Ny01My41NDd6IiBmaWxsPSIjMDBDMURFIiBwLWlkPSIzMzI4Ii8+PC9zdmc+" vertex="1" parent="uuMYFCACOVy0hHcjNsLC-90">
          <mxGeometry x="56" y="22" width="32" height="32" as="geometry" />
        </mxCell>
        <mxCell id="uuMYFCACOVy0hHcjNsLC-95" value="" style="shape=image;verticalLabelPosition=bottom;verticalAlign=top;imageAspect=0;aspect=fixed;image=data:image/svg+xml,PHN2ZyB4bWxucz0iaHR0cDovL3d3dy53My5vcmcvMjAwMC9zdmciIHhtbG5zOnhsaW5rPSJodHRwOi8vd3d3LnczLm9yZy8xOTk5L3hsaW5rIiB0PSIxNTc1MzUzNzE2OTQwIiBjbGFzcz0iaWNvbiIgdmlld0JveD0iMCAwIDEwMjQgMTAyNCIgdmVyc2lvbj0iMS4xIiBwLWlkPSIzMzI3IiB3aWR0aD0iMTI4IiBoZWlnaHQ9IjEyOCI+PGRlZnM+PHN0eWxlIHR5cGU9InRleHQvY3NzIi8+PC9kZWZzPjxwYXRoIGQ9Ik04NjQuNjYxIDkwMy41M0gxODAuNjA4Yy00MC44NTMgMC03My45NDEtMjkuNTY3LTczLjk0MS03MC41MDZ2LTgyLjAyN2MwLTQwLjg1MyAzMy4wODgtNzAuNDQyIDczLjk0MS03MC40NDJoNjg0LjA3NWM0MC44NTMgMCA3My45ODQgMjkuNTg5IDczLjk4NCA3MC40NDJ2ODIuMDI3Yy0wLjAyMiA0MC45MzktMzMuMTMxIDcwLjUwNy03NC4wMDYgNzAuNTA3eiBtLTgyLjYyNC0xNjQuOTlhNTMuNTQ3IDUzLjU0NyAwIDAgMC01My41NDYgNTMuNDgyIDUzLjU5IDUzLjU5IDAgMCAwIDUzLjU0NiA1My41NDcgNTMuNTI1IDUzLjUyNSAwIDAgMCAwLTEwNy4wMDh6IG04Mi42MjQtMTExLjMxOEgxODAuNjA4Yy00MC44NTMtMC4wMjEtNzMuOTQxLTI5LjU2OC03My45NDEtNzAuNDQydi04Mi4wN2MwLTQwLjg1MyAzMy4wODgtNzAuNDQyIDczLjk0MS03MC40NDJoNjg0LjA3NWM0MC44NTMgMCA3My45ODQgMjkuNTQ2IDczLjk4NCA3MC40NDJ2ODIuMDdjLTAuMDIyIDQwLjg3NC0zMy4xMzEgNzAuNDQyLTc0LjAwNiA3MC40NDJ6TTc4Mi4wMzcgNDYyLjIzYTUzLjYxIDUzLjYxIDAgMCAwLTUzLjU0NiA1My42MTEgNTMuNjUzIDUzLjY1MyAwIDAgMCA1My41NDYgNTMuNTQ3IDUzLjU5IDUzLjU5IDAgMSAwIDAtMTA3LjE3OXogbTgyLjYyNC0xMTEuMTA0SDE4MC42MDhjLTQwLjg1MyAwLTczLjk0MS0yOS42OTYtNzMuOTQxLTcwLjUyOHYtODEuOTg0YzAtNDAuOTE3IDMzLjA4OC03MC42MTMgNzMuOTQxLTcwLjYxM2g2ODQuMDc1YzQwLjg1MyAwIDczLjk4NCAyOS42OTYgNzMuOTg0IDcwLjYzNXY4MS45ODRjLTAuMDIyIDQwLjgxLTMzLjEzMSA3MC41MDYtNzQuMDA2IDcwLjUwNnpNNzgyLjAzNyAxODYuMDdhNTMuNTkgNTMuNTkgMCAwIDAtNTMuNTQ2IDUzLjU0NyA1My41NDcgNTMuNTQ3IDAgMCAwIDEwNy4wOTMgMCA1My41NDcgNTMuNTQ3IDAgMCAwLTUzLjU0Ny01My41NDd6IiBmaWxsPSIjMDBDMURFIiBwLWlkPSIzMzI4Ii8+PC9zdmc+" vertex="1" parent="uuMYFCACOVy0hHcjNsLC-90">
          <mxGeometry x="91" y="22" width="32" height="32" as="geometry" />
        </mxCell>
        <mxCell id="uuMYFCACOVy0hHcjNsLC-96" value="" style="shape=image;verticalLabelPosition=bottom;verticalAlign=top;imageAspect=0;aspect=fixed;image=data:image/svg+xml,PHN2ZyB4bWxucz0iaHR0cDovL3d3dy53My5vcmcvMjAwMC9zdmciIHhtbG5zOnhsaW5rPSJodHRwOi8vd3d3LnczLm9yZy8xOTk5L3hsaW5rIiB0PSIxNTc1MzUzNzE2OTQwIiBjbGFzcz0iaWNvbiIgdmlld0JveD0iMCAwIDEwMjQgMTAyNCIgdmVyc2lvbj0iMS4xIiBwLWlkPSIzMzI3IiB3aWR0aD0iMTI4IiBoZWlnaHQ9IjEyOCI+PGRlZnM+PHN0eWxlIHR5cGU9InRleHQvY3NzIi8+PC9kZWZzPjxwYXRoIGQ9Ik04NjQuNjYxIDkwMy41M0gxODAuNjA4Yy00MC44NTMgMC03My45NDEtMjkuNTY3LTczLjk0MS03MC41MDZ2LTgyLjAyN2MwLTQwLjg1MyAzMy4wODgtNzAuNDQyIDczLjk0MS03MC40NDJoNjg0LjA3NWM0MC44NTMgMCA3My45ODQgMjkuNTg5IDczLjk4NCA3MC40NDJ2ODIuMDI3Yy0wLjAyMiA0MC45MzktMzMuMTMxIDcwLjUwNy03NC4wMDYgNzAuNTA3eiBtLTgyLjYyNC0xNjQuOTlhNTMuNTQ3IDUzLjU0NyAwIDAgMC01My41NDYgNTMuNDgyIDUzLjU5IDUzLjU5IDAgMCAwIDUzLjU0NiA1My41NDcgNTMuNTI1IDUzLjUyNSAwIDAgMCAwLTEwNy4wMDh6IG04Mi42MjQtMTExLjMxOEgxODAuNjA4Yy00MC44NTMtMC4wMjEtNzMuOTQxLTI5LjU2OC03My45NDEtNzAuNDQydi04Mi4wN2MwLTQwLjg1MyAzMy4wODgtNzAuNDQyIDczLjk0MS03MC40NDJoNjg0LjA3NWM0MC44NTMgMCA3My45ODQgMjkuNTQ2IDczLjk4NCA3MC40NDJ2ODIuMDdjLTAuMDIyIDQwLjg3NC0zMy4xMzEgNzAuNDQyLTc0LjAwNiA3MC40NDJ6TTc4Mi4wMzcgNDYyLjIzYTUzLjYxIDUzLjYxIDAgMCAwLTUzLjU0NiA1My42MTEgNTMuNjUzIDUzLjY1MyAwIDAgMCA1My41NDYgNTMuNTQ3IDUzLjU5IDUzLjU5IDAgMSAwIDAtMTA3LjE3OXogbTgyLjYyNC0xMTEuMTA0SDE4MC42MDhjLTQwLjg1MyAwLTczLjk0MS0yOS42OTYtNzMuOTQxLTcwLjUyOHYtODEuOTg0YzAtNDAuOTE3IDMzLjA4OC03MC42MTMgNzMuOTQxLTcwLjYxM2g2ODQuMDc1YzQwLjg1MyAwIDczLjk4NCAyOS42OTYgNzMuOTg0IDcwLjYzNXY4MS45ODRjLTAuMDIyIDQwLjgxLTMzLjEzMSA3MC41MDYtNzQuMDA2IDcwLjUwNnpNNzgyLjAzNyAxODYuMDdhNTMuNTkgNTMuNTkgMCAwIDAtNTMuNTQ2IDUzLjU0NyA1My41NDcgNTMuNTQ3IDAgMCAwIDEwNy4wOTMgMCA1My41NDcgNTMuNTQ3IDAgMCAwLTUzLjU0Ny01My41NDd6IiBmaWxsPSIjMDBDMURFIiBwLWlkPSIzMzI4Ii8+PC9zdmc+" vertex="1" parent="uuMYFCACOVy0hHcjNsLC-90">
          <mxGeometry x="19" y="56" width="32" height="32" as="geometry" />
        </mxCell>
        <mxCell id="uuMYFCACOVy0hHcjNsLC-97" value="" style="shape=image;verticalLabelPosition=bottom;verticalAlign=top;imageAspect=0;aspect=fixed;image=data:image/svg+xml,PHN2ZyB4bWxucz0iaHR0cDovL3d3dy53My5vcmcvMjAwMC9zdmciIHhtbG5zOnhsaW5rPSJodHRwOi8vd3d3LnczLm9yZy8xOTk5L3hsaW5rIiB0PSIxNTc1MzUzNzE2OTQwIiBjbGFzcz0iaWNvbiIgdmlld0JveD0iMCAwIDEwMjQgMTAyNCIgdmVyc2lvbj0iMS4xIiBwLWlkPSIzMzI3IiB3aWR0aD0iMTI4IiBoZWlnaHQ9IjEyOCI+PGRlZnM+PHN0eWxlIHR5cGU9InRleHQvY3NzIi8+PC9kZWZzPjxwYXRoIGQ9Ik04NjQuNjYxIDkwMy41M0gxODAuNjA4Yy00MC44NTMgMC03My45NDEtMjkuNTY3LTczLjk0MS03MC41MDZ2LTgyLjAyN2MwLTQwLjg1MyAzMy4wODgtNzAuNDQyIDczLjk0MS03MC40NDJoNjg0LjA3NWM0MC44NTMgMCA3My45ODQgMjkuNTg5IDczLjk4NCA3MC40NDJ2ODIuMDI3Yy0wLjAyMiA0MC45MzktMzMuMTMxIDcwLjUwNy03NC4wMDYgNzAuNTA3eiBtLTgyLjYyNC0xNjQuOTlhNTMuNTQ3IDUzLjU0NyAwIDAgMC01My41NDYgNTMuNDgyIDUzLjU5IDUzLjU5IDAgMCAwIDUzLjU0NiA1My41NDcgNTMuNTI1IDUzLjUyNSAwIDAgMCAwLTEwNy4wMDh6IG04Mi42MjQtMTExLjMxOEgxODAuNjA4Yy00MC44NTMtMC4wMjEtNzMuOTQxLTI5LjU2OC03My45NDEtNzAuNDQydi04Mi4wN2MwLTQwLjg1MyAzMy4wODgtNzAuNDQyIDczLjk0MS03MC40NDJoNjg0LjA3NWM0MC44NTMgMCA3My45ODQgMjkuNTQ2IDczLjk4NCA3MC40NDJ2ODIuMDdjLTAuMDIyIDQwLjg3NC0zMy4xMzEgNzAuNDQyLTc0LjAwNiA3MC40NDJ6TTc4Mi4wMzcgNDYyLjIzYTUzLjYxIDUzLjYxIDAgMCAwLTUzLjU0NiA1My42MTEgNTMuNjUzIDUzLjY1MyAwIDAgMCA1My41NDYgNTMuNTQ3IDUzLjU5IDUzLjU5IDAgMSAwIDAtMTA3LjE3OXogbTgyLjYyNC0xMTEuMTA0SDE4MC42MDhjLTQwLjg1MyAwLTczLjk0MS0yOS42OTYtNzMuOTQxLTcwLjUyOHYtODEuOTg0YzAtNDAuOTE3IDMzLjA4OC03MC42MTMgNzMuOTQxLTcwLjYxM2g2ODQuMDc1YzQwLjg1MyAwIDczLjk4NCAyOS42OTYgNzMuOTg0IDcwLjYzNXY4MS45ODRjLTAuMDIyIDQwLjgxLTMzLjEzMSA3MC41MDYtNzQuMDA2IDcwLjUwNnpNNzgyLjAzNyAxODYuMDdhNTMuNTkgNTMuNTkgMCAwIDAtNTMuNTQ2IDUzLjU0NyA1My41NDcgNTMuNTQ3IDAgMCAwIDEwNy4wOTMgMCA1My41NDcgNTMuNTQ3IDAgMCAwLTUzLjU0Ny01My41NDd6IiBmaWxsPSIjMDBDMURFIiBwLWlkPSIzMzI4Ii8+PC9zdmc+" vertex="1" parent="uuMYFCACOVy0hHcjNsLC-90">
          <mxGeometry x="56" y="55" width="32" height="32" as="geometry" />
        </mxCell>
        <mxCell id="uuMYFCACOVy0hHcjNsLC-98" value="" style="shape=image;verticalLabelPosition=bottom;verticalAlign=top;imageAspect=0;aspect=fixed;image=data:image/svg+xml,PHN2ZyB4bWxucz0iaHR0cDovL3d3dy53My5vcmcvMjAwMC9zdmciIHhtbG5zOnhsaW5rPSJodHRwOi8vd3d3LnczLm9yZy8xOTk5L3hsaW5rIiB0PSIxNTc1MzUzNzE2OTQwIiBjbGFzcz0iaWNvbiIgdmlld0JveD0iMCAwIDEwMjQgMTAyNCIgdmVyc2lvbj0iMS4xIiBwLWlkPSIzMzI3IiB3aWR0aD0iMTI4IiBoZWlnaHQ9IjEyOCI+PGRlZnM+PHN0eWxlIHR5cGU9InRleHQvY3NzIi8+PC9kZWZzPjxwYXRoIGQ9Ik04NjQuNjYxIDkwMy41M0gxODAuNjA4Yy00MC44NTMgMC03My45NDEtMjkuNTY3LTczLjk0MS03MC41MDZ2LTgyLjAyN2MwLTQwLjg1MyAzMy4wODgtNzAuNDQyIDczLjk0MS03MC40NDJoNjg0LjA3NWM0MC44NTMgMCA3My45ODQgMjkuNTg5IDczLjk4NCA3MC40NDJ2ODIuMDI3Yy0wLjAyMiA0MC45MzktMzMuMTMxIDcwLjUwNy03NC4wMDYgNzAuNTA3eiBtLTgyLjYyNC0xNjQuOTlhNTMuNTQ3IDUzLjU0NyAwIDAgMC01My41NDYgNTMuNDgyIDUzLjU5IDUzLjU5IDAgMCAwIDUzLjU0NiA1My41NDcgNTMuNTI1IDUzLjUyNSAwIDAgMCAwLTEwNy4wMDh6IG04Mi42MjQtMTExLjMxOEgxODAuNjA4Yy00MC44NTMtMC4wMjEtNzMuOTQxLTI5LjU2OC03My45NDEtNzAuNDQydi04Mi4wN2MwLTQwLjg1MyAzMy4wODgtNzAuNDQyIDczLjk0MS03MC40NDJoNjg0LjA3NWM0MC44NTMgMCA3My45ODQgMjkuNTQ2IDczLjk4NCA3MC40NDJ2ODIuMDdjLTAuMDIyIDQwLjg3NC0zMy4xMzEgNzAuNDQyLTc0LjAwNiA3MC40NDJ6TTc4Mi4wMzcgNDYyLjIzYTUzLjYxIDUzLjYxIDAgMCAwLTUzLjU0NiA1My42MTEgNTMuNjUzIDUzLjY1MyAwIDAgMCA1My41NDYgNTMuNTQ3IDUzLjU5IDUzLjU5IDAgMSAwIDAtMTA3LjE3OXogbTgyLjYyNC0xMTEuMTA0SDE4MC42MDhjLTQwLjg1MyAwLTczLjk0MS0yOS42OTYtNzMuOTQxLTcwLjUyOHYtODEuOTg0YzAtNDAuOTE3IDMzLjA4OC03MC42MTMgNzMuOTQxLTcwLjYxM2g2ODQuMDc1YzQwLjg1MyAwIDczLjk4NCAyOS42OTYgNzMuOTg0IDcwLjYzNXY4MS45ODRjLTAuMDIyIDQwLjgxLTMzLjEzMSA3MC41MDYtNzQuMDA2IDcwLjUwNnpNNzgyLjAzNyAxODYuMDdhNTMuNTkgNTMuNTkgMCAwIDAtNTMuNTQ2IDUzLjU0NyA1My41NDcgNTMuNTQ3IDAgMCAwIDEwNy4wOTMgMCA1My41NDcgNTMuNTQ3IDAgMCAwLTUzLjU0Ny01My41NDd6IiBmaWxsPSIjMDBDMURFIiBwLWlkPSIzMzI4Ii8+PC9zdmc+" vertex="1" parent="uuMYFCACOVy0hHcjNsLC-90">
          <mxGeometry x="91" y="54" width="32" height="32" as="geometry" />
        </mxCell>
        <mxCell id="uuMYFCACOVy0hHcjNsLC-99" style="edgeStyle=orthogonalEdgeStyle;rounded=0;orthogonalLoop=1;jettySize=auto;html=1;exitX=1;exitY=0.5;exitDx=0;exitDy=0;entryX=0;entryY=0.25;entryDx=0;entryDy=0;strokeWidth=2;dashed=1;strokeColor=#66FF66;" edge="1" parent="1" source="uuMYFCACOVy0hHcjNsLC-100" target="uuMYFCACOVy0hHcjNsLC-92">
          <mxGeometry relative="1" as="geometry" />
        </mxCell>
        <mxCell id="uuMYFCACOVy0hHcjNsLC-100" value="egoonet SLB" style="shape=image;verticalLabelPosition=bottom;verticalAlign=top;imageAspect=0;aspect=fixed;image=data:image/svg+xml,PHN2ZyB4bWxucz0iaHR0cDovL3d3dy53My5vcmcvMjAwMC9zdmciIHhtbG5zOnhsaW5rPSJodHRwOi8vd3d3LnczLm9yZy8xOTk5L3hsaW5rIiB0PSIxNTc1MzYzOTIxMzg4IiBjbGFzcz0iaWNvbiIgdmlld0JveD0iMCAwIDEwMjQgMTAyNCIgdmVyc2lvbj0iMS4xIiBwLWlkPSIzNTkzIiB3aWR0aD0iMTI4IiBoZWlnaHQ9IjEyOCI+PGRlZnM+PHN0eWxlIHR5cGU9InRleHQvY3NzIi8+PC9kZWZzPjxwYXRoIGQ9Ik03NzYuMDQzIDU0OC42M2MtMjQuNzY4IDAuMTA2LTQ4LjEyOCA2LjM3OC02OS4xNDIgMTYuNDY5bC04OS40NS0xMzMuODY3YzMzLjM2NS0yOS43MzkgNTQuNjU2LTcyLjY4MyA1NC40LTEyMC43MDQtMC40MjctODkuMjM3LTczLjE5NS0xNjEuNjIxLTE2Mi40OTYtMTYxLjE5NS04OS4yOCAwLjQyNy0xNjEuNDMgNzMuNDk0LTE2MS4wMjQgMTYyLjYyNCAwLjIxMyA0OC4wNjQgMjEuOTczIDkwLjY4OCA1NS4zODEgMTIwLjI1NmwtODguMDQzIDEzNC42NzhjLTIxLjIwNS05Ljk2My00NC40MzctMTUuOTM2LTY5LjMzMy0xNS44My04OS4xNTIgMC4zNjMtMTYxLjQzIDczLjM2Ni0xNjEuMDAzIDE2Mi42MjQgMC4yOTkgODkuMTUyIDczLjE5NSAxNjEuNDUxIDE2Mi40OTYgMTYwLjk2IDgxLjQ1MS0wLjMyIDE0OC4wNTQtNjEuMjY5IDE1OC44Ny0xMzkuODRsMjEwLjczLTEuMDAyYzExLjQzNSA3OC41MDYgNzguNTkyIDEzOC44NTggMTYwLjEwNyAxMzguNTE3IDg5LjIzNy0wLjQyNyAxNjEuNDMtNzMuMzAxIDE2MS4xMy0xNjIuNTYtMC40NjktODkuMjM3LTczLjQ3MS0xNjEuNTM2LTE2Mi42MjMtMTYxLjEzeiBtLTE1OC44NyAxMzkuODRsLTIxMC43MyAwLjk2YTE2MS4xMyAxNjEuMTMgMCAwIDAtNTIuOTcxLTk3LjZMNDQxLjYgNDU3LjExYzIxLjE0MSA5Ljk2MiA0NC40MzcgMTYuMDQyIDY5LjI3IDE1LjgyOWExNTkuOTU3IDE1OS45NTcgMCAwIDAgNjkuMTYyLTE2LjM4NEw2NjkuNTI1IDU5MC40YTE2MC4zMiAxNjAuMzIgMCAwIDAtNTIuMzUyIDk4LjA3eiIgZmlsbD0iIzAwQzFERSIgcC1pZD0iMzU5NCIvPjwvc3ZnPg==;fontColor=#EA6B66;spacing=-6;fontSize=8;" vertex="1" parent="1">
          <mxGeometry x="361" y="440" width="37" height="37" as="geometry" />
        </mxCell>
        <mxCell id="uuMYFCACOVy0hHcjNsLC-101" style="edgeStyle=orthogonalEdgeStyle;rounded=0;orthogonalLoop=1;jettySize=auto;html=1;exitX=1;exitY=0.5;exitDx=0;exitDy=0;entryX=0;entryY=0.5;entryDx=0;entryDy=0;strokeWidth=2;dashed=1;strokeColor=#66FF66;" edge="1" parent="1" source="uuMYFCACOVy0hHcjNsLC-102" target="uuMYFCACOVy0hHcjNsLC-108">
          <mxGeometry relative="1" as="geometry" />
        </mxCell>
        <mxCell id="uuMYFCACOVy0hHcjNsLC-102" value="egoonet Rabbitmq SLB" style="shape=image;verticalLabelPosition=bottom;verticalAlign=top;imageAspect=0;aspect=fixed;image=data:image/svg+xml,PHN2ZyB4bWxucz0iaHR0cDovL3d3dy53My5vcmcvMjAwMC9zdmciIHhtbG5zOnhsaW5rPSJodHRwOi8vd3d3LnczLm9yZy8xOTk5L3hsaW5rIiB0PSIxNTc1MzYzOTIxMzg4IiBjbGFzcz0iaWNvbiIgdmlld0JveD0iMCAwIDEwMjQgMTAyNCIgdmVyc2lvbj0iMS4xIiBwLWlkPSIzNTkzIiB3aWR0aD0iMTI4IiBoZWlnaHQ9IjEyOCI+PGRlZnM+PHN0eWxlIHR5cGU9InRleHQvY3NzIi8+PC9kZWZzPjxwYXRoIGQ9Ik03NzYuMDQzIDU0OC42M2MtMjQuNzY4IDAuMTA2LTQ4LjEyOCA2LjM3OC02OS4xNDIgMTYuNDY5bC04OS40NS0xMzMuODY3YzMzLjM2NS0yOS43MzkgNTQuNjU2LTcyLjY4MyA1NC40LTEyMC43MDQtMC40MjctODkuMjM3LTczLjE5NS0xNjEuNjIxLTE2Mi40OTYtMTYxLjE5NS04OS4yOCAwLjQyNy0xNjEuNDMgNzMuNDk0LTE2MS4wMjQgMTYyLjYyNCAwLjIxMyA0OC4wNjQgMjEuOTczIDkwLjY4OCA1NS4zODEgMTIwLjI1NmwtODguMDQzIDEzNC42NzhjLTIxLjIwNS05Ljk2My00NC40MzctMTUuOTM2LTY5LjMzMy0xNS44My04OS4xNTIgMC4zNjMtMTYxLjQzIDczLjM2Ni0xNjEuMDAzIDE2Mi42MjQgMC4yOTkgODkuMTUyIDczLjE5NSAxNjEuNDUxIDE2Mi40OTYgMTYwLjk2IDgxLjQ1MS0wLjMyIDE0OC4wNTQtNjEuMjY5IDE1OC44Ny0xMzkuODRsMjEwLjczLTEuMDAyYzExLjQzNSA3OC41MDYgNzguNTkyIDEzOC44NTggMTYwLjEwNyAxMzguNTE3IDg5LjIzNy0wLjQyNyAxNjEuNDMtNzMuMzAxIDE2MS4xMy0xNjIuNTYtMC40NjktODkuMjM3LTczLjQ3MS0xNjEuNTM2LTE2Mi42MjMtMTYxLjEzeiBtLTE1OC44NyAxMzkuODRsLTIxMC43MyAwLjk2YTE2MS4xMyAxNjEuMTMgMCAwIDAtNTIuOTcxLTk3LjZMNDQxLjYgNDU3LjExYzIxLjE0MSA5Ljk2MiA0NC40MzcgMTYuMDQyIDY5LjI3IDE1LjgyOWExNTkuOTU3IDE1OS45NTcgMCAwIDAgNjkuMTYyLTE2LjM4NEw2NjkuNTI1IDU5MC40YTE2MC4zMiAxNjAuMzIgMCAwIDAtNTIuMzUyIDk4LjA3eiIgZmlsbD0iIzAwQzFERSIgcC1pZD0iMzU5NCIvPjwvc3ZnPg==;fontColor=#EA6B66;fontSize=8;strokeWidth=0;spacing=-6;" vertex="1" parent="1">
          <mxGeometry x="749" y="450.25" width="27" height="27" as="geometry" />
        </mxCell>
        <mxCell id="uuMYFCACOVy0hHcjNsLC-103" value="RDS" style="shape=image;verticalLabelPosition=bottom;verticalAlign=top;imageAspect=0;aspect=fixed;image=data:image/svg+xml,PHN2ZyB4bWxucz0iaHR0cDovL3d3dy53My5vcmcvMjAwMC9zdmciIHhtbG5zOnhsaW5rPSJodHRwOi8vd3d3LnczLm9yZy8xOTk5L3hsaW5rIiB0PSIxNTc1MzYyNDUzNzI0IiBjbGFzcz0iaWNvbiIgdmlld0JveD0iMCAwIDEwMjQgMTAyNCIgdmVyc2lvbj0iMS4xIiBwLWlkPSI1MDUwIiB3aWR0aD0iMTI4IiBoZWlnaHQ9IjEyOCI+PGRlZnM+PHN0eWxlIHR5cGU9InRleHQvY3NzIi8+PC9kZWZzPjxwYXRoIGQ9Ik03NTMuMDY3IDIyMS44NjdjLTIuMTM0IDAtOC41MzQtMi4xMzQtMTAuNjY3LTIuMTM0QzY2NS42IDE0OS4zMzMgNTY1LjMzMyAxMjggNTI0LjggMTI4Yy00MC41MzMgMi4xMzMtOTguMTMzIDI1LjYtMTIxLjYgNjQtMzIgOC41MzMtNzYuOCAxNy4wNjctOTYgNDYuOTMzLTE3LjA2NyAyNy43MzQgNDIuNjY3IDQ0LjggNjEuODY3IDUxLjIgOC41MzMgMi4xMzQgNDkuMDY2IDEyLjggMTAwLjI2NiAzNC4xMzRsMi4xMzQgMi4xMzN2Mi4xMzNjLTIuMTM0IDguNTM0LTIuMTM0IDIxLjMzNCA0LjI2NiA0OS4wNjcgMTkuMiA1NS40NjcgNDkuMDY3IDkzLjg2NyA2Ni4xMzQgODkuNiAxMi44LTQuMjY3IDEwLjY2Ni02OC4yNjcgMTcuMDY2LTg5LjYgMCAwIDIuMTM0LTIuMTMzIDQuMjY3LTIuMTMzaDQuMjY3Yzc2LjggNDkuMDY2IDEzNi41MzMgMTI1Ljg2NiAxNTcuODY2IDIyMS44NjZDNzUwLjkzMyA3MDQgNzIzLjIgODEyLjggNjYzLjQ2NyA4OTZjMTAuNjY2LTIuMTMzIDE3LjA2Ni02LjQgMzItMTcuMDY3IDIzLjQ2Ni0xNy4wNjYgNDQuOC00MC41MzMgNjEuODY2LTY0Qzg4MS4wNjcgNjQwIDg5My44NjcgNDczLjYgODI3LjczMyAzMzAuNjY3YzAtMi4xMzQtMi4xMzMtMi4xMzQtMi4xMzMtNC4yNjctMi4xMzMtMTkuMiA3NC42NjctMjMuNDY3IDkzLjg2Ny0zNC4xMzMgMTAuNjY2LTE5LjItMTE1LjItNzYuOC0xNjYuNC03MC40eiIgZmlsbD0iIzAwQzFERSIgcC1pZD0iNTA1MSIvPjxwYXRoIGQ9Ik02MzEuNDY3IDY2My40NjdsNTUuNDY2LTg5LjZjLTYuNC0xMi44LTEwLjY2Ni0yNS42LTE3LjA2Ni0zNi4yNjdsLTU3LjYgOTEuNzMzSDUwMS4zMzNsNjQgMTA0LjUzNC03NC42NjYgMTE5LjQ2NkgzNDEuMzMzbC03NC42NjYtMTIxLjYgNjQtMTA0LjUzM0gyMTkuNzMzbC03NC42NjYtMTIxLjZMMjE5LjczMyAzODRoMTQ5LjMzNGw0NC44IDc0LjY2NyAyOS44NjYtNDYuOTM0Yy0yLjEzMy0yLjEzMy0yLjEzMy02LjQtNC4yNjYtOC41MzMtNC4yNjctMTcuMDY3LTYuNC0yOS44NjctNi40LTQwLjUzM2wtMTkuMiAyOS44NjYtMjUuNi00Mi42NjZoLTE4NS42bC05NiAxNTcuODY2IDk2IDE1NS43MzRoNjguMjY2bC00Mi42NjYgNzAuNCA5NiAxNTUuNzMzSDUxMmw5Ni0xNTUuNzMzLTQyLjY2Ny03MC40aDY2LjEzNHoiIGZpbGw9IiMwMEMxREUiIHAtaWQ9IjUwNTIiLz48L3N2Zz4=;fillColor=none;fontColor=#EA6B66;fontSize=8;spacing=-6;" vertex="1" parent="1">
          <mxGeometry x="855.25" y="470" width="27.5" height="27.5" as="geometry" />
        </mxCell>
        <mxCell id="uuMYFCACOVy0hHcjNsLC-104" value="Redis" style="shape=image;verticalLabelPosition=bottom;verticalAlign=top;imageAspect=0;aspect=fixed;image=data:image/svg+xml,PHN2ZyB4bWxucz0iaHR0cDovL3d3dy53My5vcmcvMjAwMC9zdmciIHhtbG5zOnhsaW5rPSJodHRwOi8vd3d3LnczLm9yZy8xOTk5L3hsaW5rIiB0PSIxNTc1MzYyNzE4MjMxIiBjbGFzcz0iaWNvbiIgdmlld0JveD0iMCAwIDEwMjQgMTAyNCIgdmVyc2lvbj0iMS4xIiBwLWlkPSI1ODUzIiB3aWR0aD0iMTI4IiBoZWlnaHQ9IjEyOCI+PGRlZnM+PHN0eWxlIHR5cGU9InRleHQvY3NzIi8+PC9kZWZzPjxwYXRoIGQ9Ik01MTAuMjA4IDIxMy43ODFsLTEwMS44MDMgMzQuNzc0TDM0Mi43IDIwOS45NGwxNjguODEtNjAuNjA4TDY4MS42NDMgMjExLjVsLTY0LjQ0OCAzNy4wNTYtMTA2Ljk2Ni0zNC43NzR6IG0xLjI4IDIwMS40M2wxMDEuODI0LTM0LjgxNiA2NS43MjggMzguNjk4LTE2OC44MzIgNjAuNTIzLTE3MC4wNy02Mi4wOCA2NC40MDYtMzcuMTQxIDEwNi45NDQgMzQuODE2eiBtLTE1NS4wOTMtNTEuOTA0bC02OS4xMiAzMy40OTNMNjUuNjIgMzE0LjMwNGwyMjUuNTE1LTgzLjM3IDY1Ljc1IDM4Ljg0Ny0xMjIuNDExIDQ0LjUyMyAxMjEuODk4IDQ5LjAwM3ogbTQzNC42NDUtNDkuMDAzbC0xMjIuNDEtNDQuNTIzIDY1LjcwNi0zOC44NDggMjI1LjU1NyA4My4zNzFMNzM4LjE3NiAzOTYuOGwtNjkuMDk5LTMzLjQ5MyAxMjEuOTYzLTQ5LjAwM3pNNTExLjQ4OCA2MDguNzQ3TDY0Ljk2IDQzMy42NDMgNjQgMzQ0Ljg5Nmw0NDcuNDg4IDE3NC45MzMgNDQ3LjU3My0xNzIuOTkydjg5LjQzbC00NDcuNTczIDE3Mi40OHogbTEuMDI0IDMzLjY2NEw5NjAgNDY5LjM3NnY4OS40OTNMNTEyLjUxMiA3MzEuMjg1IDY1Ljk2MiA1NTYuMjI0bC0xLjAwMi04OC43NDcgNDQ3LjU1MiAxNzQuOTM0ek02NC45MzkgNTkxLjA2bDQ0Ny41NzMgMTc0LjkzNEw5NjAgNTkzLjAwM3Y4OS40NzJsLTQ0Ny40ODggMTcyLjQ4TDY1Ljk2MiA2NzkuODVsLTEuMDAyLTg4Ljc2OHoiIGZpbGw9IiMwMEMxREUiIHAtaWQ9IjU4NTQiLz48L3N2Zz4=;fillColor=none;fontColor=#EA6B66;fontSize=8;spacing=-6;" vertex="1" parent="1">
          <mxGeometry x="857" y="503" width="27" height="27" as="geometry" />
        </mxCell>
        <mxCell id="uuMYFCACOVy0hHcjNsLC-105" value="Elasticsearch" style="shape=image;verticalLabelPosition=bottom;verticalAlign=top;imageAspect=0;aspect=fixed;image=data:image/svg+xml,PHN2ZyB4bWxucz0iaHR0cDovL3d3dy53My5vcmcvMjAwMC9zdmciIHhtbG5zOnhsaW5rPSJodHRwOi8vd3d3LnczLm9yZy8xOTk5L3hsaW5rIiB0PSIxNTc1MzYzOTczNDI5IiBjbGFzcz0iaWNvbiIgdmlld0JveD0iMCAwIDEwMjQgMTAyNCIgdmVyc2lvbj0iMS4xIiBwLWlkPSIzODU5IiB3aWR0aD0iMTI4IiBoZWlnaHQ9IjEyOCI+PGRlZnM+PHN0eWxlIHR5cGU9InRleHQvY3NzIi8+PC9kZWZzPjxwYXRoIGQ9Ik04NTQuODcgMzk2Ljg2NGwxNC4wMzctMTQuMDM3IDI5LjYzMiAyOS42MzIgMTcuOTItMjAuMjY3LTkxLjk5LTk1LjA4My0yOC44MjEtMC43NjgtNDguMzItNDcuNTczLTQwLjUzMyA0MS4zMDEtMTI4LjY0LTExOC41MDZzLTk1Ljg5NC02MS41OS0xOTQuODggMjAuMjY2Yy05OC45ODcgODEuODc4LTQyLjA0OCAxODMuMTktNDIuMDQ4IDE4My4xOWw4MS4wNjYgOTIuNzU3IDQ5Ljg5OS00NS4xODQtNjAuOC03MC45MzNzLTQyLjA5LTU4LjQ1NCAxMi40NTktMTA5LjEyYzU0LjU3LTUwLjY0NiAxMTMuMDI0LTIzLjQwMyAxMTMuMDI0LTIzLjQwM2wxMTkuMjUzIDExOC41MDctNDEuMjggMzkuNzY1IDEzMC4xOTcgMTMyLjUyMyAzLjEzNi0wLjc2OCAxOC42ODgtMjEuODI0IDYwLjAzMiA2MS41ODkgOTAuNDMyLTkxLjk2OC02Mi40NjQtNjAuMDc1eiBtLTM2NC4yMjUgNDQuMzczbDQ2LjI5NCA0Ni4yNzItNDcuNDAzIDQ3LjM4Mi00Ni4yOTMtNDYuMjcyIDQ3LjQyNC00Ny40MDN6IG01OS42NyAxNTIuODc1bC00Ni4yOTQtNDYuMjkzIDQ3LjQwMy00Ny4zNiA0Ni4yOTMgNDYuMjcyLTQ3LjQwMiA0Ny4zODF6IG03MC42OTgtMjQuMTkybC00Ny41MDkgNDUuMTg0IDM5LjA0IDQ3LjkxNXM0Mi4xMTIgNTguNDUzLTEyLjQzNyAxMDkuMTJjLTU0LjU3MSA1MC42NjYtMTEzLjAyNCAyMy40MDItMTEzLjAyNCAyMy40MDJMMzY3LjgyOSA2NzcuMDU2bDQxLjI4LTM5Ljc2NS0xMzAuMTk3LTEzMi40OC0zLjA5MyAwLjc2OC0xOC42ODggMjEuODI0LTYwLjAzMi02MS41NDctOTAuNDMyIDkxLjk0NyA2Mi4zNTcgNjAuMDMyLTE0LjAxNiAxNC4wMzctMjkuNjUzLTI5LjY1My0xNy45MiAyMC4yNjYgOTEuOTg5IDk1LjEwNCAyOC44MjEgMC43NDcgNDguMzQyIDQ3LjU3MyA0MC41MzMtNDEuMjggMTI4LjYxOSAxMTguNDg2czk1Ljg5MyA2MS42MSAxOTQuODgtMjAuMjY3Yzk4Ljk4Ni04MS44NTYgNDIuMTEyLTE4My4xNjggNDIuMTEyLTE4My4xNjhsLTYxLjcxOC02OS43NnoiIGZpbGw9IiMwMEMxREUiIHAtaWQ9IjM4NjAiLz48L3N2Zz4=;fontColor=#EA6B66;fontSize=8;spacing=-6;" vertex="1" parent="1">
          <mxGeometry x="857.5" y="534.5" width="26" height="26" as="geometry" />
        </mxCell>
        <mxCell id="uuMYFCACOVy0hHcjNsLC-106" value="" style="group" vertex="1" connectable="0" parent="1">
          <mxGeometry x="891.5" y="442" width="108" height="43.5" as="geometry" />
        </mxCell>
        <mxCell id="uuMYFCACOVy0hHcjNsLC-107" value="&lt;p style=&quot;line-height: 100%; font-size: 1px;&quot;&gt;&lt;font color=&quot;#ea6b66&quot; style=&quot;font-size: 1px;&quot;&gt;RabbitMQ ECS集群&lt;/font&gt;&lt;/p&gt;" style="text;html=1;resizable=1;autosize=1;align=center;verticalAlign=middle;points=[];fillColor=none;strokeColor=none;rounded=0;movable=1;rotatable=1;deletable=1;editable=1;locked=0;connectable=1;fontSize=1;spacing=0;" vertex="1" parent="uuMYFCACOVy0hHcjNsLC-106">
          <mxGeometry width="108" height="22" as="geometry" />
        </mxCell>
        <mxCell id="uuMYFCACOVy0hHcjNsLC-108" value="" style="whiteSpace=wrap;html=1;fillColor=none;dashed=1;strokeColor=#FF9933;fontSize=8;" vertex="1" parent="uuMYFCACOVy0hHcjNsLC-106">
          <mxGeometry y="2.25" width="108" height="39.75" as="geometry" />
        </mxCell>
        <mxCell id="uuMYFCACOVy0hHcjNsLC-109" value="" style="shape=image;verticalLabelPosition=bottom;verticalAlign=top;imageAspect=0;aspect=fixed;image=data:image/svg+xml,PHN2ZyB4bWxucz0iaHR0cDovL3d3dy53My5vcmcvMjAwMC9zdmciIHhtbG5zOnhsaW5rPSJodHRwOi8vd3d3LnczLm9yZy8xOTk5L3hsaW5rIiB0PSIxNTc1MzUzNzE2OTQwIiBjbGFzcz0iaWNvbiIgdmlld0JveD0iMCAwIDEwMjQgMTAyNCIgdmVyc2lvbj0iMS4xIiBwLWlkPSIzMzI3IiB3aWR0aD0iMTI4IiBoZWlnaHQ9IjEyOCI+PGRlZnM+PHN0eWxlIHR5cGU9InRleHQvY3NzIi8+PC9kZWZzPjxwYXRoIGQ9Ik04NjQuNjYxIDkwMy41M0gxODAuNjA4Yy00MC44NTMgMC03My45NDEtMjkuNTY3LTczLjk0MS03MC41MDZ2LTgyLjAyN2MwLTQwLjg1MyAzMy4wODgtNzAuNDQyIDczLjk0MS03MC40NDJoNjg0LjA3NWM0MC44NTMgMCA3My45ODQgMjkuNTg5IDczLjk4NCA3MC40NDJ2ODIuMDI3Yy0wLjAyMiA0MC45MzktMzMuMTMxIDcwLjUwNy03NC4wMDYgNzAuNTA3eiBtLTgyLjYyNC0xNjQuOTlhNTMuNTQ3IDUzLjU0NyAwIDAgMC01My41NDYgNTMuNDgyIDUzLjU5IDUzLjU5IDAgMCAwIDUzLjU0NiA1My41NDcgNTMuNTI1IDUzLjUyNSAwIDAgMCAwLTEwNy4wMDh6IG04Mi42MjQtMTExLjMxOEgxODAuNjA4Yy00MC44NTMtMC4wMjEtNzMuOTQxLTI5LjU2OC03My45NDEtNzAuNDQydi04Mi4wN2MwLTQwLjg1MyAzMy4wODgtNzAuNDQyIDczLjk0MS03MC40NDJoNjg0LjA3NWM0MC44NTMgMCA3My45ODQgMjkuNTQ2IDczLjk4NCA3MC40NDJ2ODIuMDdjLTAuMDIyIDQwLjg3NC0zMy4xMzEgNzAuNDQyLTc0LjAwNiA3MC40NDJ6TTc4Mi4wMzcgNDYyLjIzYTUzLjYxIDUzLjYxIDAgMCAwLTUzLjU0NiA1My42MTEgNTMuNjUzIDUzLjY1MyAwIDAgMCA1My41NDYgNTMuNTQ3IDUzLjU5IDUzLjU5IDAgMSAwIDAtMTA3LjE3OXogbTgyLjYyNC0xMTEuMTA0SDE4MC42MDhjLTQwLjg1MyAwLTczLjk0MS0yOS42OTYtNzMuOTQxLTcwLjUyOHYtODEuOTg0YzAtNDAuOTE3IDMzLjA4OC03MC42MTMgNzMuOTQxLTcwLjYxM2g2ODQuMDc1YzQwLjg1MyAwIDczLjk4NCAyOS42OTYgNzMuOTg0IDcwLjYzNXY4MS45ODRjLTAuMDIyIDQwLjgxLTMzLjEzMSA3MC41MDYtNzQuMDA2IDcwLjUwNnpNNzgyLjAzNyAxODYuMDdhNTMuNTkgNTMuNTkgMCAwIDAtNTMuNTQ2IDUzLjU0NyA1My41NDcgNTMuNTQ3IDAgMCAwIDEwNy4wOTMgMCA1My41NDcgNTMuNTQ3IDAgMCAwLTUzLjU0Ny01My41NDd6IiBmaWxsPSIjMDBDMURFIiBwLWlkPSIzMzI4Ii8+PC9zdmc+" vertex="1" parent="uuMYFCACOVy0hHcjNsLC-106">
          <mxGeometry x="5.491935483870975" y="19.5" width="24" height="24" as="geometry" />
        </mxCell>
        <mxCell id="uuMYFCACOVy0hHcjNsLC-110" value="" style="shape=image;verticalLabelPosition=bottom;verticalAlign=top;imageAspect=0;aspect=fixed;image=data:image/svg+xml,PHN2ZyB4bWxucz0iaHR0cDovL3d3dy53My5vcmcvMjAwMC9zdmciIHhtbG5zOnhsaW5rPSJodHRwOi8vd3d3LnczLm9yZy8xOTk5L3hsaW5rIiB0PSIxNTc1MzUzNzE2OTQwIiBjbGFzcz0iaWNvbiIgdmlld0JveD0iMCAwIDEwMjQgMTAyNCIgdmVyc2lvbj0iMS4xIiBwLWlkPSIzMzI3IiB3aWR0aD0iMTI4IiBoZWlnaHQ9IjEyOCI+PGRlZnM+PHN0eWxlIHR5cGU9InRleHQvY3NzIi8+PC9kZWZzPjxwYXRoIGQ9Ik04NjQuNjYxIDkwMy41M0gxODAuNjA4Yy00MC44NTMgMC03My45NDEtMjkuNTY3LTczLjk0MS03MC41MDZ2LTgyLjAyN2MwLTQwLjg1MyAzMy4wODgtNzAuNDQyIDczLjk0MS03MC40NDJoNjg0LjA3NWM0MC44NTMgMCA3My45ODQgMjkuNTg5IDczLjk4NCA3MC40NDJ2ODIuMDI3Yy0wLjAyMiA0MC45MzktMzMuMTMxIDcwLjUwNy03NC4wMDYgNzAuNTA3eiBtLTgyLjYyNC0xNjQuOTlhNTMuNTQ3IDUzLjU0NyAwIDAgMC01My41NDYgNTMuNDgyIDUzLjU5IDUzLjU5IDAgMCAwIDUzLjU0NiA1My41NDcgNTMuNTI1IDUzLjUyNSAwIDAgMCAwLTEwNy4wMDh6IG04Mi42MjQtMTExLjMxOEgxODAuNjA4Yy00MC44NTMtMC4wMjEtNzMuOTQxLTI5LjU2OC03My45NDEtNzAuNDQydi04Mi4wN2MwLTQwLjg1MyAzMy4wODgtNzAuNDQyIDczLjk0MS03MC40NDJoNjg0LjA3NWM0MC44NTMgMCA3My45ODQgMjkuNTQ2IDczLjk4NCA3MC40NDJ2ODIuMDdjLTAuMDIyIDQwLjg3NC0zMy4xMzEgNzAuNDQyLTc0LjAwNiA3MC40NDJ6TTc4Mi4wMzcgNDYyLjIzYTUzLjYxIDUzLjYxIDAgMCAwLTUzLjU0NiA1My42MTEgNTMuNjUzIDUzLjY1MyAwIDAgMCA1My41NDYgNTMuNTQ3IDUzLjU5IDUzLjU5IDAgMSAwIDAtMTA3LjE3OXogbTgyLjYyNC0xMTEuMTA0SDE4MC42MDhjLTQwLjg1MyAwLTczLjk0MS0yOS42OTYtNzMuOTQxLTcwLjUyOHYtODEuOTg0YzAtNDAuOTE3IDMzLjA4OC03MC42MTMgNzMuOTQxLTcwLjYxM2g2ODQuMDc1YzQwLjg1MyAwIDczLjk4NCAyOS42OTYgNzMuOTg0IDcwLjYzNXY4MS45ODRjLTAuMDIyIDQwLjgxLTMzLjEzMSA3MC41MDYtNzQuMDA2IDcwLjUwNnpNNzgyLjAzNyAxODYuMDdhNTMuNTkgNTMuNTkgMCAwIDAtNTMuNTQ2IDUzLjU0NyA1My41NDcgNTMuNTQ3IDAgMCAwIDEwNy4wOTMgMCA1My41NDcgNTMuNTQ3IDAgMCAwLTUzLjU0Ny01My41NDd6IiBmaWxsPSIjMDBDMURFIiBwLWlkPSIzMzI4Ii8+PC9zdmc+" vertex="1" parent="uuMYFCACOVy0hHcjNsLC-106">
          <mxGeometry x="40.40322580645159" y="19.5" width="24" height="24" as="geometry" />
        </mxCell>
        <mxCell id="uuMYFCACOVy0hHcjNsLC-111" value="" style="shape=image;verticalLabelPosition=bottom;verticalAlign=top;imageAspect=0;aspect=fixed;image=data:image/svg+xml,PHN2ZyB4bWxucz0iaHR0cDovL3d3dy53My5vcmcvMjAwMC9zdmciIHhtbG5zOnhsaW5rPSJodHRwOi8vd3d3LnczLm9yZy8xOTk5L3hsaW5rIiB0PSIxNTc1MzUzNzE2OTQwIiBjbGFzcz0iaWNvbiIgdmlld0JveD0iMCAwIDEwMjQgMTAyNCIgdmVyc2lvbj0iMS4xIiBwLWlkPSIzMzI3IiB3aWR0aD0iMTI4IiBoZWlnaHQ9IjEyOCI+PGRlZnM+PHN0eWxlIHR5cGU9InRleHQvY3NzIi8+PC9kZWZzPjxwYXRoIGQ9Ik04NjQuNjYxIDkwMy41M0gxODAuNjA4Yy00MC44NTMgMC03My45NDEtMjkuNTY3LTczLjk0MS03MC41MDZ2LTgyLjAyN2MwLTQwLjg1MyAzMy4wODgtNzAuNDQyIDczLjk0MS03MC40NDJoNjg0LjA3NWM0MC44NTMgMCA3My45ODQgMjkuNTg5IDczLjk4NCA3MC40NDJ2ODIuMDI3Yy0wLjAyMiA0MC45MzktMzMuMTMxIDcwLjUwNy03NC4wMDYgNzAuNTA3eiBtLTgyLjYyNC0xNjQuOTlhNTMuNTQ3IDUzLjU0NyAwIDAgMC01My41NDYgNTMuNDgyIDUzLjU5IDUzLjU5IDAgMCAwIDUzLjU0NiA1My41NDcgNTMuNTI1IDUzLjUyNSAwIDAgMCAwLTEwNy4wMDh6IG04Mi42MjQtMTExLjMxOEgxODAuNjA4Yy00MC44NTMtMC4wMjEtNzMuOTQxLTI5LjU2OC03My45NDEtNzAuNDQydi04Mi4wN2MwLTQwLjg1MyAzMy4wODgtNzAuNDQyIDczLjk0MS03MC40NDJoNjg0LjA3NWM0MC44NTMgMCA3My45ODQgMjkuNTQ2IDczLjk4NCA3MC40NDJ2ODIuMDdjLTAuMDIyIDQwLjg3NC0zMy4xMzEgNzAuNDQyLTc0LjAwNiA3MC40NDJ6TTc4Mi4wMzcgNDYyLjIzYTUzLjYxIDUzLjYxIDAgMCAwLTUzLjU0NiA1My42MTEgNTMuNjUzIDUzLjY1MyAwIDAgMCA1My41NDYgNTMuNTQ3IDUzLjU5IDUzLjU5IDAgMSAwIDAtMTA3LjE3OXogbTgyLjYyNC0xMTEuMTA0SDE4MC42MDhjLTQwLjg1MyAwLTczLjk0MS0yOS42OTYtNzMuOTQxLTcwLjUyOHYtODEuOTg0YzAtNDAuOTE3IDMzLjA4OC03MC42MTMgNzMuOTQxLTcwLjYxM2g2ODQuMDc1YzQwLjg1MyAwIDczLjk4NCAyOS42OTYgNzMuOTg0IDcwLjYzNXY4MS45ODRjLTAuMDIyIDQwLjgxLTMzLjEzMSA3MC41MDYtNzQuMDA2IDcwLjUwNnpNNzgyLjAzNyAxODYuMDdhNTMuNTkgNTMuNTkgMCAwIDAtNTMuNTQ2IDUzLjU0NyA1My41NDcgNTMuNTQ3IDAgMCAwIDEwNy4wOTMgMCA1My41NDcgNTMuNTQ3IDAgMCAwLTUzLjU0Ny01My41NDd6IiBmaWxsPSIjMDBDMURFIiBwLWlkPSIzMzI4Ii8+PC9zdmc+" vertex="1" parent="uuMYFCACOVy0hHcjNsLC-106">
          <mxGeometry x="73.42741935483878" y="19.5" width="24" height="24" as="geometry" />
        </mxCell>
        <mxCell id="uuMYFCACOVy0hHcjNsLC-112" style="edgeStyle=orthogonalEdgeStyle;rounded=0;orthogonalLoop=1;jettySize=auto;html=1;exitX=1;exitY=0.5;exitDx=0;exitDy=0;entryX=0;entryY=0.75;entryDx=0;entryDy=0;strokeWidth=2;dashed=1;strokeColor=#66FF66;" edge="1" parent="1" source="uuMYFCACOVy0hHcjNsLC-92" target="uuMYFCACOVy0hHcjNsLC-103">
          <mxGeometry relative="1" as="geometry">
            <Array as="points">
              <mxPoint x="697" y="484" />
              <mxPoint x="697" y="506" />
              <mxPoint x="765" y="506" />
              <mxPoint x="765" y="491" />
            </Array>
          </mxGeometry>
        </mxCell>
        <mxCell id="uuMYFCACOVy0hHcjNsLC-113" style="edgeStyle=orthogonalEdgeStyle;rounded=0;orthogonalLoop=1;jettySize=auto;html=1;exitX=1;exitY=0.5;exitDx=0;exitDy=0;entryX=0;entryY=0.5;entryDx=0;entryDy=0;strokeWidth=2;dashed=1;strokeColor=#66FF66;" edge="1" parent="1" source="uuMYFCACOVy0hHcjNsLC-92" target="uuMYFCACOVy0hHcjNsLC-102">
          <mxGeometry relative="1" as="geometry">
            <Array as="points">
              <mxPoint x="698" y="484" />
              <mxPoint x="698" y="464" />
            </Array>
          </mxGeometry>
        </mxCell>
        <mxCell id="uuMYFCACOVy0hHcjNsLC-114" style="edgeStyle=orthogonalEdgeStyle;rounded=0;orthogonalLoop=1;jettySize=auto;html=1;exitX=1;exitY=0.5;exitDx=0;exitDy=0;entryX=0;entryY=0.5;entryDx=0;entryDy=0;strokeWidth=2;dashed=1;strokeColor=#66FF66;" edge="1" parent="1" source="uuMYFCACOVy0hHcjNsLC-92" target="uuMYFCACOVy0hHcjNsLC-104">
          <mxGeometry relative="1" as="geometry">
            <Array as="points">
              <mxPoint x="698" y="484" />
              <mxPoint x="698" y="505" />
              <mxPoint x="766" y="505" />
              <mxPoint x="766" y="517" />
            </Array>
          </mxGeometry>
        </mxCell>
        <mxCell id="uuMYFCACOVy0hHcjNsLC-115" style="edgeStyle=orthogonalEdgeStyle;rounded=0;orthogonalLoop=1;jettySize=auto;html=1;exitX=1;exitY=0.75;exitDx=0;exitDy=0;entryX=0;entryY=0.5;entryDx=0;entryDy=0;strokeWidth=2;dashed=1;strokeColor=#66FF66;" edge="1" parent="1" source="uuMYFCACOVy0hHcjNsLC-95" target="uuMYFCACOVy0hHcjNsLC-105">
          <mxGeometry relative="1" as="geometry">
            <Array as="points">
              <mxPoint x="698" y="483" />
              <mxPoint x="698" y="505" />
              <mxPoint x="764" y="505" />
              <mxPoint x="764" y="548" />
            </Array>
          </mxGeometry>
        </mxCell>
        <mxCell id="uuMYFCACOVy0hHcjNsLC-116" value="" style="group;movable=1;resizable=1;rotatable=1;deletable=1;editable=1;locked=0;connectable=1;" vertex="1" connectable="0" parent="1">
          <mxGeometry x="550" y="538" width="132" height="97.5" as="geometry" />
        </mxCell>
        <mxCell id="uuMYFCACOVy0hHcjNsLC-117" value="&lt;font color=&quot;#ea6b66&quot;&gt;ECS集群&lt;/font&gt;" style="text;html=1;resizable=0;autosize=1;align=center;verticalAlign=middle;points=[];fillColor=none;strokeColor=none;rounded=0;movable=0;rotatable=0;deletable=0;editable=0;locked=1;connectable=0;" vertex="1" parent="uuMYFCACOVy0hHcjNsLC-116">
          <mxGeometry x="11" width="67" height="26" as="geometry" />
        </mxCell>
        <mxCell id="uuMYFCACOVy0hHcjNsLC-118" value="" style="whiteSpace=wrap;html=1;fillColor=none;dashed=1;strokeColor=#FF9933;" vertex="1" parent="uuMYFCACOVy0hHcjNsLC-116">
          <mxGeometry x="15" y="3" width="111" height="87" as="geometry" />
        </mxCell>
        <mxCell id="uuMYFCACOVy0hHcjNsLC-119" value="" style="shape=image;verticalLabelPosition=bottom;verticalAlign=top;imageAspect=0;aspect=fixed;image=data:image/svg+xml,PHN2ZyB4bWxucz0iaHR0cDovL3d3dy53My5vcmcvMjAwMC9zdmciIHhtbG5zOnhsaW5rPSJodHRwOi8vd3d3LnczLm9yZy8xOTk5L3hsaW5rIiB0PSIxNTc1MzUzNzE2OTQwIiBjbGFzcz0iaWNvbiIgdmlld0JveD0iMCAwIDEwMjQgMTAyNCIgdmVyc2lvbj0iMS4xIiBwLWlkPSIzMzI3IiB3aWR0aD0iMTI4IiBoZWlnaHQ9IjEyOCI+PGRlZnM+PHN0eWxlIHR5cGU9InRleHQvY3NzIi8+PC9kZWZzPjxwYXRoIGQ9Ik04NjQuNjYxIDkwMy41M0gxODAuNjA4Yy00MC44NTMgMC03My45NDEtMjkuNTY3LTczLjk0MS03MC41MDZ2LTgyLjAyN2MwLTQwLjg1MyAzMy4wODgtNzAuNDQyIDczLjk0MS03MC40NDJoNjg0LjA3NWM0MC44NTMgMCA3My45ODQgMjkuNTg5IDczLjk4NCA3MC40NDJ2ODIuMDI3Yy0wLjAyMiA0MC45MzktMzMuMTMxIDcwLjUwNy03NC4wMDYgNzAuNTA3eiBtLTgyLjYyNC0xNjQuOTlhNTMuNTQ3IDUzLjU0NyAwIDAgMC01My41NDYgNTMuNDgyIDUzLjU5IDUzLjU5IDAgMCAwIDUzLjU0NiA1My41NDcgNTMuNTI1IDUzLjUyNSAwIDAgMCAwLTEwNy4wMDh6IG04Mi42MjQtMTExLjMxOEgxODAuNjA4Yy00MC44NTMtMC4wMjEtNzMuOTQxLTI5LjU2OC03My45NDEtNzAuNDQydi04Mi4wN2MwLTQwLjg1MyAzMy4wODgtNzAuNDQyIDczLjk0MS03MC40NDJoNjg0LjA3NWM0MC44NTMgMCA3My45ODQgMjkuNTQ2IDczLjk4NCA3MC40NDJ2ODIuMDdjLTAuMDIyIDQwLjg3NC0zMy4xMzEgNzAuNDQyLTc0LjAwNiA3MC40NDJ6TTc4Mi4wMzcgNDYyLjIzYTUzLjYxIDUzLjYxIDAgMCAwLTUzLjU0NiA1My42MTEgNTMuNjUzIDUzLjY1MyAwIDAgMCA1My41NDYgNTMuNTQ3IDUzLjU5IDUzLjU5IDAgMSAwIDAtMTA3LjE3OXogbTgyLjYyNC0xMTEuMTA0SDE4MC42MDhjLTQwLjg1MyAwLTczLjk0MS0yOS42OTYtNzMuOTQxLTcwLjUyOHYtODEuOTg0YzAtNDAuOTE3IDMzLjA4OC03MC42MTMgNzMuOTQxLTcwLjYxM2g2ODQuMDc1YzQwLjg1MyAwIDczLjk4NCAyOS42OTYgNzMuOTg0IDcwLjYzNXY4MS45ODRjLTAuMDIyIDQwLjgxLTMzLjEzMSA3MC41MDYtNzQuMDA2IDcwLjUwNnpNNzgyLjAzNyAxODYuMDdhNTMuNTkgNTMuNTkgMCAwIDAtNTMuNTQ2IDUzLjU0NyA1My41NDcgNTMuNTQ3IDAgMCAwIDEwNy4wOTMgMCA1My41NDcgNTMuNTQ3IDAgMCAwLTUzLjU0Ny01My41NDd6IiBmaWxsPSIjMDBDMURFIiBwLWlkPSIzMzI4Ii8+PC9zdmc+" vertex="1" parent="uuMYFCACOVy0hHcjNsLC-116">
          <mxGeometry x="19" y="22" width="32" height="32" as="geometry" />
        </mxCell>
        <mxCell id="uuMYFCACOVy0hHcjNsLC-120" value="" style="shape=image;verticalLabelPosition=bottom;verticalAlign=top;imageAspect=0;aspect=fixed;image=data:image/svg+xml,PHN2ZyB4bWxucz0iaHR0cDovL3d3dy53My5vcmcvMjAwMC9zdmciIHhtbG5zOnhsaW5rPSJodHRwOi8vd3d3LnczLm9yZy8xOTk5L3hsaW5rIiB0PSIxNTc1MzUzNzE2OTQwIiBjbGFzcz0iaWNvbiIgdmlld0JveD0iMCAwIDEwMjQgMTAyNCIgdmVyc2lvbj0iMS4xIiBwLWlkPSIzMzI3IiB3aWR0aD0iMTI4IiBoZWlnaHQ9IjEyOCI+PGRlZnM+PHN0eWxlIHR5cGU9InRleHQvY3NzIi8+PC9kZWZzPjxwYXRoIGQ9Ik04NjQuNjYxIDkwMy41M0gxODAuNjA4Yy00MC44NTMgMC03My45NDEtMjkuNTY3LTczLjk0MS03MC41MDZ2LTgyLjAyN2MwLTQwLjg1MyAzMy4wODgtNzAuNDQyIDczLjk0MS03MC40NDJoNjg0LjA3NWM0MC44NTMgMCA3My45ODQgMjkuNTg5IDczLjk4NCA3MC40NDJ2ODIuMDI3Yy0wLjAyMiA0MC45MzktMzMuMTMxIDcwLjUwNy03NC4wMDYgNzAuNTA3eiBtLTgyLjYyNC0xNjQuOTlhNTMuNTQ3IDUzLjU0NyAwIDAgMC01My41NDYgNTMuNDgyIDUzLjU5IDUzLjU5IDAgMCAwIDUzLjU0NiA1My41NDcgNTMuNTI1IDUzLjUyNSAwIDAgMCAwLTEwNy4wMDh6IG04Mi42MjQtMTExLjMxOEgxODAuNjA4Yy00MC44NTMtMC4wMjEtNzMuOTQxLTI5LjU2OC03My45NDEtNzAuNDQydi04Mi4wN2MwLTQwLjg1MyAzMy4wODgtNzAuNDQyIDczLjk0MS03MC40NDJoNjg0LjA3NWM0MC44NTMgMCA3My45ODQgMjkuNTQ2IDczLjk4NCA3MC40NDJ2ODIuMDdjLTAuMDIyIDQwLjg3NC0zMy4xMzEgNzAuNDQyLTc0LjAwNiA3MC40NDJ6TTc4Mi4wMzcgNDYyLjIzYTUzLjYxIDUzLjYxIDAgMCAwLTUzLjU0NiA1My42MTEgNTMuNjUzIDUzLjY1MyAwIDAgMCA1My41NDYgNTMuNTQ3IDUzLjU5IDUzLjU5IDAgMSAwIDAtMTA3LjE3OXogbTgyLjYyNC0xMTEuMTA0SDE4MC42MDhjLTQwLjg1MyAwLTczLjk0MS0yOS42OTYtNzMuOTQxLTcwLjUyOHYtODEuOTg0YzAtNDAuOTE3IDMzLjA4OC03MC42MTMgNzMuOTQxLTcwLjYxM2g2ODQuMDc1YzQwLjg1MyAwIDczLjk4NCAyOS42OTYgNzMuOTg0IDcwLjYzNXY4MS45ODRjLTAuMDIyIDQwLjgxLTMzLjEzMSA3MC41MDYtNzQuMDA2IDcwLjUwNnpNNzgyLjAzNyAxODYuMDdhNTMuNTkgNTMuNTkgMCAwIDAtNTMuNTQ2IDUzLjU0NyA1My41NDcgNTMuNTQ3IDAgMCAwIDEwNy4wOTMgMCA1My41NDcgNTMuNTQ3IDAgMCAwLTUzLjU0Ny01My41NDd6IiBmaWxsPSIjMDBDMURFIiBwLWlkPSIzMzI4Ii8+PC9zdmc+" vertex="1" parent="uuMYFCACOVy0hHcjNsLC-116">
          <mxGeometry x="56" y="22" width="32" height="32" as="geometry" />
        </mxCell>
        <mxCell id="uuMYFCACOVy0hHcjNsLC-121" value="" style="shape=image;verticalLabelPosition=bottom;verticalAlign=top;imageAspect=0;aspect=fixed;image=data:image/svg+xml,PHN2ZyB4bWxucz0iaHR0cDovL3d3dy53My5vcmcvMjAwMC9zdmciIHhtbG5zOnhsaW5rPSJodHRwOi8vd3d3LnczLm9yZy8xOTk5L3hsaW5rIiB0PSIxNTc1MzUzNzE2OTQwIiBjbGFzcz0iaWNvbiIgdmlld0JveD0iMCAwIDEwMjQgMTAyNCIgdmVyc2lvbj0iMS4xIiBwLWlkPSIzMzI3IiB3aWR0aD0iMTI4IiBoZWlnaHQ9IjEyOCI+PGRlZnM+PHN0eWxlIHR5cGU9InRleHQvY3NzIi8+PC9kZWZzPjxwYXRoIGQ9Ik04NjQuNjYxIDkwMy41M0gxODAuNjA4Yy00MC44NTMgMC03My45NDEtMjkuNTY3LTczLjk0MS03MC41MDZ2LTgyLjAyN2MwLTQwLjg1MyAzMy4wODgtNzAuNDQyIDczLjk0MS03MC40NDJoNjg0LjA3NWM0MC44NTMgMCA3My45ODQgMjkuNTg5IDczLjk4NCA3MC40NDJ2ODIuMDI3Yy0wLjAyMiA0MC45MzktMzMuMTMxIDcwLjUwNy03NC4wMDYgNzAuNTA3eiBtLTgyLjYyNC0xNjQuOTlhNTMuNTQ3IDUzLjU0NyAwIDAgMC01My41NDYgNTMuNDgyIDUzLjU5IDUzLjU5IDAgMCAwIDUzLjU0NiA1My41NDcgNTMuNTI1IDUzLjUyNSAwIDAgMCAwLTEwNy4wMDh6IG04Mi42MjQtMTExLjMxOEgxODAuNjA4Yy00MC44NTMtMC4wMjEtNzMuOTQxLTI5LjU2OC03My45NDEtNzAuNDQydi04Mi4wN2MwLTQwLjg1MyAzMy4wODgtNzAuNDQyIDczLjk0MS03MC40NDJoNjg0LjA3NWM0MC44NTMgMCA3My45ODQgMjkuNTQ2IDczLjk4NCA3MC40NDJ2ODIuMDdjLTAuMDIyIDQwLjg3NC0zMy4xMzEgNzAuNDQyLTc0LjAwNiA3MC40NDJ6TTc4Mi4wMzcgNDYyLjIzYTUzLjYxIDUzLjYxIDAgMCAwLTUzLjU0NiA1My42MTEgNTMuNjUzIDUzLjY1MyAwIDAgMCA1My41NDYgNTMuNTQ3IDUzLjU5IDUzLjU5IDAgMSAwIDAtMTA3LjE3OXogbTgyLjYyNC0xMTEuMTA0SDE4MC42MDhjLTQwLjg1MyAwLTczLjk0MS0yOS42OTYtNzMuOTQxLTcwLjUyOHYtODEuOTg0YzAtNDAuOTE3IDMzLjA4OC03MC42MTMgNzMuOTQxLTcwLjYxM2g2ODQuMDc1YzQwLjg1MyAwIDczLjk4NCAyOS42OTYgNzMuOTg0IDcwLjYzNXY4MS45ODRjLTAuMDIyIDQwLjgxLTMzLjEzMSA3MC41MDYtNzQuMDA2IDcwLjUwNnpNNzgyLjAzNyAxODYuMDdhNTMuNTkgNTMuNTkgMCAwIDAtNTMuNTQ2IDUzLjU0NyA1My41NDcgNTMuNTQ3IDAgMCAwIDEwNy4wOTMgMCA1My41NDcgNTMuNTQ3IDAgMCAwLTUzLjU0Ny01My41NDd6IiBmaWxsPSIjMDBDMURFIiBwLWlkPSIzMzI4Ii8+PC9zdmc+" vertex="1" parent="uuMYFCACOVy0hHcjNsLC-116">
          <mxGeometry x="91" y="22" width="32" height="32" as="geometry" />
        </mxCell>
        <mxCell id="uuMYFCACOVy0hHcjNsLC-122" value="" style="shape=image;verticalLabelPosition=bottom;verticalAlign=top;imageAspect=0;aspect=fixed;image=data:image/svg+xml,PHN2ZyB4bWxucz0iaHR0cDovL3d3dy53My5vcmcvMjAwMC9zdmciIHhtbG5zOnhsaW5rPSJodHRwOi8vd3d3LnczLm9yZy8xOTk5L3hsaW5rIiB0PSIxNTc1MzUzNzE2OTQwIiBjbGFzcz0iaWNvbiIgdmlld0JveD0iMCAwIDEwMjQgMTAyNCIgdmVyc2lvbj0iMS4xIiBwLWlkPSIzMzI3IiB3aWR0aD0iMTI4IiBoZWlnaHQ9IjEyOCI+PGRlZnM+PHN0eWxlIHR5cGU9InRleHQvY3NzIi8+PC9kZWZzPjxwYXRoIGQ9Ik04NjQuNjYxIDkwMy41M0gxODAuNjA4Yy00MC44NTMgMC03My45NDEtMjkuNTY3LTczLjk0MS03MC41MDZ2LTgyLjAyN2MwLTQwLjg1MyAzMy4wODgtNzAuNDQyIDczLjk0MS03MC40NDJoNjg0LjA3NWM0MC44NTMgMCA3My45ODQgMjkuNTg5IDczLjk4NCA3MC40NDJ2ODIuMDI3Yy0wLjAyMiA0MC45MzktMzMuMTMxIDcwLjUwNy03NC4wMDYgNzAuNTA3eiBtLTgyLjYyNC0xNjQuOTlhNTMuNTQ3IDUzLjU0NyAwIDAgMC01My41NDYgNTMuNDgyIDUzLjU5IDUzLjU5IDAgMCAwIDUzLjU0NiA1My41NDcgNTMuNTI1IDUzLjUyNSAwIDAgMCAwLTEwNy4wMDh6IG04Mi42MjQtMTExLjMxOEgxODAuNjA4Yy00MC44NTMtMC4wMjEtNzMuOTQxLTI5LjU2OC03My45NDEtNzAuNDQydi04Mi4wN2MwLTQwLjg1MyAzMy4wODgtNzAuNDQyIDczLjk0MS03MC40NDJoNjg0LjA3NWM0MC44NTMgMCA3My45ODQgMjkuNTQ2IDczLjk4NCA3MC40NDJ2ODIuMDdjLTAuMDIyIDQwLjg3NC0zMy4xMzEgNzAuNDQyLTc0LjAwNiA3MC40NDJ6TTc4Mi4wMzcgNDYyLjIzYTUzLjYxIDUzLjYxIDAgMCAwLTUzLjU0NiA1My42MTEgNTMuNjUzIDUzLjY1MyAwIDAgMCA1My41NDYgNTMuNTQ3IDUzLjU5IDUzLjU5IDAgMSAwIDAtMTA3LjE3OXogbTgyLjYyNC0xMTEuMTA0SDE4MC42MDhjLTQwLjg1MyAwLTczLjk0MS0yOS42OTYtNzMuOTQxLTcwLjUyOHYtODEuOTg0YzAtNDAuOTE3IDMzLjA4OC03MC42MTMgNzMuOTQxLTcwLjYxM2g2ODQuMDc1YzQwLjg1MyAwIDczLjk4NCAyOS42OTYgNzMuOTg0IDcwLjYzNXY4MS45ODRjLTAuMDIyIDQwLjgxLTMzLjEzMSA3MC41MDYtNzQuMDA2IDcwLjUwNnpNNzgyLjAzNyAxODYuMDdhNTMuNTkgNTMuNTkgMCAwIDAtNTMuNTQ2IDUzLjU0NyA1My41NDcgNTMuNTQ3IDAgMCAwIDEwNy4wOTMgMCA1My41NDcgNTMuNTQ3IDAgMCAwLTUzLjU0Ny01My41NDd6IiBmaWxsPSIjMDBDMURFIiBwLWlkPSIzMzI4Ii8+PC9zdmc+" vertex="1" parent="uuMYFCACOVy0hHcjNsLC-116">
          <mxGeometry x="19" y="56" width="32" height="32" as="geometry" />
        </mxCell>
        <mxCell id="uuMYFCACOVy0hHcjNsLC-123" value="" style="shape=image;verticalLabelPosition=bottom;verticalAlign=top;imageAspect=0;aspect=fixed;image=data:image/svg+xml,PHN2ZyB4bWxucz0iaHR0cDovL3d3dy53My5vcmcvMjAwMC9zdmciIHhtbG5zOnhsaW5rPSJodHRwOi8vd3d3LnczLm9yZy8xOTk5L3hsaW5rIiB0PSIxNTc1MzUzNzE2OTQwIiBjbGFzcz0iaWNvbiIgdmlld0JveD0iMCAwIDEwMjQgMTAyNCIgdmVyc2lvbj0iMS4xIiBwLWlkPSIzMzI3IiB3aWR0aD0iMTI4IiBoZWlnaHQ9IjEyOCI+PGRlZnM+PHN0eWxlIHR5cGU9InRleHQvY3NzIi8+PC9kZWZzPjxwYXRoIGQ9Ik04NjQuNjYxIDkwMy41M0gxODAuNjA4Yy00MC44NTMgMC03My45NDEtMjkuNTY3LTczLjk0MS03MC41MDZ2LTgyLjAyN2MwLTQwLjg1MyAzMy4wODgtNzAuNDQyIDczLjk0MS03MC40NDJoNjg0LjA3NWM0MC44NTMgMCA3My45ODQgMjkuNTg5IDczLjk4NCA3MC40NDJ2ODIuMDI3Yy0wLjAyMiA0MC45MzktMzMuMTMxIDcwLjUwNy03NC4wMDYgNzAuNTA3eiBtLTgyLjYyNC0xNjQuOTlhNTMuNTQ3IDUzLjU0NyAwIDAgMC01My41NDYgNTMuNDgyIDUzLjU5IDUzLjU5IDAgMCAwIDUzLjU0NiA1My41NDcgNTMuNTI1IDUzLjUyNSAwIDAgMCAwLTEwNy4wMDh6IG04Mi42MjQtMTExLjMxOEgxODAuNjA4Yy00MC44NTMtMC4wMjEtNzMuOTQxLTI5LjU2OC03My45NDEtNzAuNDQydi04Mi4wN2MwLTQwLjg1MyAzMy4wODgtNzAuNDQyIDczLjk0MS03MC40NDJoNjg0LjA3NWM0MC44NTMgMCA3My45ODQgMjkuNTQ2IDczLjk4NCA3MC40NDJ2ODIuMDdjLTAuMDIyIDQwLjg3NC0zMy4xMzEgNzAuNDQyLTc0LjAwNiA3MC40NDJ6TTc4Mi4wMzcgNDYyLjIzYTUzLjYxIDUzLjYxIDAgMCAwLTUzLjU0NiA1My42MTEgNTMuNjUzIDUzLjY1MyAwIDAgMCA1My41NDYgNTMuNTQ3IDUzLjU5IDUzLjU5IDAgMSAwIDAtMTA3LjE3OXogbTgyLjYyNC0xMTEuMTA0SDE4MC42MDhjLTQwLjg1MyAwLTczLjk0MS0yOS42OTYtNzMuOTQxLTcwLjUyOHYtODEuOTg0YzAtNDAuOTE3IDMzLjA4OC03MC42MTMgNzMuOTQxLTcwLjYxM2g2ODQuMDc1YzQwLjg1MyAwIDczLjk4NCAyOS42OTYgNzMuOTg0IDcwLjYzNXY4MS45ODRjLTAuMDIyIDQwLjgxLTMzLjEzMSA3MC41MDYtNzQuMDA2IDcwLjUwNnpNNzgyLjAzNyAxODYuMDdhNTMuNTkgNTMuNTkgMCAwIDAtNTMuNTQ2IDUzLjU0NyA1My41NDcgNTMuNTQ3IDAgMCAwIDEwNy4wOTMgMCA1My41NDcgNTMuNTQ3IDAgMCAwLTUzLjU0Ny01My41NDd6IiBmaWxsPSIjMDBDMURFIiBwLWlkPSIzMzI4Ii8+PC9zdmc+" vertex="1" parent="uuMYFCACOVy0hHcjNsLC-116">
          <mxGeometry x="56" y="55" width="32" height="32" as="geometry" />
        </mxCell>
        <mxCell id="uuMYFCACOVy0hHcjNsLC-124" value="" style="shape=image;verticalLabelPosition=bottom;verticalAlign=top;imageAspect=0;aspect=fixed;image=data:image/svg+xml,PHN2ZyB4bWxucz0iaHR0cDovL3d3dy53My5vcmcvMjAwMC9zdmciIHhtbG5zOnhsaW5rPSJodHRwOi8vd3d3LnczLm9yZy8xOTk5L3hsaW5rIiB0PSIxNTc1MzUzNzE2OTQwIiBjbGFzcz0iaWNvbiIgdmlld0JveD0iMCAwIDEwMjQgMTAyNCIgdmVyc2lvbj0iMS4xIiBwLWlkPSIzMzI3IiB3aWR0aD0iMTI4IiBoZWlnaHQ9IjEyOCI+PGRlZnM+PHN0eWxlIHR5cGU9InRleHQvY3NzIi8+PC9kZWZzPjxwYXRoIGQ9Ik04NjQuNjYxIDkwMy41M0gxODAuNjA4Yy00MC44NTMgMC03My45NDEtMjkuNTY3LTczLjk0MS03MC41MDZ2LTgyLjAyN2MwLTQwLjg1MyAzMy4wODgtNzAuNDQyIDczLjk0MS03MC40NDJoNjg0LjA3NWM0MC44NTMgMCA3My45ODQgMjkuNTg5IDczLjk4NCA3MC40NDJ2ODIuMDI3Yy0wLjAyMiA0MC45MzktMzMuMTMxIDcwLjUwNy03NC4wMDYgNzAuNTA3eiBtLTgyLjYyNC0xNjQuOTlhNTMuNTQ3IDUzLjU0NyAwIDAgMC01My41NDYgNTMuNDgyIDUzLjU5IDUzLjU5IDAgMCAwIDUzLjU0NiA1My41NDcgNTMuNTI1IDUzLjUyNSAwIDAgMCAwLTEwNy4wMDh6IG04Mi42MjQtMTExLjMxOEgxODAuNjA4Yy00MC44NTMtMC4wMjEtNzMuOTQxLTI5LjU2OC03My45NDEtNzAuNDQydi04Mi4wN2MwLTQwLjg1MyAzMy4wODgtNzAuNDQyIDczLjk0MS03MC40NDJoNjg0LjA3NWM0MC44NTMgMCA3My45ODQgMjkuNTQ2IDczLjk4NCA3MC40NDJ2ODIuMDdjLTAuMDIyIDQwLjg3NC0zMy4xMzEgNzAuNDQyLTc0LjAwNiA3MC40NDJ6TTc4Mi4wMzcgNDYyLjIzYTUzLjYxIDUzLjYxIDAgMCAwLTUzLjU0NiA1My42MTEgNTMuNjUzIDUzLjY1MyAwIDAgMCA1My41NDYgNTMuNTQ3IDUzLjU5IDUzLjU5IDAgMSAwIDAtMTA3LjE3OXogbTgyLjYyNC0xMTEuMTA0SDE4MC42MDhjLTQwLjg1MyAwLTczLjk0MS0yOS42OTYtNzMuOTQxLTcwLjUyOHYtODEuOTg0YzAtNDAuOTE3IDMzLjA4OC03MC42MTMgNzMuOTQxLTcwLjYxM2g2ODQuMDc1YzQwLjg1MyAwIDczLjk4NCAyOS42OTYgNzMuOTg0IDcwLjYzNXY4MS45ODRjLTAuMDIyIDQwLjgxLTMzLjEzMSA3MC41MDYtNzQuMDA2IDcwLjUwNnpNNzgyLjAzNyAxODYuMDdhNTMuNTkgNTMuNTkgMCAwIDAtNTMuNTQ2IDUzLjU0NyA1My41NDcgNTMuNTQ3IDAgMCAwIDEwNy4wOTMgMCA1My41NDcgNTMuNTQ3IDAgMCAwLTUzLjU0Ny01My41NDd6IiBmaWxsPSIjMDBDMURFIiBwLWlkPSIzMzI4Ii8+PC9zdmc+" vertex="1" parent="uuMYFCACOVy0hHcjNsLC-116">
          <mxGeometry x="91" y="54" width="32" height="32" as="geometry" />
        </mxCell>
        <mxCell id="uuMYFCACOVy0hHcjNsLC-125" style="edgeStyle=orthogonalEdgeStyle;rounded=0;orthogonalLoop=1;jettySize=auto;html=1;exitX=1;exitY=0.75;exitDx=0;exitDy=0;entryX=0;entryY=0.5;entryDx=0;entryDy=0;strokeWidth=2;dashed=1;strokeColor=#66FF66;" edge="1" parent="1" source="uuMYFCACOVy0hHcjNsLC-126" target="uuMYFCACOVy0hHcjNsLC-118">
          <mxGeometry relative="1" as="geometry" />
        </mxCell>
        <mxCell id="uuMYFCACOVy0hHcjNsLC-126" value="im SLB" style="shape=image;verticalLabelPosition=bottom;verticalAlign=top;imageAspect=0;aspect=fixed;image=data:image/svg+xml,PHN2ZyB4bWxucz0iaHR0cDovL3d3dy53My5vcmcvMjAwMC9zdmciIHhtbG5zOnhsaW5rPSJodHRwOi8vd3d3LnczLm9yZy8xOTk5L3hsaW5rIiB0PSIxNTc1MzYzOTIxMzg4IiBjbGFzcz0iaWNvbiIgdmlld0JveD0iMCAwIDEwMjQgMTAyNCIgdmVyc2lvbj0iMS4xIiBwLWlkPSIzNTkzIiB3aWR0aD0iMTI4IiBoZWlnaHQ9IjEyOCI+PGRlZnM+PHN0eWxlIHR5cGU9InRleHQvY3NzIi8+PC9kZWZzPjxwYXRoIGQ9Ik03NzYuMDQzIDU0OC42M2MtMjQuNzY4IDAuMTA2LTQ4LjEyOCA2LjM3OC02OS4xNDIgMTYuNDY5bC04OS40NS0xMzMuODY3YzMzLjM2NS0yOS43MzkgNTQuNjU2LTcyLjY4MyA1NC40LTEyMC43MDQtMC40MjctODkuMjM3LTczLjE5NS0xNjEuNjIxLTE2Mi40OTYtMTYxLjE5NS04OS4yOCAwLjQyNy0xNjEuNDMgNzMuNDk0LTE2MS4wMjQgMTYyLjYyNCAwLjIxMyA0OC4wNjQgMjEuOTczIDkwLjY4OCA1NS4zODEgMTIwLjI1NmwtODguMDQzIDEzNC42NzhjLTIxLjIwNS05Ljk2My00NC40MzctMTUuOTM2LTY5LjMzMy0xNS44My04OS4xNTIgMC4zNjMtMTYxLjQzIDczLjM2Ni0xNjEuMDAzIDE2Mi42MjQgMC4yOTkgODkuMTUyIDczLjE5NSAxNjEuNDUxIDE2Mi40OTYgMTYwLjk2IDgxLjQ1MS0wLjMyIDE0OC4wNTQtNjEuMjY5IDE1OC44Ny0xMzkuODRsMjEwLjczLTEuMDAyYzExLjQzNSA3OC41MDYgNzguNTkyIDEzOC44NTggMTYwLjEwNyAxMzguNTE3IDg5LjIzNy0wLjQyNyAxNjEuNDMtNzMuMzAxIDE2MS4xMy0xNjIuNTYtMC40NjktODkuMjM3LTczLjQ3MS0xNjEuNTM2LTE2Mi42MjMtMTYxLjEzeiBtLTE1OC44NyAxMzkuODRsLTIxMC43MyAwLjk2YTE2MS4xMyAxNjEuMTMgMCAwIDAtNTIuOTcxLTk3LjZMNDQxLjYgNDU3LjExYzIxLjE0MSA5Ljk2MiA0NC40MzcgMTYuMDQyIDY5LjI3IDE1LjgyOWExNTkuOTU3IDE1OS45NTcgMCAwIDAgNjkuMTYyLTE2LjM4NEw2NjkuNTI1IDU5MC40YTE2MC4zMiAxNjAuMzIgMCAwIDAtNTIuMzUyIDk4LjA3eiIgZmlsbD0iIzAwQzFERSIgcC1pZD0iMzU5NCIvPjwvc3ZnPg==;fontColor=#EA6B66;spacing=-6;" vertex="1" parent="1">
          <mxGeometry x="370" y="554.25" width="40" height="40" as="geometry" />
        </mxCell>
        <mxCell id="uuMYFCACOVy0hHcjNsLC-127" value="RDS" style="shape=image;verticalLabelPosition=bottom;verticalAlign=top;imageAspect=0;aspect=fixed;image=data:image/svg+xml,PHN2ZyB4bWxucz0iaHR0cDovL3d3dy53My5vcmcvMjAwMC9zdmciIHhtbG5zOnhsaW5rPSJodHRwOi8vd3d3LnczLm9yZy8xOTk5L3hsaW5rIiB0PSIxNTc1MzYyNDUzNzI0IiBjbGFzcz0iaWNvbiIgdmlld0JveD0iMCAwIDEwMjQgMTAyNCIgdmVyc2lvbj0iMS4xIiBwLWlkPSI1MDUwIiB3aWR0aD0iMTI4IiBoZWlnaHQ9IjEyOCI+PGRlZnM+PHN0eWxlIHR5cGU9InRleHQvY3NzIi8+PC9kZWZzPjxwYXRoIGQ9Ik03NTMuMDY3IDIyMS44NjdjLTIuMTM0IDAtOC41MzQtMi4xMzQtMTAuNjY3LTIuMTM0QzY2NS42IDE0OS4zMzMgNTY1LjMzMyAxMjggNTI0LjggMTI4Yy00MC41MzMgMi4xMzMtOTguMTMzIDI1LjYtMTIxLjYgNjQtMzIgOC41MzMtNzYuOCAxNy4wNjctOTYgNDYuOTMzLTE3LjA2NyAyNy43MzQgNDIuNjY3IDQ0LjggNjEuODY3IDUxLjIgOC41MzMgMi4xMzQgNDkuMDY2IDEyLjggMTAwLjI2NiAzNC4xMzRsMi4xMzQgMi4xMzN2Mi4xMzNjLTIuMTM0IDguNTM0LTIuMTM0IDIxLjMzNCA0LjI2NiA0OS4wNjcgMTkuMiA1NS40NjcgNDkuMDY3IDkzLjg2NyA2Ni4xMzQgODkuNiAxMi44LTQuMjY3IDEwLjY2Ni02OC4yNjcgMTcuMDY2LTg5LjYgMCAwIDIuMTM0LTIuMTMzIDQuMjY3LTIuMTMzaDQuMjY3Yzc2LjggNDkuMDY2IDEzNi41MzMgMTI1Ljg2NiAxNTcuODY2IDIyMS44NjZDNzUwLjkzMyA3MDQgNzIzLjIgODEyLjggNjYzLjQ2NyA4OTZjMTAuNjY2LTIuMTMzIDE3LjA2Ni02LjQgMzItMTcuMDY3IDIzLjQ2Ni0xNy4wNjYgNDQuOC00MC41MzMgNjEuODY2LTY0Qzg4MS4wNjcgNjQwIDg5My44NjcgNDczLjYgODI3LjczMyAzMzAuNjY3YzAtMi4xMzQtMi4xMzMtMi4xMzQtMi4xMzMtNC4yNjctMi4xMzMtMTkuMiA3NC42NjctMjMuNDY3IDkzLjg2Ny0zNC4xMzMgMTAuNjY2LTE5LjItMTE1LjItNzYuOC0xNjYuNC03MC40eiIgZmlsbD0iIzAwQzFERSIgcC1pZD0iNTA1MSIvPjxwYXRoIGQ9Ik02MzEuNDY3IDY2My40NjdsNTUuNDY2LTg5LjZjLTYuNC0xMi44LTEwLjY2Ni0yNS42LTE3LjA2Ni0zNi4yNjdsLTU3LjYgOTEuNzMzSDUwMS4zMzNsNjQgMTA0LjUzNC03NC42NjYgMTE5LjQ2NkgzNDEuMzMzbC03NC42NjYtMTIxLjYgNjQtMTA0LjUzM0gyMTkuNzMzbC03NC42NjYtMTIxLjZMMjE5LjczMyAzODRoMTQ5LjMzNGw0NC44IDc0LjY2NyAyOS44NjYtNDYuOTM0Yy0yLjEzMy0yLjEzMy0yLjEzMy02LjQtNC4yNjYtOC41MzMtNC4yNjctMTcuMDY3LTYuNC0yOS44NjctNi40LTQwLjUzM2wtMTkuMiAyOS44NjYtMjUuNi00Mi42NjZoLTE4NS42bC05NiAxNTcuODY2IDk2IDE1NS43MzRoNjguMjY2bC00Mi42NjYgNzAuNCA5NiAxNTUuNzMzSDUxMmw5Ni0xNTUuNzMzLTQyLjY2Ny03MC40aDY2LjEzNHoiIGZpbGw9IiMwMEMxREUiIHAtaWQ9IjUwNTIiLz48L3N2Zz4=;fillColor=none;fontColor=#EA6B66;fontSize=8;spacing=-6;" vertex="1" parent="1">
          <mxGeometry x="916" y="560.5" width="27.5" height="27.5" as="geometry" />
        </mxCell>
        <mxCell id="uuMYFCACOVy0hHcjNsLC-128" value="Redis" style="shape=image;verticalLabelPosition=bottom;verticalAlign=top;imageAspect=0;aspect=fixed;image=data:image/svg+xml,PHN2ZyB4bWxucz0iaHR0cDovL3d3dy53My5vcmcvMjAwMC9zdmciIHhtbG5zOnhsaW5rPSJodHRwOi8vd3d3LnczLm9yZy8xOTk5L3hsaW5rIiB0PSIxNTc1MzYyNzE4MjMxIiBjbGFzcz0iaWNvbiIgdmlld0JveD0iMCAwIDEwMjQgMTAyNCIgdmVyc2lvbj0iMS4xIiBwLWlkPSI1ODUzIiB3aWR0aD0iMTI4IiBoZWlnaHQ9IjEyOCI+PGRlZnM+PHN0eWxlIHR5cGU9InRleHQvY3NzIi8+PC9kZWZzPjxwYXRoIGQ9Ik01MTAuMjA4IDIxMy43ODFsLTEwMS44MDMgMzQuNzc0TDM0Mi43IDIwOS45NGwxNjguODEtNjAuNjA4TDY4MS42NDMgMjExLjVsLTY0LjQ0OCAzNy4wNTYtMTA2Ljk2Ni0zNC43NzR6IG0xLjI4IDIwMS40M2wxMDEuODI0LTM0LjgxNiA2NS43MjggMzguNjk4LTE2OC44MzIgNjAuNTIzLTE3MC4wNy02Mi4wOCA2NC40MDYtMzcuMTQxIDEwNi45NDQgMzQuODE2eiBtLTE1NS4wOTMtNTEuOTA0bC02OS4xMiAzMy40OTNMNjUuNjIgMzE0LjMwNGwyMjUuNTE1LTgzLjM3IDY1Ljc1IDM4Ljg0Ny0xMjIuNDExIDQ0LjUyMyAxMjEuODk4IDQ5LjAwM3ogbTQzNC42NDUtNDkuMDAzbC0xMjIuNDEtNDQuNTIzIDY1LjcwNi0zOC44NDggMjI1LjU1NyA4My4zNzFMNzM4LjE3NiAzOTYuOGwtNjkuMDk5LTMzLjQ5MyAxMjEuOTYzLTQ5LjAwM3pNNTExLjQ4OCA2MDguNzQ3TDY0Ljk2IDQzMy42NDMgNjQgMzQ0Ljg5Nmw0NDcuNDg4IDE3NC45MzMgNDQ3LjU3My0xNzIuOTkydjg5LjQzbC00NDcuNTczIDE3Mi40OHogbTEuMDI0IDMzLjY2NEw5NjAgNDY5LjM3NnY4OS40OTNMNTEyLjUxMiA3MzEuMjg1IDY1Ljk2MiA1NTYuMjI0bC0xLjAwMi04OC43NDcgNDQ3LjU1MiAxNzQuOTM0ek02NC45MzkgNTkxLjA2bDQ0Ny41NzMgMTc0LjkzNEw5NjAgNTkzLjAwM3Y4OS40NzJsLTQ0Ny40ODggMTcyLjQ4TDY1Ljk2MiA2NzkuODVsLTEuMDAyLTg4Ljc2OHoiIGZpbGw9IiMwMEMxREUiIHAtaWQ9IjU4NTQiLz48L3N2Zz4=;fillColor=none;fontColor=#EA6B66;fontSize=8;spacing=-6;" vertex="1" parent="1">
          <mxGeometry x="917.75" y="592.5" width="27" height="27" as="geometry" />
        </mxCell>
        <mxCell id="uuMYFCACOVy0hHcjNsLC-129" value="Hbase" style="shape=image;verticalLabelPosition=bottom;verticalAlign=top;imageAspect=0;aspect=fixed;image=data:image/svg+xml,PHN2ZyB4bWxucz0iaHR0cDovL3d3dy53My5vcmcvMjAwMC9zdmciIHhtbG5zOnhsaW5rPSJodHRwOi8vd3d3LnczLm9yZy8xOTk5L3hsaW5rIiB0PSIxNTc1MzYzNDI0OTAyIiBjbGFzcz0iaWNvbiIgdmlld0JveD0iMCAwIDEwMjQgMTAyNCIgdmVyc2lvbj0iMS4xIiBwLWlkPSI1OTg2IiB3aWR0aD0iMTI4IiBoZWlnaHQ9IjEyOCI+PGRlZnM+PHN0eWxlIHR5cGU9InRleHQvY3NzIi8+PC9kZWZzPjxwYXRoIGQ9Ik03OTAuNTcgODAwLjUxMmMwLTE1LjcwMSAxMi42NzMtMjguNTAxIDI4LjI2Ny0yOC41MDEgMTUuNTc0IDAgMjguMjQ2IDEyLjggMjguMjQ2IDI4LjUwMSAwIDE1LjcyMy0xMi42NzIgMjguNTAxLTI4LjI0NiAyOC41MDEtMTUuNTk0IDAtMjguMjY2LTEyLjgtMjguMjY2LTI4LjUwMW0xMTMuMjggMGMwLTQ3LjE0Ny0zOC4yOTQtODUuNDgzLTg1LjAxNC04NS40ODMtMzQuMTMzIDAtNTQuNjc3IDEzLjM5OC02OS4wOTggMzguMTg3LTI2LjI0LTE0LjUyOC0yOS42NTQtODIuOTAxLTMxLjI1NC0xMjguODFWNDM3LjU2N2E4Ni41NyA4Ni41NyAwIDAgMCA1OS4xNTgtODIuMzA0YzAtNDcuODUtMzguNDQzLTg2LjYzNS04NS45MS04Ni42MzUtNDcuNDQ1IDAtODUuOTA5IDM4Ljc4NC04NS45MDkgODYuNjE0YTg2LjU3IDg2LjU3IDAgMCAwIDU4LjI4MyA4MS45ODR2MTg3LjE3OGMxLjc3IDkyLjA1NCA2LjAxNiAxNTYuOTkyIDczLjY0MiAxOTkuNjU5IDkuMzg3IDM2LjkwNyA0Mi4xNzYgNjEuOTMgODEuNjQzIDYxLjkzIDQ2LjcyIDAgODQuNDgtMzguMzM1IDg0LjQ4LTg1LjQ4Mk01MDcuMzcxIDIyMS4wMTNjLTE2Ljg1NCAwLTMwLjUwNy0xMy43ODEtMzAuNTA3LTMwLjc2MiAwLTE2Ljk2IDEzLjY1My0zMC43NDIgMzAuNTA3LTMwLjc0MiAxNi44NTMgMCAzMC41MDYgMTMuNzgyIDMwLjUwNiAzMC43NDIgMCAxNi45ODEtMTMuNjUzIDMwLjc2Mi0zMC41MDYgMzAuNzYybTMwLjY1NiA0OTQuMTAydi00MzguNGMyNy44ODItMTIuMDU0IDU3LjYtNDQuMzk1IDU3LjYtODIuNDU0IDAtNDguMzQxLTM5LjMzOS04Ny41OTQtODcuMjMyLTg3LjU5NHMtODUuOTEgMzkuMjc0LTg1LjkxIDg3LjU5NGMwIDM4LjA1OSAxNy45NjMgNzAuNCA1OS43NzYgODIuNDU0djQzOC40Yy00MS44MTMgMTIuMDUzLTU5LjU4NCA0NC40MTYtNTkuNTg0IDgyLjQ3NCAwIDQ4LjI5OSAzNy4yNyA4Ny41OTUgODUuMTg0IDg3LjU5NSA0Ny44NzIgMCA4Ny4yNTQtMzkuMjk2IDg3LjI1NC04Ny41OTUgMC0zOC4wNTgtMjkuMjI3LTcwLjQtNTcuMTEtODIuNDc0IiBmaWxsPSIjMDBDMURFIiBwLWlkPSI1OTg3Ii8+PHBhdGggZD0iTTIxMy4wMzUgODI5LjAxM2MtMTUuNTc0IDAtMjguMjQ2LTEyLjgtMjguMjQ2LTI4LjUwMXMxMi42NzItMjguNDggMjguMjQ2LTI4LjQ4YzE1LjU3MyAwIDI4LjI2NiAxMi43NzkgMjguMjY2IDI4LjQ4cy0xMi42OTMgMjguNTAxLTI4LjI2NiAyOC41MDFtLTAuNTM0IDU2Ljk2YzM5LjQ2NyAwIDcyLjIzNS0yNS4wMjQgODEuNjIyLTYxLjkwOSA2Ny42MjYtNDIuNjY3IDcxLjg3Mi0xMDcuNjA1IDczLjY2NC0xOTkuNjM3di0xODcuMmE4Ni41MDcgODYuNTA3IDAgMCAwIDU4LjI0LTgxLjk2M2MwLTQ3Ljg1LTM4LjQ0My04Ni42MTMtODUuOTEtODYuNjEzLTQ3LjQyNCAwLTg1LjkwOSAzOC43NjItODUuOTA5IDg2LjYxMyAwIDM4LjQgMjQuODMyIDcwLjk1NSA1OS4xNTcgODIuMjgzdjE4Ni44OGMtMS41NzggNDUuOTA5LTQuOTcgMTE0LjI0LTMxLjI1MyAxMjguNzY4LTE0LjQtMjQuNzY4LTM0LjkyMy0zOC4xNDQtNjkuMDc3LTM4LjE0NC00Ni43MiAwLTg1LjAzNSAzOC4zMzYtODUuMDM1IDg1LjQ2MSAwIDQ3LjE0NyAzNy43NiA4NS40ODMgODQuNDggODUuNDgzIiBmaWxsPSIjMDBDMURFIiBwLWlkPSI1OTg4Ii8+PC9zdmc+;fontColor=#EA6B66;spacing=-6;fontSize=8;" vertex="1" parent="1">
          <mxGeometry x="917.75" y="627.5" width="27" height="27" as="geometry" />
        </mxCell>
        <mxCell id="uuMYFCACOVy0hHcjNsLC-130" style="edgeStyle=orthogonalEdgeStyle;rounded=0;orthogonalLoop=1;jettySize=auto;html=1;exitX=1;exitY=0.5;exitDx=0;exitDy=0;entryX=0;entryY=0.5;entryDx=0;entryDy=0;strokeWidth=2;dashed=1;strokeColor=#66FF66;" edge="1" parent="1" source="uuMYFCACOVy0hHcjNsLC-118" target="uuMYFCACOVy0hHcjNsLC-127">
          <mxGeometry relative="1" as="geometry">
            <Array as="points">
              <mxPoint x="766" y="585" />
              <mxPoint x="766" y="574" />
            </Array>
          </mxGeometry>
        </mxCell>
        <mxCell id="uuMYFCACOVy0hHcjNsLC-131" style="edgeStyle=orthogonalEdgeStyle;rounded=0;orthogonalLoop=1;jettySize=auto;html=1;exitX=1;exitY=0.5;exitDx=0;exitDy=0;entryX=0;entryY=0.5;entryDx=0;entryDy=0;strokeWidth=2;dashed=1;strokeColor=#66FF66;" edge="1" parent="1" source="uuMYFCACOVy0hHcjNsLC-118" target="uuMYFCACOVy0hHcjNsLC-128">
          <mxGeometry relative="1" as="geometry">
            <Array as="points">
              <mxPoint x="765" y="585" />
              <mxPoint x="765" y="606" />
            </Array>
          </mxGeometry>
        </mxCell>
        <mxCell id="uuMYFCACOVy0hHcjNsLC-132" style="edgeStyle=orthogonalEdgeStyle;rounded=0;orthogonalLoop=1;jettySize=auto;html=1;exitX=1;exitY=0.5;exitDx=0;exitDy=0;strokeWidth=2;dashed=1;strokeColor=#66FF66;" edge="1" parent="1" source="uuMYFCACOVy0hHcjNsLC-118" target="uuMYFCACOVy0hHcjNsLC-129">
          <mxGeometry relative="1" as="geometry">
            <Array as="points">
              <mxPoint x="765" y="585" />
              <mxPoint x="765" y="641" />
            </Array>
          </mxGeometry>
        </mxCell>
        <mxCell id="uuMYFCACOVy0hHcjNsLC-133" style="edgeStyle=orthogonalEdgeStyle;rounded=0;orthogonalLoop=1;jettySize=auto;html=1;exitX=1;exitY=0.5;exitDx=0;exitDy=0;entryX=-0.011;entryY=0.93;entryDx=0;entryDy=0;strokeWidth=2;dashed=1;strokeColor=#66FF66;entryPerimeter=0;" edge="1" parent="1" source="uuMYFCACOVy0hHcjNsLC-134" target="uuMYFCACOVy0hHcjNsLC-28">
          <mxGeometry relative="1" as="geometry" />
        </mxCell>
        <mxCell id="uuMYFCACOVy0hHcjNsLC-134" value="third Ingress SLB" style="shape=image;verticalLabelPosition=bottom;verticalAlign=top;imageAspect=0;aspect=fixed;image=data:image/svg+xml,PHN2ZyB4bWxucz0iaHR0cDovL3d3dy53My5vcmcvMjAwMC9zdmciIHhtbG5zOnhsaW5rPSJodHRwOi8vd3d3LnczLm9yZy8xOTk5L3hsaW5rIiB0PSIxNTc1MzYzOTIxMzg4IiBjbGFzcz0iaWNvbiIgdmlld0JveD0iMCAwIDEwMjQgMTAyNCIgdmVyc2lvbj0iMS4xIiBwLWlkPSIzNTkzIiB3aWR0aD0iMTI4IiBoZWlnaHQ9IjEyOCI+PGRlZnM+PHN0eWxlIHR5cGU9InRleHQvY3NzIi8+PC9kZWZzPjxwYXRoIGQ9Ik03NzYuMDQzIDU0OC42M2MtMjQuNzY4IDAuMTA2LTQ4LjEyOCA2LjM3OC02OS4xNDIgMTYuNDY5bC04OS40NS0xMzMuODY3YzMzLjM2NS0yOS43MzkgNTQuNjU2LTcyLjY4MyA1NC40LTEyMC43MDQtMC40MjctODkuMjM3LTczLjE5NS0xNjEuNjIxLTE2Mi40OTYtMTYxLjE5NS04OS4yOCAwLjQyNy0xNjEuNDMgNzMuNDk0LTE2MS4wMjQgMTYyLjYyNCAwLjIxMyA0OC4wNjQgMjEuOTczIDkwLjY4OCA1NS4zODEgMTIwLjI1NmwtODguMDQzIDEzNC42NzhjLTIxLjIwNS05Ljk2My00NC40MzctMTUuOTM2LTY5LjMzMy0xNS44My04OS4xNTIgMC4zNjMtMTYxLjQzIDczLjM2Ni0xNjEuMDAzIDE2Mi42MjQgMC4yOTkgODkuMTUyIDczLjE5NSAxNjEuNDUxIDE2Mi40OTYgMTYwLjk2IDgxLjQ1MS0wLjMyIDE0OC4wNTQtNjEuMjY5IDE1OC44Ny0xMzkuODRsMjEwLjczLTEuMDAyYzExLjQzNSA3OC41MDYgNzguNTkyIDEzOC44NTggMTYwLjEwNyAxMzguNTE3IDg5LjIzNy0wLjQyNyAxNjEuNDMtNzMuMzAxIDE2MS4xMy0xNjIuNTYtMC40NjktODkuMjM3LTczLjQ3MS0xNjEuNTM2LTE2Mi42MjMtMTYxLjEzeiBtLTE1OC44NyAxMzkuODRsLTIxMC43MyAwLjk2YTE2MS4xMyAxNjEuMTMgMCAwIDAtNTIuOTcxLTk3LjZMNDQxLjYgNDU3LjExYzIxLjE0MSA5Ljk2MiA0NC40MzcgMTYuMDQyIDY5LjI3IDE1LjgyOWExNTkuOTU3IDE1OS45NTcgMCAwIDAgNjkuMTYyLTE2LjM4NEw2NjkuNTI1IDU5MC40YTE2MC4zMiAxNjAuMzIgMCAwIDAtNTIuMzUyIDk4LjA3eiIgZmlsbD0iIzAwQzFERSIgcC1pZD0iMzU5NCIvPjwvc3ZnPg==;fontColor=#EA6B66;spacing=-6;fontSize=8;" vertex="1" parent="1">
          <mxGeometry x="217" y="341" width="37" height="37" as="geometry" />
        </mxCell>
        <mxCell id="uuMYFCACOVy0hHcjNsLC-135" value="第三方服务" style="shape=image;verticalLabelPosition=bottom;verticalAlign=top;imageAspect=0;aspect=fixed;image=data:image/svg+xml,PHN2ZyB4bWxucz0iaHR0cDovL3d3dy53My5vcmcvMjAwMC9zdmciIHhtbG5zOnhsaW5rPSJodHRwOi8vd3d3LnczLm9yZy8xOTk5L3hsaW5rIiB0PSIxNTc1MzYyNDUzNzI0IiBjbGFzcz0iaWNvbiIgdmlld0JveD0iMCAwIDEwMjQgMTAyNCIgdmVyc2lvbj0iMS4xIiBwLWlkPSI1MDUwIiB3aWR0aD0iMTI4IiBoZWlnaHQ9IjEyOCI+PGRlZnM+PHN0eWxlIHR5cGU9InRleHQvY3NzIi8+PC9kZWZzPjxwYXRoIGQ9Ik03NTMuMDY3IDIyMS44NjdjLTIuMTM0IDAtOC41MzQtMi4xMzQtMTAuNjY3LTIuMTM0QzY2NS42IDE0OS4zMzMgNTY1LjMzMyAxMjggNTI0LjggMTI4Yy00MC41MzMgMi4xMzMtOTguMTMzIDI1LjYtMTIxLjYgNjQtMzIgOC41MzMtNzYuOCAxNy4wNjctOTYgNDYuOTMzLTE3LjA2NyAyNy43MzQgNDIuNjY3IDQ0LjggNjEuODY3IDUxLjIgOC41MzMgMi4xMzQgNDkuMDY2IDEyLjggMTAwLjI2NiAzNC4xMzRsMi4xMzQgMi4xMzN2Mi4xMzNjLTIuMTM0IDguNTM0LTIuMTM0IDIxLjMzNCA0LjI2NiA0OS4wNjcgMTkuMiA1NS40NjcgNDkuMDY3IDkzLjg2NyA2Ni4xMzQgODkuNiAxMi44LTQuMjY3IDEwLjY2Ni02OC4yNjcgMTcuMDY2LTg5LjYgMCAwIDIuMTM0LTIuMTMzIDQuMjY3LTIuMTMzaDQuMjY3Yzc2LjggNDkuMDY2IDEzNi41MzMgMTI1Ljg2NiAxNTcuODY2IDIyMS44NjZDNzUwLjkzMyA3MDQgNzIzLjIgODEyLjggNjYzLjQ2NyA4OTZjMTAuNjY2LTIuMTMzIDE3LjA2Ni02LjQgMzItMTcuMDY3IDIzLjQ2Ni0xNy4wNjYgNDQuOC00MC41MzMgNjEuODY2LTY0Qzg4MS4wNjcgNjQwIDg5My44NjcgNDczLjYgODI3LjczMyAzMzAuNjY3YzAtMi4xMzQtMi4xMzMtMi4xMzQtMi4xMzMtNC4yNjctMi4xMzMtMTkuMiA3NC42NjctMjMuNDY3IDkzLjg2Ny0zNC4xMzMgMTAuNjY2LTE5LjItMTE1LjItNzYuOC0xNjYuNC03MC40eiIgZmlsbD0iIzAwQzFERSIgcC1pZD0iNTA1MSIvPjxwYXRoIGQ9Ik02MzEuNDY3IDY2My40NjdsNTUuNDY2LTg5LjZjLTYuNC0xMi44LTEwLjY2Ni0yNS42LTE3LjA2Ni0zNi4yNjdsLTU3LjYgOTEuNzMzSDUwMS4zMzNsNjQgMTA0LjUzNC03NC42NjYgMTE5LjQ2NkgzNDEuMzMzbC03NC42NjYtMTIxLjYgNjQtMTA0LjUzM0gyMTkuNzMzbC03NC42NjYtMTIxLjZMMjE5LjczMyAzODRoMTQ5LjMzNGw0NC44IDc0LjY2NyAyOS44NjYtNDYuOTM0Yy0yLjEzMy0yLjEzMy0yLjEzMy02LjQtNC4yNjYtOC41MzMtNC4yNjctMTcuMDY3LTYuNC0yOS44NjctNi40LTQwLjUzM2wtMTkuMiAyOS44NjYtMjUuNi00Mi42NjZoLTE4NS42bC05NiAxNTcuODY2IDk2IDE1NS43MzRoNjguMjY2bC00Mi42NjYgNzAuNCA5NiAxNTUuNzMzSDUxMmw5Ni0xNTUuNzMzLTQyLjY2Ny03MC40aDY2LjEzNHoiIGZpbGw9IiMwMEMxREUiIHAtaWQ9IjUwNTIiLz48L3N2Zz4=;fillColor=none;fontColor=#EA6B66;fontSize=8;spacing=-6;" vertex="1" parent="1">
          <mxGeometry x="978" width="27" height="27" as="geometry" />
        </mxCell>
        <mxCell id="uuMYFCACOVy0hHcjNsLC-136" value="第三方服务" style="shape=image;verticalLabelPosition=bottom;verticalAlign=top;imageAspect=0;aspect=fixed;image=data:image/svg+xml,PHN2ZyB4bWxucz0iaHR0cDovL3d3dy53My5vcmcvMjAwMC9zdmciIHhtbG5zOnhsaW5rPSJodHRwOi8vd3d3LnczLm9yZy8xOTk5L3hsaW5rIiB0PSIxNTc1MzYyNzE4MjMxIiBjbGFzcz0iaWNvbiIgdmlld0JveD0iMCAwIDEwMjQgMTAyNCIgdmVyc2lvbj0iMS4xIiBwLWlkPSI1ODUzIiB3aWR0aD0iMTI4IiBoZWlnaHQ9IjEyOCI+PGRlZnM+PHN0eWxlIHR5cGU9InRleHQvY3NzIi8+PC9kZWZzPjxwYXRoIGQ9Ik01MTAuMjA4IDIxMy43ODFsLTEwMS44MDMgMzQuNzc0TDM0Mi43IDIwOS45NGwxNjguODEtNjAuNjA4TDY4MS42NDMgMjExLjVsLTY0LjQ0OCAzNy4wNTYtMTA2Ljk2Ni0zNC43NzR6IG0xLjI4IDIwMS40M2wxMDEuODI0LTM0LjgxNiA2NS43MjggMzguNjk4LTE2OC44MzIgNjAuNTIzLTE3MC4wNy02Mi4wOCA2NC40MDYtMzcuMTQxIDEwNi45NDQgMzQuODE2eiBtLTE1NS4wOTMtNTEuOTA0bC02OS4xMiAzMy40OTNMNjUuNjIgMzE0LjMwNGwyMjUuNTE1LTgzLjM3IDY1Ljc1IDM4Ljg0Ny0xMjIuNDExIDQ0LjUyMyAxMjEuODk4IDQ5LjAwM3ogbTQzNC42NDUtNDkuMDAzbC0xMjIuNDEtNDQuNTIzIDY1LjcwNi0zOC44NDggMjI1LjU1NyA4My4zNzFMNzM4LjE3NiAzOTYuOGwtNjkuMDk5LTMzLjQ5MyAxMjEuOTYzLTQ5LjAwM3pNNTExLjQ4OCA2MDguNzQ3TDY0Ljk2IDQzMy42NDMgNjQgMzQ0Ljg5Nmw0NDcuNDg4IDE3NC45MzMgNDQ3LjU3My0xNzIuOTkydjg5LjQzbC00NDcuNTczIDE3Mi40OHogbTEuMDI0IDMzLjY2NEw5NjAgNDY5LjM3NnY4OS40OTNMNTEyLjUxMiA3MzEuMjg1IDY1Ljk2MiA1NTYuMjI0bC0xLjAwMi04OC43NDcgNDQ3LjU1MiAxNzQuOTM0ek02NC45MzkgNTkxLjA2bDQ0Ny41NzMgMTc0LjkzNEw5NjAgNTkzLjAwM3Y4OS40NzJsLTQ0Ny40ODggMTcyLjQ4TDY1Ljk2MiA2NzkuODVsLTEuMDAyLTg4Ljc2OHoiIGZpbGw9IiMwMEMxREUiIHAtaWQ9IjU4NTQiLz48L3N2Zz4=;fillColor=none;fontColor=#EA6B66;fontSize=8;spacing=-6;" vertex="1" parent="1">
          <mxGeometry x="884" y="72" width="27" height="27" as="geometry" />
        </mxCell>
        <mxCell id="uuMYFCACOVy0hHcjNsLC-137" value="第三方服" style="shape=image;verticalLabelPosition=bottom;verticalAlign=top;imageAspect=0;aspect=fixed;image=data:image/svg+xml,PHN2ZyB4bWxucz0iaHR0cDovL3d3dy53My5vcmcvMjAwMC9zdmciIHhtbG5zOnhsaW5rPSJodHRwOi8vd3d3LnczLm9yZy8xOTk5L3hsaW5rIiB0PSIxNTc1MzYzNDI0OTAyIiBjbGFzcz0iaWNvbiIgdmlld0JveD0iMCAwIDEwMjQgMTAyNCIgdmVyc2lvbj0iMS4xIiBwLWlkPSI1OTg2IiB3aWR0aD0iMTI4IiBoZWlnaHQ9IjEyOCI+PGRlZnM+PHN0eWxlIHR5cGU9InRleHQvY3NzIi8+PC9kZWZzPjxwYXRoIGQ9Ik03OTAuNTcgODAwLjUxMmMwLTE1LjcwMSAxMi42NzMtMjguNTAxIDI4LjI2Ny0yOC41MDEgMTUuNTc0IDAgMjguMjQ2IDEyLjggMjguMjQ2IDI4LjUwMSAwIDE1LjcyMy0xMi42NzIgMjguNTAxLTI4LjI0NiAyOC41MDEtMTUuNTk0IDAtMjguMjY2LTEyLjgtMjguMjY2LTI4LjUwMW0xMTMuMjggMGMwLTQ3LjE0Ny0zOC4yOTQtODUuNDgzLTg1LjAxNC04NS40ODMtMzQuMTMzIDAtNTQuNjc3IDEzLjM5OC02OS4wOTggMzguMTg3LTI2LjI0LTE0LjUyOC0yOS42NTQtODIuOTAxLTMxLjI1NC0xMjguODFWNDM3LjU2N2E4Ni41NyA4Ni41NyAwIDAgMCA1OS4xNTgtODIuMzA0YzAtNDcuODUtMzguNDQzLTg2LjYzNS04NS45MS04Ni42MzUtNDcuNDQ1IDAtODUuOTA5IDM4Ljc4NC04NS45MDkgODYuNjE0YTg2LjU3IDg2LjU3IDAgMCAwIDU4LjI4MyA4MS45ODR2MTg3LjE3OGMxLjc3IDkyLjA1NCA2LjAxNiAxNTYuOTkyIDczLjY0MiAxOTkuNjU5IDkuMzg3IDM2LjkwNyA0Mi4xNzYgNjEuOTMgODEuNjQzIDYxLjkzIDQ2LjcyIDAgODQuNDgtMzguMzM1IDg0LjQ4LTg1LjQ4Mk01MDcuMzcxIDIyMS4wMTNjLTE2Ljg1NCAwLTMwLjUwNy0xMy43ODEtMzAuNTA3LTMwLjc2MiAwLTE2Ljk2IDEzLjY1My0zMC43NDIgMzAuNTA3LTMwLjc0MiAxNi44NTMgMCAzMC41MDYgMTMuNzgyIDMwLjUwNiAzMC43NDIgMCAxNi45ODEtMTMuNjUzIDMwLjc2Mi0zMC41MDYgMzAuNzYybTMwLjY1NiA0OTQuMTAydi00MzguNGMyNy44ODItMTIuMDU0IDU3LjYtNDQuMzk1IDU3LjYtODIuNDU0IDAtNDguMzQxLTM5LjMzOS04Ny41OTQtODcuMjMyLTg3LjU5NHMtODUuOTEgMzkuMjc0LTg1LjkxIDg3LjU5NGMwIDM4LjA1OSAxNy45NjMgNzAuNCA1OS43NzYgODIuNDU0djQzOC40Yy00MS44MTMgMTIuMDUzLTU5LjU4NCA0NC40MTYtNTkuNTg0IDgyLjQ3NCAwIDQ4LjI5OSAzNy4yNyA4Ny41OTUgODUuMTg0IDg3LjU5NSA0Ny44NzIgMCA4Ny4yNTQtMzkuMjk2IDg3LjI1NC04Ny41OTUgMC0zOC4wNTgtMjkuMjI3LTcwLjQtNTcuMTEtODIuNDc0IiBmaWxsPSIjMDBDMURFIiBwLWlkPSI1OTg3Ii8+PHBhdGggZD0iTTIxMy4wMzUgODI5LjAxM2MtMTUuNTc0IDAtMjguMjQ2LTEyLjgtMjguMjQ2LTI4LjUwMXMxMi42NzItMjguNDggMjguMjQ2LTI4LjQ4YzE1LjU3MyAwIDI4LjI2NiAxMi43NzkgMjguMjY2IDI4LjQ4cy0xMi42OTMgMjguNTAxLTI4LjI2NiAyOC41MDFtLTAuNTM0IDU2Ljk2YzM5LjQ2NyAwIDcyLjIzNS0yNS4wMjQgODEuNjIyLTYxLjkwOSA2Ny42MjYtNDIuNjY3IDcxLjg3Mi0xMDcuNjA1IDczLjY2NC0xOTkuNjM3di0xODcuMmE4Ni41MDcgODYuNTA3IDAgMCAwIDU4LjI0LTgxLjk2M2MwLTQ3Ljg1LTM4LjQ0My04Ni42MTMtODUuOTEtODYuNjEzLTQ3LjQyNCAwLTg1LjkwOSAzOC43NjItODUuOTA5IDg2LjYxMyAwIDM4LjQgMjQuODMyIDcwLjk1NSA1OS4xNTcgODIuMjgzdjE4Ni44OGMtMS41NzggNDUuOTA5LTQuOTcgMTE0LjI0LTMxLjI1MyAxMjguNzY4LTE0LjQtMjQuNzY4LTM0LjkyMy0zOC4xNDQtNjkuMDc3LTM4LjE0NC00Ni43MiAwLTg1LjAzNSAzOC4zMzYtODUuMDM1IDg1LjQ2MSAwIDQ3LjE0NyAzNy43NiA4NS40ODMgODQuNDggODUuNDgzIiBmaWxsPSIjMDBDMURFIiBwLWlkPSI1OTg4Ii8+PC9zdmc+;fontColor=#EA6B66;spacing=-6;fontSize=8;" vertex="1" parent="1">
          <mxGeometry x="872.75" y="246" width="27" height="27" as="geometry" />
        </mxCell>
        <mxCell id="uuMYFCACOVy0hHcjNsLC-138" value="第三方服务" style="shape=image;verticalLabelPosition=bottom;verticalAlign=top;imageAspect=0;aspect=fixed;image=data:image/svg+xml,PHN2ZyB4bWxucz0iaHR0cDovL3d3dy53My5vcmcvMjAwMC9zdmciIHhtbG5zOnhsaW5rPSJodHRwOi8vd3d3LnczLm9yZy8xOTk5L3hsaW5rIiB0PSIxNTc1NDQwMjIzOTg1IiBjbGFzcz0iaWNvbiIgdmlld0JveD0iMCAwIDEwMjQgMTAyNCIgdmVyc2lvbj0iMS4xIiBwLWlkPSI3MDI0NSIgd2lkdGg9IjEyOCIgaGVpZ2h0PSIxMjgiPjxkZWZzPjxzdHlsZSB0eXBlPSJ0ZXh0L2NzcyIvPjwvZGVmcz48cGF0aCBkPSJNNTE3LjM5NyAxNDkuMzMzYzkzLjg2NyAwIDE2OS45NjMgNzEuNTEgMTY5Ljk2MyAxNTkuNzIzYTE1MS4zMzkgMTUxLjMzOSAwIDAgMS0xOS4wMyA3My40M2wxMzcuNTU4IDEwMC4zM2ExMDguODIxIDEwOC44MjEgMCAwIDEgNjAuMTYtMTcuOTJjNTcuODM1IDAgMTA0Ljc0NyA0NC4wNzUgMTA0Ljc0NyA5OC40MzJzLTQ2LjkxMiA5OC40MS0xMDQuNzQ3IDk4LjQxYy01Ny44MTMgMC0xMDQuNzQ3LTQ0LjA1My0xMDQuNzQ3LTk4LjQxIDAtMTIuMjQ1IDIuNDMyLTIzLjk3OSA2Ljc4NC0zNC44MTZMNjMwLjUyOCA0MjguMjI0YTE3My44NjcgMTczLjg2NyAwIDAgMS04Mi4zNDcgMzcuODY3djE1My4yOGM2MS4xNjMgMTMuMTQxIDEwNi43OTUgNjQuNTU0IDEwNi43OTUgMTI2LjAxNiAwIDcxLjM4MS02MS42MSAxMjkuMjgtMTM3LjYgMTI5LjI4LTc1Ljk2OCAwLTEzNy41NTctNTcuODk5LTEzNy41NTctMTI5LjI4IDAtNjEuNDQgNDUuNjEtMTEyLjg1NCAxMDYuNzczLTEyNi4wMTZWNDY2LjA5YTE3My44MjQgMTczLjgyNCAwIDAgMS04Mi4zNDctMzcuODY3TDI2Ni42ODggNTI4LjUxMmM0LjM1MiAxMC44MzcgNi43NjMgMjIuNTcgNi43NjMgMzQuODE2IDAgNTQuMzU3LTQ2Ljg5MSA5OC40MS0xMDQuNzI2IDk4LjQxLTU3LjgxMyAwLTEwNC43MjUtNDQuMDUzLTEwNC43MjUtOTguNDFzNDYuODktOTguNDEgMTA0LjcyNS05OC40MWMyMi40IDAgNDMuMTM2IDYuNjEzIDYwLjE2IDE3Ljg5OGwxMzcuNTU4LTEwMC4zM2ExNTEuNDY3IDE1MS40NjcgMCAwIDEtMTkuMDMtNzMuNDNjMC04OC4yMTMgNzYuMTE4LTE1OS43MjMgMTY5Ljk4NC0xNTkuNzIzeiIgZmlsbD0iIzAwQzFERSIgcC1pZD0iNzAyNDYiLz48L3N2Zz4=;fontColor=#EA6B66;spacing=-6;fontSize=8;" vertex="1" parent="1">
          <mxGeometry x="879" y="299" width="27" height="27" as="geometry" />
        </mxCell>
        <mxCell id="uuMYFCACOVy0hHcjNsLC-139" value="" style="edgeStyle=orthogonalEdgeStyle;rounded=0;orthogonalLoop=1;jettySize=auto;html=1;exitX=1;exitY=0.5;exitDx=0;exitDy=0;dashed=1;strokeWidth=2;strokeColor=#99FF99;endArrow=classic;entryX=0;entryY=0.5;entryDx=0;entryDy=0;endFill=1;" edge="1" parent="1" source="uuMYFCACOVy0hHcjNsLC-38" target="uuMYFCACOVy0hHcjNsLC-141">
          <mxGeometry relative="1" as="geometry">
            <mxPoint x="329" y="45" as="sourcePoint" />
            <mxPoint x="360" y="42" as="targetPoint" />
          </mxGeometry>
        </mxCell>
        <mxCell id="uuMYFCACOVy0hHcjNsLC-140" style="edgeStyle=orthogonalEdgeStyle;rounded=0;orthogonalLoop=1;jettySize=auto;html=1;exitX=1;exitY=0.5;exitDx=0;exitDy=0;entryX=-0.018;entryY=0.11;entryDx=0;entryDy=0;entryPerimeter=0;strokeWidth=2;strokeColor=#66FF66;dashed=1;" edge="1" parent="1" source="uuMYFCACOVy0hHcjNsLC-141" target="uuMYFCACOVy0hHcjNsLC-28">
          <mxGeometry relative="1" as="geometry" />
        </mxCell>
        <mxCell id="uuMYFCACOVy0hHcjNsLC-141" value="eaf-gateway SLB" style="shape=image;verticalLabelPosition=bottom;verticalAlign=top;imageAspect=0;aspect=fixed;image=data:image/svg+xml,PHN2ZyB4bWxucz0iaHR0cDovL3d3dy53My5vcmcvMjAwMC9zdmciIHhtbG5zOnhsaW5rPSJodHRwOi8vd3d3LnczLm9yZy8xOTk5L3hsaW5rIiB0PSIxNTc1MzYzOTIxMzg4IiBjbGFzcz0iaWNvbiIgdmlld0JveD0iMCAwIDEwMjQgMTAyNCIgdmVyc2lvbj0iMS4xIiBwLWlkPSIzNTkzIiB3aWR0aD0iMTI4IiBoZWlnaHQ9IjEyOCI+PGRlZnM+PHN0eWxlIHR5cGU9InRleHQvY3NzIi8+PC9kZWZzPjxwYXRoIGQ9Ik03NzYuMDQzIDU0OC42M2MtMjQuNzY4IDAuMTA2LTQ4LjEyOCA2LjM3OC02OS4xNDIgMTYuNDY5bC04OS40NS0xMzMuODY3YzMzLjM2NS0yOS43MzkgNTQuNjU2LTcyLjY4MyA1NC40LTEyMC43MDQtMC40MjctODkuMjM3LTczLjE5NS0xNjEuNjIxLTE2Mi40OTYtMTYxLjE5NS04OS4yOCAwLjQyNy0xNjEuNDMgNzMuNDk0LTE2MS4wMjQgMTYyLjYyNCAwLjIxMyA0OC4wNjQgMjEuOTczIDkwLjY4OCA1NS4zODEgMTIwLjI1NmwtODguMDQzIDEzNC42NzhjLTIxLjIwNS05Ljk2My00NC40MzctMTUuOTM2LTY5LjMzMy0xNS44My04OS4xNTIgMC4zNjMtMTYxLjQzIDczLjM2Ni0xNjEuMDAzIDE2Mi42MjQgMC4yOTkgODkuMTUyIDczLjE5NSAxNjEuNDUxIDE2Mi40OTYgMTYwLjk2IDgxLjQ1MS0wLjMyIDE0OC4wNTQtNjEuMjY5IDE1OC44Ny0xMzkuODRsMjEwLjczLTEuMDAyYzExLjQzNSA3OC41MDYgNzguNTkyIDEzOC44NTggMTYwLjEwNyAxMzguNTE3IDg5LjIzNy0wLjQyNyAxNjEuNDMtNzMuMzAxIDE2MS4xMy0xNjIuNTYtMC40NjktODkuMjM3LTczLjQ3MS0xNjEuNTM2LTE2Mi42MjMtMTYxLjEzeiBtLTE1OC44NyAxMzkuODRsLTIxMC43MyAwLjk2YTE2MS4xMyAxNjEuMTMgMCAwIDAtNTIuOTcxLTk3LjZMNDQxLjYgNDU3LjExYzIxLjE0MSA5Ljk2MiA0NC40MzcgMTYuMDQyIDY5LjI3IDE1LjgyOWExNTkuOTU3IDE1OS45NTcgMCAwIDAgNjkuMTYyLTE2LjM4NEw2NjkuNTI1IDU5MC40YTE2MC4zMiAxNjAuMzIgMCAwIDAtNTIuMzUyIDk4LjA3eiIgZmlsbD0iIzAwQzFERSIgcC1pZD0iMzU5NCIvPjwvc3ZnPg==;fontColor=#EA6B66;fontSize=8;spacing=-6;" vertex="1" parent="1">
          <mxGeometry x="377" y="27" width="37" height="37" as="geometry" />
        </mxCell>
        <mxCell id="uuMYFCACOVy0hHcjNsLC-142" value="app-鉴权" style="shape=image;verticalLabelPosition=bottom;verticalAlign=top;imageAspect=0;aspect=fixed;image=data:image/svg+xml,PHN2ZyB4bWxucz0iaHR0cDovL3d3dy53My5vcmcvMjAwMC9zdmciIHhtbG5zOnhsaW5rPSJodHRwOi8vd3d3LnczLm9yZy8xOTk5L3hsaW5rIiB0PSIxNTc1MzYyNDUzNzI0IiBjbGFzcz0iaWNvbiIgdmlld0JveD0iMCAwIDEwMjQgMTAyNCIgdmVyc2lvbj0iMS4xIiBwLWlkPSI1MDUwIiB3aWR0aD0iMTI4IiBoZWlnaHQ9IjEyOCI+PGRlZnM+PHN0eWxlIHR5cGU9InRleHQvY3NzIi8+PC9kZWZzPjxwYXRoIGQ9Ik03NTMuMDY3IDIyMS44NjdjLTIuMTM0IDAtOC41MzQtMi4xMzQtMTAuNjY3LTIuMTM0QzY2NS42IDE0OS4zMzMgNTY1LjMzMyAxMjggNTI0LjggMTI4Yy00MC41MzMgMi4xMzMtOTguMTMzIDI1LjYtMTIxLjYgNjQtMzIgOC41MzMtNzYuOCAxNy4wNjctOTYgNDYuOTMzLTE3LjA2NyAyNy43MzQgNDIuNjY3IDQ0LjggNjEuODY3IDUxLjIgOC41MzMgMi4xMzQgNDkuMDY2IDEyLjggMTAwLjI2NiAzNC4xMzRsMi4xMzQgMi4xMzN2Mi4xMzNjLTIuMTM0IDguNTM0LTIuMTM0IDIxLjMzNCA0LjI2NiA0OS4wNjcgMTkuMiA1NS40NjcgNDkuMDY3IDkzLjg2NyA2Ni4xMzQgODkuNiAxMi44LTQuMjY3IDEwLjY2Ni02OC4yNjcgMTcuMDY2LTg5LjYgMCAwIDIuMTM0LTIuMTMzIDQuMjY3LTIuMTMzaDQuMjY3Yzc2LjggNDkuMDY2IDEzNi41MzMgMTI1Ljg2NiAxNTcuODY2IDIyMS44NjZDNzUwLjkzMyA3MDQgNzIzLjIgODEyLjggNjYzLjQ2NyA4OTZjMTAuNjY2LTIuMTMzIDE3LjA2Ni02LjQgMzItMTcuMDY3IDIzLjQ2Ni0xNy4wNjYgNDQuOC00MC41MzMgNjEuODY2LTY0Qzg4MS4wNjcgNjQwIDg5My44NjcgNDczLjYgODI3LjczMyAzMzAuNjY3YzAtMi4xMzQtMi4xMzMtMi4xMzQtMi4xMzMtNC4yNjctMi4xMzMtMTkuMiA3NC42NjctMjMuNDY3IDkzLjg2Ny0zNC4xMzMgMTAuNjY2LTE5LjItMTE1LjItNzYuOC0xNjYuNC03MC40eiIgZmlsbD0iIzAwQzFERSIgcC1pZD0iNTA1MSIvPjxwYXRoIGQ9Ik02MzEuNDY3IDY2My40NjdsNTUuNDY2LTg5LjZjLTYuNC0xMi44LTEwLjY2Ni0yNS42LTE3LjA2Ni0zNi4yNjdsLTU3LjYgOTEuNzMzSDUwMS4zMzNsNjQgMTA0LjUzNC03NC42NjYgMTE5LjQ2NkgzNDEuMzMzbC03NC42NjYtMTIxLjYgNjQtMTA0LjUzM0gyMTkuNzMzbC03NC42NjYtMTIxLjZMMjE5LjczMyAzODRoMTQ5LjMzNGw0NC44IDc0LjY2NyAyOS44NjYtNDYuOTM0Yy0yLjEzMy0yLjEzMy0yLjEzMy02LjQtNC4yNjYtOC41MzMtNC4yNjctMTcuMDY3LTYuNC0yOS44NjctNi40LTQwLjUzM2wtMTkuMiAyOS44NjYtMjUuNi00Mi42NjZoLTE4NS42bC05NiAxNTcuODY2IDk2IDE1NS43MzRoNjguMjY2bC00Mi42NjYgNzAuNCA5NiAxNTUuNzMzSDUxMmw5Ni0xNTUuNzMzLTQyLjY2Ny03MC40aDY2LjEzNHoiIGZpbGw9IiMwMEMxREUiIHAtaWQ9IjUwNTIiLz48L3N2Zz4=;fillColor=none;fontColor=#EA6B66;fontSize=8;spacing=-6;" vertex="1" parent="1">
          <mxGeometry x="879" width="27" height="27" as="geometry" />
        </mxCell>
        <mxCell id="uuMYFCACOVy0hHcjNsLC-143" value="app-ToB业务" style="shape=image;verticalLabelPosition=bottom;verticalAlign=top;imageAspect=0;aspect=fixed;image=data:image/svg+xml,PHN2ZyB4bWxucz0iaHR0cDovL3d3dy53My5vcmcvMjAwMC9zdmciIHhtbG5zOnhsaW5rPSJodHRwOi8vd3d3LnczLm9yZy8xOTk5L3hsaW5rIiB0PSIxNTc1MzYyNjYyNzkxIiBjbGFzcz0iaWNvbiIgdmlld0JveD0iMCAwIDEwMjQgMTAyNCIgdmVyc2lvbj0iMS4xIiBwLWlkPSI1NzIwIiB3aWR0aD0iMTI4IiBoZWlnaHQ9IjEyOCI+PGRlZnM+PHN0eWxlIHR5cGU9InRleHQvY3NzIi8+PC9kZWZzPjxwYXRoIGQ9Ik0yNDMuNjI3IDI0My42Mjd2MTU3Ljg2NmwtNTMuMjA2IDI4LjQ4VjE5MC40MjFoMjM4LjQ2NGwtMjguNjcyIDUzLjIwNkgyNDMuNjI3eiBtMCA1MzYuNzQ2aDE1Ni40MzdsMjguNTAxIDUzLjIwNkgxOTAuNDIxVjU5NS4xMTVsNTMuMjA2IDI4LjgyMXYxNTYuNDM3eiBtNTM2Ljc0NiAwVjYyMy42MTZsNTMuMjA2LTI4LjUwMXYyMzguNDY0SDU5NC42NDVsMjguMzUyLTUzLjIwNmgxNTcuMzc2eiBtMC01MzYuNzQ2SDYyMy40NjdsLTI4LjUwMi01My4yMDZIODMzLjU4djIzNy44MjRsLTUzLjIwNi0yOC42NzJWMjQzLjYyN3ogbS0yNDYuMzU3IDY2LjY2NmE0Ny41MyA0Ny41MyAwIDAgMC00NC4wMzItMC4xN2wtMTE3LjgwMyA2Mi4wOEw1MTIgMTA2LjY2N2wxMzkuODE5IDI2NS42ODUtMTE3LjgwMy02Mi4wOHogbTAgNDAzLjQxNGwxMTcuODAzLTYxLjg4OEw1MTIgOTE3LjMzMyAzNzIuMzUyIDY1MS42NDhsMTE3LjgwMyA2Mi4wOGMxMy43NiA3LjI1MyAzMC4wOCA3LjI1MyA0My44NjEgMHogbTE3OS42OS0xNzkuNjkxYTQ3LjUzIDQ3LjUzIDAgMCAwIDAuMTcxLTQ0LjAzMmwtNjIuMDgtMTE3LjgwM0w5MTcuMzMzIDUxMiA2NTEuNjQ4IDY1MS44MTlsNjIuMDgtMTE3LjgwM3ogbS00MDMuNDEzLTQ0LjAzMmE0Ny41MyA0Ny41MyAwIDAgMC0wLjE3IDQ0LjAzMmw2Mi4wOCAxMTcuODAzTDEwNi42NjcgNTEybDI2NS42ODUtMTM5LjgxOS02Mi4wOCAxMTcuODAzeiIgZmlsbD0iIzAwQzFERSIgcC1pZD0iNTcyMSIvPjwvc3ZnPg==;fontColor=#EA6B66;fontSize=8;spacing=-6;" vertex="1" parent="1">
          <mxGeometry x="885.75" y="142.5" width="27.5" height="27.5" as="geometry" />
        </mxCell>
        <mxCell id="uuMYFCACOVy0hHcjNsLC-144" value="app-ToB业务" style="shape=image;verticalLabelPosition=bottom;verticalAlign=top;imageAspect=0;aspect=fixed;image=data:image/svg+xml,PHN2ZyB4bWxucz0iaHR0cDovL3d3dy53My5vcmcvMjAwMC9zdmciIHhtbG5zOnhsaW5rPSJodHRwOi8vd3d3LnczLm9yZy8xOTk5L3hsaW5rIiB0PSIxNTc1MzYzOTczNDI5IiBjbGFzcz0iaWNvbiIgdmlld0JveD0iMCAwIDEwMjQgMTAyNCIgdmVyc2lvbj0iMS4xIiBwLWlkPSIzODU5IiB3aWR0aD0iMTI4IiBoZWlnaHQ9IjEyOCI+PGRlZnM+PHN0eWxlIHR5cGU9InRleHQvY3NzIi8+PC9kZWZzPjxwYXRoIGQ9Ik04NTQuODcgMzk2Ljg2NGwxNC4wMzctMTQuMDM3IDI5LjYzMiAyOS42MzIgMTcuOTItMjAuMjY3LTkxLjk5LTk1LjA4My0yOC44MjEtMC43NjgtNDguMzItNDcuNTczLTQwLjUzMyA0MS4zMDEtMTI4LjY0LTExOC41MDZzLTk1Ljg5NC02MS41OS0xOTQuODggMjAuMjY2Yy05OC45ODcgODEuODc4LTQyLjA0OCAxODMuMTktNDIuMDQ4IDE4My4xOWw4MS4wNjYgOTIuNzU3IDQ5Ljg5OS00NS4xODQtNjAuOC03MC45MzNzLTQyLjA5LTU4LjQ1NCAxMi40NTktMTA5LjEyYzU0LjU3LTUwLjY0NiAxMTMuMDI0LTIzLjQwMyAxMTMuMDI0LTIzLjQwM2wxMTkuMjUzIDExOC41MDctNDEuMjggMzkuNzY1IDEzMC4xOTcgMTMyLjUyMyAzLjEzNi0wLjc2OCAxOC42ODgtMjEuODI0IDYwLjAzMiA2MS41ODkgOTAuNDMyLTkxLjk2OC02Mi40NjQtNjAuMDc1eiBtLTM2NC4yMjUgNDQuMzczbDQ2LjI5NCA0Ni4yNzItNDcuNDAzIDQ3LjM4Mi00Ni4yOTMtNDYuMjcyIDQ3LjQyNC00Ny40MDN6IG01OS42NyAxNTIuODc1bC00Ni4yOTQtNDYuMjkzIDQ3LjQwMy00Ny4zNiA0Ni4yOTMgNDYuMjcyLTQ3LjQwMiA0Ny4zODF6IG03MC42OTgtMjQuMTkybC00Ny41MDkgNDUuMTg0IDM5LjA0IDQ3LjkxNXM0Mi4xMTIgNTguNDUzLTEyLjQzNyAxMDkuMTJjLTU0LjU3MSA1MC42NjYtMTEzLjAyNCAyMy40MDItMTEzLjAyNCAyMy40MDJMMzY3LjgyOSA2NzcuMDU2bDQxLjI4LTM5Ljc2NS0xMzAuMTk3LTEzMi40OC0zLjA5MyAwLjc2OC0xOC42ODggMjEuODI0LTYwLjAzMi02MS41NDctOTAuNDMyIDkxLjk0NyA2Mi4zNTcgNjAuMDMyLTE0LjAxNiAxNC4wMzctMjkuNjUzLTI5LjY1My0xNy45MiAyMC4yNjYgOTEuOTg5IDk1LjEwNCAyOC44MjEgMC43NDcgNDguMzQyIDQ3LjU3MyA0MC41MzMtNDEuMjggMTI4LjYxOSAxMTguNDg2czk1Ljg5MyA2MS42MSAxOTQuODgtMjAuMjY3Yzk4Ljk4Ni04MS44NTYgNDIuMTEyLTE4My4xNjggNDIuMTEyLTE4My4xNjhsLTYxLjcxOC02OS43NnoiIGZpbGw9IiMwMEMxREUiIHAtaWQ9IjM4NjAiLz48L3N2Zz4=;fontColor=#EA6B66;fontSize=8;spacing=-6;" vertex="1" parent="1">
          <mxGeometry x="839" y="424" width="27" height="27" as="geometry" />
        </mxCell>
        <mxCell id="uuMYFCACOVy0hHcjNsLC-145" value="app-消息中台" style="shape=image;verticalLabelPosition=bottom;verticalAlign=top;imageAspect=0;aspect=fixed;image=data:image/svg+xml,PHN2ZyB4bWxucz0iaHR0cDovL3d3dy53My5vcmcvMjAwMC9zdmciIHhtbG5zOnhsaW5rPSJodHRwOi8vd3d3LnczLm9yZy8xOTk5L3hsaW5rIiB0PSIxNTc1MzYyNDUzNzI0IiBjbGFzcz0iaWNvbiIgdmlld0JveD0iMCAwIDEwMjQgMTAyNCIgdmVyc2lvbj0iMS4xIiBwLWlkPSI1MDUwIiB3aWR0aD0iMTI4IiBoZWlnaHQ9IjEyOCI+PGRlZnM+PHN0eWxlIHR5cGU9InRleHQvY3NzIi8+PC9kZWZzPjxwYXRoIGQ9Ik03NTMuMDY3IDIyMS44NjdjLTIuMTM0IDAtOC41MzQtMi4xMzQtMTAuNjY3LTIuMTM0QzY2NS42IDE0OS4zMzMgNTY1LjMzMyAxMjggNTI0LjggMTI4Yy00MC41MzMgMi4xMzMtOTguMTMzIDI1LjYtMTIxLjYgNjQtMzIgOC41MzMtNzYuOCAxNy4wNjctOTYgNDYuOTMzLTE3LjA2NyAyNy43MzQgNDIuNjY3IDQ0LjggNjEuODY3IDUxLjIgOC41MzMgMi4xMzQgNDkuMDY2IDEyLjggMTAwLjI2NiAzNC4xMzRsMi4xMzQgMi4xMzN2Mi4xMzNjLTIuMTM0IDguNTM0LTIuMTM0IDIxLjMzNCA0LjI2NiA0OS4wNjcgMTkuMiA1NS40NjcgNDkuMDY3IDkzLjg2NyA2Ni4xMzQgODkuNiAxMi44LTQuMjY3IDEwLjY2Ni02OC4yNjcgMTcuMDY2LTg5LjYgMCAwIDIuMTM0LTIuMTMzIDQuMjY3LTIuMTMzaDQuMjY3Yzc2LjggNDkuMDY2IDEzNi41MzMgMTI1Ljg2NiAxNTcuODY2IDIyMS44NjZDNzUwLjkzMyA3MDQgNzIzLjIgODEyLjggNjYzLjQ2NyA4OTZjMTAuNjY2LTIuMTMzIDE3LjA2Ni02LjQgMzItMTcuMDY3IDIzLjQ2Ni0xNy4wNjYgNDQuOC00MC41MzMgNjEuODY2LTY0Qzg4MS4wNjcgNjQwIDg5My44NjcgNDczLjYgODI3LjczMyAzMzAuNjY3YzAtMi4xMzQtMi4xMzMtMi4xMzQtMi4xMzMtNC4yNjctMi4xMzMtMTkuMiA3NC42NjctMjMuNDY3IDkzLjg2Ny0zNC4xMzMgMTAuNjY2LTE5LjItMTE1LjItNzYuOC0xNjYuNC03MC40eiIgZmlsbD0iIzAwQzFERSIgcC1pZD0iNTA1MSIvPjxwYXRoIGQ9Ik02MzEuNDY3IDY2My40NjdsNTUuNDY2LTg5LjZjLTYuNC0xMi44LTEwLjY2Ni0yNS42LTE3LjA2Ni0zNi4yNjdsLTU3LjYgOTEuNzMzSDUwMS4zMzNsNjQgMTA0LjUzNC03NC42NjYgMTE5LjQ2NkgzNDEuMzMzbC03NC42NjYtMTIxLjYgNjQtMTA0LjUzM0gyMTkuNzMzbC03NC42NjYtMTIxLjZMMjE5LjczMyAzODRoMTQ5LjMzNGw0NC44IDc0LjY2NyAyOS44NjYtNDYuOTM0Yy0yLjEzMy0yLjEzMy0yLjEzMy02LjQtNC4yNjYtOC41MzMtNC4yNjctMTcuMDY3LTYuNC0yOS44NjctNi40LTQwLjUzM2wtMTkuMiAyOS44NjYtMjUuNi00Mi42NjZoLTE4NS42bC05NiAxNTcuODY2IDk2IDE1NS43MzRoNjguMjY2bC00Mi42NjYgNzAuNCA5NiAxNTUuNzMzSDUxMmw5Ni0xNTUuNzMzLTQyLjY2Ny03MC40aDY2LjEzNHoiIGZpbGw9IiMwMEMxREUiIHAtaWQ9IjUwNTIiLz48L3N2Zz4=;fillColor=none;fontColor=#EA6B66;fontSize=8;spacing=-6;" vertex="1" parent="1">
          <mxGeometry x="926.5" width="27" height="27" as="geometry" />
        </mxCell>
        <mxCell id="uuMYFCACOVy0hHcjNsLC-146" value="大数据业务库" style="shape=image;verticalLabelPosition=bottom;verticalAlign=top;imageAspect=0;aspect=fixed;image=data:image/svg+xml,PHN2ZyB4bWxucz0iaHR0cDovL3d3dy53My5vcmcvMjAwMC9zdmciIHhtbG5zOnhsaW5rPSJodHRwOi8vd3d3LnczLm9yZy8xOTk5L3hsaW5rIiB0PSIxNTc1MzYyNDUzNzI0IiBjbGFzcz0iaWNvbiIgdmlld0JveD0iMCAwIDEwMjQgMTAyNCIgdmVyc2lvbj0iMS4xIiBwLWlkPSI1MDUwIiB3aWR0aD0iMTI4IiBoZWlnaHQ9IjEyOCI+PGRlZnM+PHN0eWxlIHR5cGU9InRleHQvY3NzIi8+PC9kZWZzPjxwYXRoIGQ9Ik03NTMuMDY3IDIyMS44NjdjLTIuMTM0IDAtOC41MzQtMi4xMzQtMTAuNjY3LTIuMTM0QzY2NS42IDE0OS4zMzMgNTY1LjMzMyAxMjggNTI0LjggMTI4Yy00MC41MzMgMi4xMzMtOTguMTMzIDI1LjYtMTIxLjYgNjQtMzIgOC41MzMtNzYuOCAxNy4wNjctOTYgNDYuOTMzLTE3LjA2NyAyNy43MzQgNDIuNjY3IDQ0LjggNjEuODY3IDUxLjIgOC41MzMgMi4xMzQgNDkuMDY2IDEyLjggMTAwLjI2NiAzNC4xMzRsMi4xMzQgMi4xMzN2Mi4xMzNjLTIuMTM0IDguNTM0LTIuMTM0IDIxLjMzNCA0LjI2NiA0OS4wNjcgMTkuMiA1NS40NjcgNDkuMDY3IDkzLjg2NyA2Ni4xMzQgODkuNiAxMi44LTQuMjY3IDEwLjY2Ni02OC4yNjcgMTcuMDY2LTg5LjYgMCAwIDIuMTM0LTIuMTMzIDQuMjY3LTIuMTMzaDQuMjY3Yzc2LjggNDkuMDY2IDEzNi41MzMgMTI1Ljg2NiAxNTcuODY2IDIyMS44NjZDNzUwLjkzMyA3MDQgNzIzLjIgODEyLjggNjYzLjQ2NyA4OTZjMTAuNjY2LTIuMTMzIDE3LjA2Ni02LjQgMzItMTcuMDY3IDIzLjQ2Ni0xNy4wNjYgNDQuOC00MC41MzMgNjEuODY2LTY0Qzg4MS4wNjcgNjQwIDg5My44NjcgNDczLjYgODI3LjczMyAzMzAuNjY3YzAtMi4xMzQtMi4xMzMtMi4xMzQtMi4xMzMtNC4yNjctMi4xMzMtMTkuMiA3NC42NjctMjMuNDY3IDkzLjg2Ny0zNC4xMzMgMTAuNjY2LTE5LjItMTE1LjItNzYuOC0xNjYuNC03MC40eiIgZmlsbD0iIzAwQzFERSIgcC1pZD0iNTA1MSIvPjxwYXRoIGQ9Ik02MzEuNDY3IDY2My40NjdsNTUuNDY2LTg5LjZjLTYuNC0xMi44LTEwLjY2Ni0yNS42LTE3LjA2Ni0zNi4yNjdsLTU3LjYgOTEuNzMzSDUwMS4zMzNsNjQgMTA0LjUzNC03NC42NjYgMTE5LjQ2NkgzNDEuMzMzbC03NC42NjYtMTIxLjYgNjQtMTA0LjUzM0gyMTkuNzMzbC03NC42NjYtMTIxLjZMMjE5LjczMyAzODRoMTQ5LjMzNGw0NC44IDc0LjY2NyAyOS44NjYtNDYuOTM0Yy0yLjEzMy0yLjEzMy0yLjEzMy02LjQtNC4yNjYtOC41MzMtNC4yNjctMTcuMDY3LTYuNC0yOS44NjctNi40LTQwLjUzM2wtMTkuMiAyOS44NjYtMjUuNi00Mi42NjZoLTE4NS42bC05NiAxNTcuODY2IDk2IDE1NS43MzRoNjguMjY2bC00Mi42NjYgNzAuNCA5NiAxNTUuNzMzSDUxMmw5Ni0xNTUuNzMzLTQyLjY2Ny03MC40aDY2LjEzNHoiIGZpbGw9IiMwMEMxREUiIHAtaWQ9IjUwNTIiLz48L3N2Zz4=;fillColor=none;fontColor=#EA6B66;fontSize=8;spacing=-6;" vertex="1" parent="1">
          <mxGeometry x="1027" y="-1.5" width="28.5" height="28.5" as="geometry" />
        </mxCell>
        <mxCell id="uuMYFCACOVy0hHcjNsLC-147" value="app-ToC核心库" style="shape=image;verticalLabelPosition=bottom;verticalAlign=top;imageAspect=0;aspect=fixed;image=data:image/svg+xml,PHN2ZyB4bWxucz0iaHR0cDovL3d3dy53My5vcmcvMjAwMC9zdmciIHhtbG5zOnhsaW5rPSJodHRwOi8vd3d3LnczLm9yZy8xOTk5L3hsaW5rIiB0PSIxNTc1MzYyNDUzNzI0IiBjbGFzcz0iaWNvbiIgdmlld0JveD0iMCAwIDEwMjQgMTAyNCIgdmVyc2lvbj0iMS4xIiBwLWlkPSI1MDUwIiB3aWR0aD0iMTI4IiBoZWlnaHQ9IjEyOCI+PGRlZnM+PHN0eWxlIHR5cGU9InRleHQvY3NzIi8+PC9kZWZzPjxwYXRoIGQ9Ik03NTMuMDY3IDIyMS44NjdjLTIuMTM0IDAtOC41MzQtMi4xMzQtMTAuNjY3LTIuMTM0QzY2NS42IDE0OS4zMzMgNTY1LjMzMyAxMjggNTI0LjggMTI4Yy00MC41MzMgMi4xMzMtOTguMTMzIDI1LjYtMTIxLjYgNjQtMzIgOC41MzMtNzYuOCAxNy4wNjctOTYgNDYuOTMzLTE3LjA2NyAyNy43MzQgNDIuNjY3IDQ0LjggNjEuODY3IDUxLjIgOC41MzMgMi4xMzQgNDkuMDY2IDEyLjggMTAwLjI2NiAzNC4xMzRsMi4xMzQgMi4xMzN2Mi4xMzNjLTIuMTM0IDguNTM0LTIuMTM0IDIxLjMzNCA0LjI2NiA0OS4wNjcgMTkuMiA1NS40NjcgNDkuMDY3IDkzLjg2NyA2Ni4xMzQgODkuNiAxMi44LTQuMjY3IDEwLjY2Ni02OC4yNjcgMTcuMDY2LTg5LjYgMCAwIDIuMTM0LTIuMTMzIDQuMjY3LTIuMTMzaDQuMjY3Yzc2LjggNDkuMDY2IDEzNi41MzMgMTI1Ljg2NiAxNTcuODY2IDIyMS44NjZDNzUwLjkzMyA3MDQgNzIzLjIgODEyLjggNjYzLjQ2NyA4OTZjMTAuNjY2LTIuMTMzIDE3LjA2Ni02LjQgMzItMTcuMDY3IDIzLjQ2Ni0xNy4wNjYgNDQuOC00MC41MzMgNjEuODY2LTY0Qzg4MS4wNjcgNjQwIDg5My44NjcgNDczLjYgODI3LjczMyAzMzAuNjY3YzAtMi4xMzQtMi4xMzMtMi4xMzQtMi4xMzMtNC4yNjctMi4xMzMtMTkuMiA3NC42NjctMjMuNDY3IDkzLjg2Ny0zNC4xMzMgMTAuNjY2LTE5LjItMTE1LjItNzYuOC0xNjYuNC03MC40eiIgZmlsbD0iIzAwQzFERSIgcC1pZD0iNTA1MSIvPjxwYXRoIGQ9Ik02MzEuNDY3IDY2My40NjdsNTUuNDY2LTg5LjZjLTYuNC0xMi44LTEwLjY2Ni0yNS42LTE3LjA2Ni0zNi4yNjdsLTU3LjYgOTEuNzMzSDUwMS4zMzNsNjQgMTA0LjUzNC03NC42NjYgMTE5LjQ2NkgzNDEuMzMzbC03NC42NjYtMTIxLjYgNjQtMTA0LjUzM0gyMTkuNzMzbC03NC42NjYtMTIxLjZMMjE5LjczMyAzODRoMTQ5LjMzNGw0NC44IDc0LjY2NyAyOS44NjYtNDYuOTM0Yy0yLjEzMy0yLjEzMy0yLjEzMy02LjQtNC4yNjYtOC41MzMtNC4yNjctMTcuMDY3LTYuNC0yOS44NjctNi40LTQwLjUzM2wtMTkuMiAyOS44NjYtMjUuNi00Mi42NjZoLTE4NS42bC05NiAxNTcuODY2IDk2IDE1NS43MzRoNjguMjY2bC00Mi42NjYgNzAuNCA5NiAxNTUuNzMzSDUxMmw5Ni0xNTUuNzMzLTQyLjY2Ny03MC40aDY2LjEzNHoiIGZpbGw9IiMwMEMxREUiIHAtaWQ9IjUwNTIiLz48L3N2Zz4=;fillColor=none;fontColor=#EA6B66;fontSize=8;spacing=-6;" vertex="1" parent="1">
          <mxGeometry x="828" width="27" height="27" as="geometry" />
        </mxCell>
        <mxCell id="uuMYFCACOVy0hHcjNsLC-148" value="app-ToC业务" style="shape=image;verticalLabelPosition=bottom;verticalAlign=top;imageAspect=0;aspect=fixed;image=data:image/svg+xml,PHN2ZyB4bWxucz0iaHR0cDovL3d3dy53My5vcmcvMjAwMC9zdmciIHhtbG5zOnhsaW5rPSJodHRwOi8vd3d3LnczLm9yZy8xOTk5L3hsaW5rIiB0PSIxNTc1MzYyNzE4MjMxIiBjbGFzcz0iaWNvbiIgdmlld0JveD0iMCAwIDEwMjQgMTAyNCIgdmVyc2lvbj0iMS4xIiBwLWlkPSI1ODUzIiB3aWR0aD0iMTI4IiBoZWlnaHQ9IjEyOCI+PGRlZnM+PHN0eWxlIHR5cGU9InRleHQvY3NzIi8+PC9kZWZzPjxwYXRoIGQ9Ik01MTAuMjA4IDIxMy43ODFsLTEwMS44MDMgMzQuNzc0TDM0Mi43IDIwOS45NGwxNjguODEtNjAuNjA4TDY4MS42NDMgMjExLjVsLTY0LjQ0OCAzNy4wNTYtMTA2Ljk2Ni0zNC43NzR6IG0xLjI4IDIwMS40M2wxMDEuODI0LTM0LjgxNiA2NS43MjggMzguNjk4LTE2OC44MzIgNjAuNTIzLTE3MC4wNy02Mi4wOCA2NC40MDYtMzcuMTQxIDEwNi45NDQgMzQuODE2eiBtLTE1NS4wOTMtNTEuOTA0bC02OS4xMiAzMy40OTNMNjUuNjIgMzE0LjMwNGwyMjUuNTE1LTgzLjM3IDY1Ljc1IDM4Ljg0Ny0xMjIuNDExIDQ0LjUyMyAxMjEuODk4IDQ5LjAwM3ogbTQzNC42NDUtNDkuMDAzbC0xMjIuNDEtNDQuNTIzIDY1LjcwNi0zOC44NDggMjI1LjU1NyA4My4zNzFMNzM4LjE3NiAzOTYuOGwtNjkuMDk5LTMzLjQ5MyAxMjEuOTYzLTQ5LjAwM3pNNTExLjQ4OCA2MDguNzQ3TDY0Ljk2IDQzMy42NDMgNjQgMzQ0Ljg5Nmw0NDcuNDg4IDE3NC45MzMgNDQ3LjU3My0xNzIuOTkydjg5LjQzbC00NDcuNTczIDE3Mi40OHogbTEuMDI0IDMzLjY2NEw5NjAgNDY5LjM3NnY4OS40OTNMNTEyLjUxMiA3MzEuMjg1IDY1Ljk2MiA1NTYuMjI0bC0xLjAwMi04OC43NDcgNDQ3LjU1MiAxNzQuOTM0ek02NC45MzkgNTkxLjA2bDQ0Ny41NzMgMTc0LjkzNEw5NjAgNTkzLjAwM3Y4OS40NzJsLTQ0Ny40ODggMTcyLjQ4TDY1Ljk2MiA2NzkuODVsLTEuMDAyLTg4Ljc2OHoiIGZpbGw9IiMwMEMxREUiIHAtaWQ9IjU4NTQiLz48L3N2Zz4=;fillColor=none;fontColor=#EA6B66;fontSize=8;spacing=-6;" vertex="1" parent="1">
          <mxGeometry x="836.5" y="72" width="27" height="27" as="geometry" />
        </mxCell>
        <mxCell id="uuMYFCACOVy0hHcjNsLC-149" value="&lt;font color=&quot;#ea6b66&quot; style=&quot;font-size: 10px;&quot;&gt;第三方ACK集群&lt;/font&gt;" style="text;html=1;resizable=0;autosize=1;align=center;verticalAlign=middle;points=[];fillColor=none;strokeColor=none;rounded=0;fontSize=8;" vertex="1" parent="1">
          <mxGeometry x="539" y="273" width="103" height="26" as="geometry" />
        </mxCell>
        <mxCell id="uuMYFCACOVy0hHcjNsLC-150" value="&lt;font color=&quot;#ea6b66&quot;&gt;ToB ACK集群&lt;/font&gt;" style="text;html=1;resizable=0;autosize=1;align=center;verticalAlign=middle;points=[];fillColor=none;strokeColor=none;rounded=0;" vertex="1" parent="1">
          <mxGeometry x="538.5" y="138" width="90" height="26" as="geometry" />
        </mxCell>
        <mxCell id="uuMYFCACOVy0hHcjNsLC-151" value="&lt;font color=&quot;#ea6b66&quot; style=&quot;font-size: 11px;&quot;&gt;MySQL&lt;/font&gt;" style="text;strokeColor=none;align=center;fillColor=none;html=1;verticalAlign=middle;whiteSpace=wrap;rounded=0;fontSize=10;" vertex="1" parent="1">
          <mxGeometry x="730" y="42" width="89" height="30" as="geometry" />
        </mxCell>
        <mxCell id="uuMYFCACOVy0hHcjNsLC-152" value="&lt;font color=&quot;#ea6b66&quot;&gt;Redis&lt;/font&gt;" style="text;strokeColor=none;align=center;fillColor=none;html=1;verticalAlign=middle;whiteSpace=wrap;rounded=0;" vertex="1" parent="1">
          <mxGeometry x="728" y="115" width="89" height="30" as="geometry" />
        </mxCell>
        <mxCell id="uuMYFCACOVy0hHcjNsLC-153" value="&lt;font color=&quot;#ea6b66&quot;&gt;MongoDB&lt;/font&gt;" style="text;strokeColor=none;align=center;fillColor=none;html=1;verticalAlign=middle;whiteSpace=wrap;rounded=0;" vertex="1" parent="1">
          <mxGeometry x="734" y="180.5" width="89" height="30" as="geometry" />
        </mxCell>
        <mxCell id="uuMYFCACOVy0hHcjNsLC-154" value="&lt;font color=&quot;#ea6b66&quot;&gt;Hbase&lt;/font&gt;" style="text;strokeColor=none;align=center;fillColor=none;html=1;verticalAlign=middle;whiteSpace=wrap;rounded=0;" vertex="1" parent="1">
          <mxGeometry x="742.13" y="276" width="55" height="20" as="geometry" />
        </mxCell>
        <mxCell id="uuMYFCACOVy0hHcjNsLC-155" value="&lt;font color=&quot;#ea6b66&quot;&gt;Kafka&lt;/font&gt;" style="text;strokeColor=none;align=center;fillColor=none;html=1;verticalAlign=middle;whiteSpace=wrap;rounded=0;" vertex="1" parent="1">
          <mxGeometry x="740" y="327" width="53.5" height="21" as="geometry" />
        </mxCell>
        <mxCell id="uuMYFCACOVy0hHcjNsLC-156" value="&lt;font color=&quot;#ea6b66&quot; style=&quot;font-size: 11px;&quot;&gt;PolarDB-X&lt;/font&gt;" style="text;strokeColor=none;align=center;fillColor=none;html=1;verticalAlign=middle;whiteSpace=wrap;rounded=0;fontSize=10;" vertex="1" parent="1">
          <mxGeometry x="751.25" y="216.5" width="60.75" height="13" as="geometry" />
        </mxCell>
        <mxCell id="uuMYFCACOVy0hHcjNsLC-157" value="&lt;font color=&quot;#ea6b66&quot; style=&quot;font-size: 11px;&quot;&gt;RocketMQ&lt;/font&gt;" style="text;strokeColor=none;align=center;fillColor=none;html=1;verticalAlign=middle;whiteSpace=wrap;rounded=0;fontSize=10;" vertex="1" parent="1">
          <mxGeometry x="744.13" y="356" width="60.75" height="13" as="geometry" />
        </mxCell>
        <mxCell id="uuMYFCACOVy0hHcjNsLC-158" value="&lt;font color=&quot;#ea6b66&quot; style=&quot;font-size: 11px;&quot;&gt;RabbitMQ&lt;/font&gt;" style="text;strokeColor=none;align=center;fillColor=none;html=1;verticalAlign=middle;whiteSpace=wrap;rounded=0;fontSize=10;" vertex="1" parent="1">
          <mxGeometry x="742.13" y="386" width="60.75" height="13" as="geometry" />
        </mxCell>
        <mxCell id="uuMYFCACOVy0hHcjNsLC-159" value="&lt;font color=&quot;#ea6b66&quot; style=&quot;font-size: 11px;&quot;&gt;Elasticsearch&lt;/font&gt;" style="text;strokeColor=none;align=center;fillColor=none;html=1;verticalAlign=middle;whiteSpace=wrap;rounded=0;fontSize=10;" vertex="1" parent="1">
          <mxGeometry x="746.25" y="424" width="60.75" height="13" as="geometry" />
        </mxCell>
        <mxCell id="uuMYFCACOVy0hHcjNsLC-160" value="" style="sketch=0;html=1;dashed=0;whitespace=wrap;fillColor=#2875E2;strokeColor=#ffffff;points=[[0.005,0.63,0],[0.1,0.2,0],[0.9,0.2,0],[0.5,0,0],[0.995,0.63,0],[0.72,0.99,0],[0.5,1,0],[0.28,0.99,0]];shape=mxgraph.kubernetes.icon;prIcon=node" vertex="1" parent="1">
          <mxGeometry x="561.25" y="53" width="27.5" height="34" as="geometry" />
        </mxCell>
        <mxCell id="uuMYFCACOVy0hHcjNsLC-161" value="" style="sketch=0;html=1;dashed=0;whitespace=wrap;fillColor=#2875E2;strokeColor=#ffffff;points=[[0.005,0.63,0],[0.1,0.2,0],[0.9,0.2,0],[0.5,0,0],[0.995,0.63,0],[0.72,0.99,0],[0.5,1,0],[0.28,0.99,0]];shape=mxgraph.kubernetes.icon;prIcon=node" vertex="1" parent="1">
          <mxGeometry x="598.25" y="53" width="27.5" height="34" as="geometry" />
        </mxCell>
        <mxCell id="uuMYFCACOVy0hHcjNsLC-162" value="" style="sketch=0;html=1;dashed=0;whitespace=wrap;fillColor=#2875E2;strokeColor=#ffffff;points=[[0.005,0.63,0],[0.1,0.2,0],[0.9,0.2,0],[0.5,0,0],[0.995,0.63,0],[0.72,0.99,0],[0.5,1,0],[0.28,0.99,0]];shape=mxgraph.kubernetes.icon;prIcon=node" vertex="1" parent="1">
          <mxGeometry x="634.25" y="53" width="27.5" height="34" as="geometry" />
        </mxCell>
        <mxCell id="uuMYFCACOVy0hHcjNsLC-163" value="" style="sketch=0;html=1;dashed=0;whitespace=wrap;fillColor=#2875E2;strokeColor=#ffffff;points=[[0.005,0.63,0],[0.1,0.2,0],[0.9,0.2,0],[0.5,0,0],[0.995,0.63,0],[0.72,0.99,0],[0.5,1,0],[0.28,0.99,0]];shape=mxgraph.kubernetes.icon;prIcon=node" vertex="1" parent="1">
          <mxGeometry x="561.25" y="81" width="27.5" height="34" as="geometry" />
        </mxCell>
        <mxCell id="uuMYFCACOVy0hHcjNsLC-164" value="" style="sketch=0;html=1;dashed=0;whitespace=wrap;fillColor=#2875E2;strokeColor=#ffffff;points=[[0.005,0.63,0],[0.1,0.2,0],[0.9,0.2,0],[0.5,0,0],[0.995,0.63,0],[0.72,0.99,0],[0.5,1,0],[0.28,0.99,0]];shape=mxgraph.kubernetes.icon;prIcon=node" vertex="1" parent="1">
          <mxGeometry x="598.25" y="81" width="27.5" height="34" as="geometry" />
        </mxCell>
        <mxCell id="uuMYFCACOVy0hHcjNsLC-165" value="" style="sketch=0;html=1;dashed=0;whitespace=wrap;fillColor=#2875E2;strokeColor=#ffffff;points=[[0.005,0.63,0],[0.1,0.2,0],[0.9,0.2,0],[0.5,0,0],[0.995,0.63,0],[0.72,0.99,0],[0.5,1,0],[0.28,0.99,0]];shape=mxgraph.kubernetes.icon;prIcon=node" vertex="1" parent="1">
          <mxGeometry x="634.25" y="81" width="27.5" height="34" as="geometry" />
        </mxCell>
        <mxCell id="uuMYFCACOVy0hHcjNsLC-166" value="" style="sketch=0;html=1;dashed=0;whitespace=wrap;fillColor=#2875E2;strokeColor=#ffffff;points=[[0.005,0.63,0],[0.1,0.2,0],[0.9,0.2,0],[0.5,0,0],[0.995,0.63,0],[0.72,0.99,0],[0.5,1,0],[0.28,0.99,0]];shape=mxgraph.kubernetes.icon;prIcon=node" vertex="1" parent="1">
          <mxGeometry x="560.5" y="154.5" width="27.5" height="34" as="geometry" />
        </mxCell>
        <mxCell id="uuMYFCACOVy0hHcjNsLC-167" value="" style="sketch=0;html=1;dashed=0;whitespace=wrap;fillColor=#2875E2;strokeColor=#ffffff;points=[[0.005,0.63,0],[0.1,0.2,0],[0.9,0.2,0],[0.5,0,0],[0.995,0.63,0],[0.72,0.99,0],[0.5,1,0],[0.28,0.99,0]];shape=mxgraph.kubernetes.icon;prIcon=node" vertex="1" parent="1">
          <mxGeometry x="597.5" y="154.5" width="27.5" height="34" as="geometry" />
        </mxCell>
        <mxCell id="uuMYFCACOVy0hHcjNsLC-168" value="" style="sketch=0;html=1;dashed=0;whitespace=wrap;fillColor=#2875E2;strokeColor=#ffffff;points=[[0.005,0.63,0],[0.1,0.2,0],[0.9,0.2,0],[0.5,0,0],[0.995,0.63,0],[0.72,0.99,0],[0.5,1,0],[0.28,0.99,0]];shape=mxgraph.kubernetes.icon;prIcon=node" vertex="1" parent="1">
          <mxGeometry x="633.5" y="154.5" width="27.5" height="34" as="geometry" />
        </mxCell>
        <mxCell id="uuMYFCACOVy0hHcjNsLC-169" value="" style="sketch=0;html=1;dashed=0;whitespace=wrap;fillColor=#2875E2;strokeColor=#ffffff;points=[[0.005,0.63,0],[0.1,0.2,0],[0.9,0.2,0],[0.5,0,0],[0.995,0.63,0],[0.72,0.99,0],[0.5,1,0],[0.28,0.99,0]];shape=mxgraph.kubernetes.icon;prIcon=node" vertex="1" parent="1">
          <mxGeometry x="561.25" y="183.5" width="27.5" height="34" as="geometry" />
        </mxCell>
        <mxCell id="uuMYFCACOVy0hHcjNsLC-170" value="" style="sketch=0;html=1;dashed=0;whitespace=wrap;fillColor=#2875E2;strokeColor=#ffffff;points=[[0.005,0.63,0],[0.1,0.2,0],[0.9,0.2,0],[0.5,0,0],[0.995,0.63,0],[0.72,0.99,0],[0.5,1,0],[0.28,0.99,0]];shape=mxgraph.kubernetes.icon;prIcon=node" vertex="1" parent="1">
          <mxGeometry x="598.25" y="183.5" width="27.5" height="34" as="geometry" />
        </mxCell>
        <mxCell id="uuMYFCACOVy0hHcjNsLC-171" value="" style="sketch=0;html=1;dashed=0;whitespace=wrap;fillColor=#2875E2;strokeColor=#ffffff;points=[[0.005,0.63,0],[0.1,0.2,0],[0.9,0.2,0],[0.5,0,0],[0.995,0.63,0],[0.72,0.99,0],[0.5,1,0],[0.28,0.99,0]];shape=mxgraph.kubernetes.icon;prIcon=node" vertex="1" parent="1">
          <mxGeometry x="634.25" y="183.5" width="27.5" height="34" as="geometry" />
        </mxCell>
        <mxCell id="uuMYFCACOVy0hHcjNsLC-172" value="" style="sketch=0;html=1;dashed=0;whitespace=wrap;fillColor=#2875E2;strokeColor=#ffffff;points=[[0.005,0.63,0],[0.1,0.2,0],[0.9,0.2,0],[0.5,0,0],[0.995,0.63,0],[0.72,0.99,0],[0.5,1,0],[0.28,0.99,0]];shape=mxgraph.kubernetes.icon;prIcon=node" vertex="1" parent="1">
          <mxGeometry x="561.25" y="211.5" width="27.5" height="34" as="geometry" />
        </mxCell>
        <mxCell id="uuMYFCACOVy0hHcjNsLC-173" value="" style="sketch=0;html=1;dashed=0;whitespace=wrap;fillColor=#2875E2;strokeColor=#ffffff;points=[[0.005,0.63,0],[0.1,0.2,0],[0.9,0.2,0],[0.5,0,0],[0.995,0.63,0],[0.72,0.99,0],[0.5,1,0],[0.28,0.99,0]];shape=mxgraph.kubernetes.icon;prIcon=node" vertex="1" parent="1">
          <mxGeometry x="598.25" y="211.5" width="27.5" height="34" as="geometry" />
        </mxCell>
        <mxCell id="uuMYFCACOVy0hHcjNsLC-174" value="" style="sketch=0;html=1;dashed=0;whitespace=wrap;fillColor=#2875E2;strokeColor=#ffffff;points=[[0.005,0.63,0],[0.1,0.2,0],[0.9,0.2,0],[0.5,0,0],[0.995,0.63,0],[0.72,0.99,0],[0.5,1,0],[0.28,0.99,0]];shape=mxgraph.kubernetes.icon;prIcon=node" vertex="1" parent="1">
          <mxGeometry x="634.25" y="211.5" width="27.5" height="34" as="geometry" />
        </mxCell>
        <mxCell id="uuMYFCACOVy0hHcjNsLC-175" value="" style="sketch=0;html=1;dashed=0;whitespace=wrap;fillColor=#2875E2;strokeColor=#ffffff;points=[[0.005,0.63,0],[0.1,0.2,0],[0.9,0.2,0],[0.5,0,0],[0.995,0.63,0],[0.72,0.99,0],[0.5,1,0],[0.28,0.99,0]];shape=mxgraph.kubernetes.icon;prIcon=node" vertex="1" parent="1">
          <mxGeometry x="561.5" y="291.5" width="27.5" height="34" as="geometry" />
        </mxCell>
        <mxCell id="uuMYFCACOVy0hHcjNsLC-176" value="" style="sketch=0;html=1;dashed=0;whitespace=wrap;fillColor=#2875E2;strokeColor=#ffffff;points=[[0.005,0.63,0],[0.1,0.2,0],[0.9,0.2,0],[0.5,0,0],[0.995,0.63,0],[0.72,0.99,0],[0.5,1,0],[0.28,0.99,0]];shape=mxgraph.kubernetes.icon;prIcon=node" vertex="1" parent="1">
          <mxGeometry x="598.5" y="291.5" width="27.5" height="34" as="geometry" />
        </mxCell>
        <mxCell id="uuMYFCACOVy0hHcjNsLC-177" value="" style="sketch=0;html=1;dashed=0;whitespace=wrap;fillColor=#2875E2;strokeColor=#ffffff;points=[[0.005,0.63,0],[0.1,0.2,0],[0.9,0.2,0],[0.5,0,0],[0.995,0.63,0],[0.72,0.99,0],[0.5,1,0],[0.28,0.99,0]];shape=mxgraph.kubernetes.icon;prIcon=node" vertex="1" parent="1">
          <mxGeometry x="634.5" y="291.5" width="27.5" height="34" as="geometry" />
        </mxCell>
        <mxCell id="uuMYFCACOVy0hHcjNsLC-178" value="" style="sketch=0;html=1;dashed=0;whitespace=wrap;fillColor=#2875E2;strokeColor=#ffffff;points=[[0.005,0.63,0],[0.1,0.2,0],[0.9,0.2,0],[0.5,0,0],[0.995,0.63,0],[0.72,0.99,0],[0.5,1,0],[0.28,0.99,0]];shape=mxgraph.kubernetes.icon;prIcon=node" vertex="1" parent="1">
          <mxGeometry x="562.25" y="320.5" width="27.5" height="34" as="geometry" />
        </mxCell>
        <mxCell id="uuMYFCACOVy0hHcjNsLC-179" value="" style="sketch=0;html=1;dashed=0;whitespace=wrap;fillColor=#2875E2;strokeColor=#ffffff;points=[[0.005,0.63,0],[0.1,0.2,0],[0.9,0.2,0],[0.5,0,0],[0.995,0.63,0],[0.72,0.99,0],[0.5,1,0],[0.28,0.99,0]];shape=mxgraph.kubernetes.icon;prIcon=node" vertex="1" parent="1">
          <mxGeometry x="599.25" y="320.5" width="27.5" height="34" as="geometry" />
        </mxCell>
        <mxCell id="uuMYFCACOVy0hHcjNsLC-180" value="" style="sketch=0;html=1;dashed=0;whitespace=wrap;fillColor=#2875E2;strokeColor=#ffffff;points=[[0.005,0.63,0],[0.1,0.2,0],[0.9,0.2,0],[0.5,0,0],[0.995,0.63,0],[0.72,0.99,0],[0.5,1,0],[0.28,0.99,0]];shape=mxgraph.kubernetes.icon;prIcon=node" vertex="1" parent="1">
          <mxGeometry x="635.25" y="320.5" width="27.5" height="34" as="geometry" />
        </mxCell>
        <mxCell id="uuMYFCACOVy0hHcjNsLC-181" value="" style="sketch=0;html=1;dashed=0;whitespace=wrap;fillColor=#2875E2;strokeColor=#ffffff;points=[[0.005,0.63,0],[0.1,0.2,0],[0.9,0.2,0],[0.5,0,0],[0.995,0.63,0],[0.72,0.99,0],[0.5,1,0],[0.28,0.99,0]];shape=mxgraph.kubernetes.icon;prIcon=node" vertex="1" parent="1">
          <mxGeometry x="562.25" y="348.5" width="27.5" height="34" as="geometry" />
        </mxCell>
        <mxCell id="uuMYFCACOVy0hHcjNsLC-182" value="" style="sketch=0;html=1;dashed=0;whitespace=wrap;fillColor=#2875E2;strokeColor=#ffffff;points=[[0.005,0.63,0],[0.1,0.2,0],[0.9,0.2,0],[0.5,0,0],[0.995,0.63,0],[0.72,0.99,0],[0.5,1,0],[0.28,0.99,0]];shape=mxgraph.kubernetes.icon;prIcon=node" vertex="1" parent="1">
          <mxGeometry x="599.25" y="348.5" width="27.5" height="34" as="geometry" />
        </mxCell>
        <mxCell id="uuMYFCACOVy0hHcjNsLC-183" value="" style="sketch=0;html=1;dashed=0;whitespace=wrap;fillColor=#2875E2;strokeColor=#ffffff;points=[[0.005,0.63,0],[0.1,0.2,0],[0.9,0.2,0],[0.5,0,0],[0.995,0.63,0],[0.72,0.99,0],[0.5,1,0],[0.28,0.99,0]];shape=mxgraph.kubernetes.icon;prIcon=node" vertex="1" parent="1">
          <mxGeometry x="635.25" y="348.5" width="27.5" height="34" as="geometry" />
        </mxCell>
        <mxCell id="uuMYFCACOVy0hHcjNsLC-184" value="app-third" style="shape=image;verticalLabelPosition=bottom;verticalAlign=top;imageAspect=0;aspect=fixed;image=data:image/svg+xml,PHN2ZyB4bWxucz0iaHR0cDovL3d3dy53My5vcmcvMjAwMC9zdmciIHhtbG5zOnhsaW5rPSJodHRwOi8vd3d3LnczLm9yZy8xOTk5L3hsaW5rIiB0PSIxNTc1MzYyNjYyNzkxIiBjbGFzcz0iaWNvbiIgdmlld0JveD0iMCAwIDEwMjQgMTAyNCIgdmVyc2lvbj0iMS4xIiBwLWlkPSI1NzIwIiB3aWR0aD0iMTI4IiBoZWlnaHQ9IjEyOCI+PGRlZnM+PHN0eWxlIHR5cGU9InRleHQvY3NzIi8+PC9kZWZzPjxwYXRoIGQ9Ik0yNDMuNjI3IDI0My42Mjd2MTU3Ljg2NmwtNTMuMjA2IDI4LjQ4VjE5MC40MjFoMjM4LjQ2NGwtMjguNjcyIDUzLjIwNkgyNDMuNjI3eiBtMCA1MzYuNzQ2aDE1Ni40MzdsMjguNTAxIDUzLjIwNkgxOTAuNDIxVjU5NS4xMTVsNTMuMjA2IDI4LjgyMXYxNTYuNDM3eiBtNTM2Ljc0NiAwVjYyMy42MTZsNTMuMjA2LTI4LjUwMXYyMzguNDY0SDU5NC42NDVsMjguMzUyLTUzLjIwNmgxNTcuMzc2eiBtMC01MzYuNzQ2SDYyMy40NjdsLTI4LjUwMi01My4yMDZIODMzLjU4djIzNy44MjRsLTUzLjIwNi0yOC42NzJWMjQzLjYyN3ogbS0yNDYuMzU3IDY2LjY2NmE0Ny41MyA0Ny41MyAwIDAgMC00NC4wMzItMC4xN2wtMTE3LjgwMyA2Mi4wOEw1MTIgMTA2LjY2N2wxMzkuODE5IDI2NS42ODUtMTE3LjgwMy02Mi4wOHogbTAgNDAzLjQxNGwxMTcuODAzLTYxLjg4OEw1MTIgOTE3LjMzMyAzNzIuMzUyIDY1MS42NDhsMTE3LjgwMyA2Mi4wOGMxMy43NiA3LjI1MyAzMC4wOCA3LjI1MyA0My44NjEgMHogbTE3OS42OS0xNzkuNjkxYTQ3LjUzIDQ3LjUzIDAgMCAwIDAuMTcxLTQ0LjAzMmwtNjIuMDgtMTE3LjgwM0w5MTcuMzMzIDUxMiA2NTEuNjQ4IDY1MS44MTlsNjIuMDgtMTE3LjgwM3ogbS00MDMuNDEzLTQ0LjAzMmE0Ny41MyA0Ny41MyAwIDAgMC0wLjE3IDQ0LjAzMmw2Mi4wOCAxMTcuODAzTDEwNi42NjcgNTEybDI2NS42ODUtMTM5LjgxOS02Mi4wOCAxMTcuODAzeiIgZmlsbD0iIzAwQzFERSIgcC1pZD0iNTcyMSIvPjwvc3ZnPg==;fontColor=#EA6B66;fontSize=8;spacing=-6;" vertex="1" parent="1">
          <mxGeometry x="939" y="141.5" width="27.5" height="27.5" as="geometry" />
        </mxCell>
      </root>
    </mxGraphModel>
  </diagram>
</mxfile>
